<?xml version="1.0" encoding="utf-8" standalone="no"?>
<!DOCTYPE svg PUBLIC "-//W3C//DTD SVG 1.1//EN"
  "http://www.w3.org/Graphics/SVG/1.1/DTD/svg11.dtd">
<svg xmlns:xlink="http://www.w3.org/1999/xlink" width="504pt" height="324pt" viewBox="0 0 504 324" xmlns="http://www.w3.org/2000/svg" version="1.1">
 <metadata>
  <rdf:RDF xmlns:dc="http://purl.org/dc/elements/1.1/" xmlns:cc="http://creativecommons.org/ns#" xmlns:rdf="http://www.w3.org/1999/02/22-rdf-syntax-ns#">
   <cc:Work>
    <dc:type rdf:resource="http://purl.org/dc/dcmitype/StillImage"/>
    <dc:date>2026-01-09T19:27:40.975770</dc:date>
    <dc:format>image/svg+xml</dc:format>
    <dc:creator>
     <cc:Agent>
      <dc:title>Matplotlib v3.10.7, https://matplotlib.org/</dc:title>
     </cc:Agent>
    </dc:creator>
   </cc:Work>
  </rdf:RDF>
 </metadata>
 <defs>
  <style type="text/css">*{stroke-linejoin: round; stroke-linecap: butt}</style>
 </defs>
 <g id="figure_1">
  <g id="patch_1">
   <path d="M 0 324 
L 504 324 
L 504 0 
L 0 0 
z
" style="fill: #ffffff"/>
  </g>
  <g id="axes_1">
   <g id="patch_2">
    <path d="M 54.02 282.04 
L 493.2 282.04 
L 493.2 26.88 
L 54.02 26.88 
z
" style="fill: #ffffff"/>
   </g>
   <g id="FillBetweenPolyCollection_1">
    <path d="M 73.982727 38.478182 
L 73.982727 43.431067 
L 81.967818 43.431067 
L 89.952909 43.431067 
L 97.938 43.431067 
L 105.923091 43.431067 
L 113.908182 43.431067 
L 133.870909 43.431067 
L 153.833636 43.431067 
L 193.759091 43.431067 
L 233.684545 43.431067 
L 273.61 43.431067 
L 313.535455 43.431067 
L 353.460909 43.431067 
L 393.386364 43.431067 
L 433.311818 43.431067 
L 473.237273 43.431067 
L 473.237273 38.478182 
L 473.237273 38.478182 
L 433.311818 38.478182 
L 393.386364 38.478182 
L 353.460909 38.478182 
L 313.535455 38.478182 
L 273.61 38.478182 
L 233.684545 38.478182 
L 193.759091 38.478182 
L 153.833636 38.478182 
L 133.870909 38.478182 
L 113.908182 38.478182 
L 105.923091 38.478182 
L 97.938 38.478182 
L 89.952909 38.478182 
L 81.967818 38.478182 
L 73.982727 38.478182 
z
" clip-path="url(#p902a9baa94)" style="fill: #1f77b4; fill-opacity: 0.15"/>
   </g>
   <g id="FillBetweenPolyCollection_2">
    <path d="M 73.982727 163.636383 
L 73.982727 169.783445 
L 81.967818 169.783445 
L 89.952909 169.783445 
L 97.938 169.783445 
L 105.923091 169.783445 
L 113.908182 169.783445 
L 133.870909 169.783445 
L 153.833636 169.783445 
L 193.759091 169.783445 
L 233.684545 169.783445 
L 273.61 169.783445 
L 313.535455 169.783445 
L 353.460909 169.783445 
L 393.386364 169.783445 
L 433.311818 169.783445 
L 473.237273 169.783445 
L 473.237273 163.636383 
L 473.237273 163.636383 
L 433.311818 163.636383 
L 393.386364 163.636383 
L 353.460909 163.636383 
L 313.535455 163.636383 
L 273.61 163.636383 
L 233.684545 163.636383 
L 193.759091 163.636383 
L 153.833636 163.636383 
L 133.870909 163.636383 
L 113.908182 163.636383 
L 105.923091 163.636383 
L 97.938 163.636383 
L 89.952909 163.636383 
L 81.967818 163.636383 
L 73.982727 163.636383 
z
" clip-path="url(#p902a9baa94)" style="fill: #ff7f0e; fill-opacity: 0.15"/>
   </g>
   <g id="FillBetweenPolyCollection_3">
    <path d="M 73.982727 264.140946 
L 73.982727 270.441818 
L 81.967818 270.441818 
L 89.952909 270.441818 
L 97.938 270.441818 
L 105.923091 270.441818 
L 113.908182 270.441818 
L 133.870909 270.441818 
L 153.833636 270.441818 
L 193.759091 270.441818 
L 233.684545 270.441818 
L 273.61 270.441818 
L 313.535455 270.441818 
L 353.460909 270.441818 
L 393.386364 270.441818 
L 433.311818 270.441818 
L 473.237273 270.441818 
L 473.237273 264.140946 
L 473.237273 264.140946 
L 433.311818 264.140946 
L 393.386364 264.140946 
L 353.460909 264.140946 
L 313.535455 264.140946 
L 273.61 264.140946 
L 233.684545 264.140946 
L 193.759091 264.140946 
L 153.833636 264.140946 
L 133.870909 264.140946 
L 113.908182 264.140946 
L 105.923091 264.140946 
L 97.938 264.140946 
L 89.952909 264.140946 
L 81.967818 264.140946 
L 73.982727 264.140946 
z
" clip-path="url(#p902a9baa94)" style="fill: #2ca02c; fill-opacity: 0.15"/>
   </g>
   <g id="matplotlib.axis_1">
    <g id="xtick_1">
     <g id="line2d_1">
      <path d="M 73.982727 282.04 
L 73.982727 26.88 
" clip-path="url(#p902a9baa94)" style="fill: none; stroke-dasharray: 0.8,1.32; stroke-dashoffset: 0; stroke: #b0b0b0; stroke-opacity: 0.6; stroke-width: 0.8"/>
     </g>
     <g id="line2d_2">
      <defs>
       <path id="me27a53d9de" d="M 0 0 
L 0 3.5 
" style="stroke: #000000; stroke-width: 0.8"/>
      </defs>
      <g>
       <use xlink:href="#me27a53d9de" x="73.982727" y="282.04" style="stroke: #000000; stroke-width: 0.8"/>
      </g>
     </g>
     <g id="text_1">
      <!-- 0.0 -->
      <g transform="translate(66.031165 296.638438) scale(0.1 -0.1)">
       <defs>
        <path id="DejaVuSans-30" d="M 2034 4250 
Q 1547 4250 1301 3770 
Q 1056 3291 1056 2328 
Q 1056 1369 1301 889 
Q 1547 409 2034 409 
Q 2525 409 2770 889 
Q 3016 1369 3016 2328 
Q 3016 3291 2770 3770 
Q 2525 4250 2034 4250 
z
M 2034 4750 
Q 2819 4750 3233 4129 
Q 3647 3509 3647 2328 
Q 3647 1150 3233 529 
Q 2819 -91 2034 -91 
Q 1250 -91 836 529 
Q 422 1150 422 2328 
Q 422 3509 836 4129 
Q 1250 4750 2034 4750 
z
" transform="scale(0.015625)"/>
        <path id="DejaVuSans-2e" d="M 684 794 
L 1344 794 
L 1344 0 
L 684 0 
L 684 794 
z
" transform="scale(0.015625)"/>
       </defs>
       <use xlink:href="#DejaVuSans-30"/>
       <use xlink:href="#DejaVuSans-2e" transform="translate(63.623047 0)"/>
       <use xlink:href="#DejaVuSans-30" transform="translate(95.410156 0)"/>
      </g>
     </g>
    </g>
    <g id="xtick_2">
     <g id="line2d_3">
      <path d="M 153.833636 282.04 
L 153.833636 26.88 
" clip-path="url(#p902a9baa94)" style="fill: none; stroke-dasharray: 0.8,1.32; stroke-dashoffset: 0; stroke: #b0b0b0; stroke-opacity: 0.6; stroke-width: 0.8"/>
     </g>
     <g id="line2d_4">
      <g>
       <use xlink:href="#me27a53d9de" x="153.833636" y="282.04" style="stroke: #000000; stroke-width: 0.8"/>
      </g>
     </g>
     <g id="text_2">
      <!-- 0.1 -->
      <g transform="translate(145.882074 296.638438) scale(0.1 -0.1)">
       <defs>
        <path id="DejaVuSans-31" d="M 794 531 
L 1825 531 
L 1825 4091 
L 703 3866 
L 703 4441 
L 1819 4666 
L 2450 4666 
L 2450 531 
L 3481 531 
L 3481 0 
L 794 0 
L 794 531 
z
" transform="scale(0.015625)"/>
       </defs>
       <use xlink:href="#DejaVuSans-30"/>
       <use xlink:href="#DejaVuSans-2e" transform="translate(63.623047 0)"/>
       <use xlink:href="#DejaVuSans-31" transform="translate(95.410156 0)"/>
      </g>
     </g>
    </g>
    <g id="xtick_3">
     <g id="line2d_5">
      <path d="M 233.684545 282.04 
L 233.684545 26.88 
" clip-path="url(#p902a9baa94)" style="fill: none; stroke-dasharray: 0.8,1.32; stroke-dashoffset: 0; stroke: #b0b0b0; stroke-opacity: 0.6; stroke-width: 0.8"/>
     </g>
     <g id="line2d_6">
      <g>
       <use xlink:href="#me27a53d9de" x="233.684545" y="282.04" style="stroke: #000000; stroke-width: 0.8"/>
      </g>
     </g>
     <g id="text_3">
      <!-- 0.2 -->
      <g transform="translate(225.732983 296.638438) scale(0.1 -0.1)">
       <defs>
        <path id="DejaVuSans-32" d="M 1228 531 
L 3431 531 
L 3431 0 
L 469 0 
L 469 531 
Q 828 903 1448 1529 
Q 2069 2156 2228 2338 
Q 2531 2678 2651 2914 
Q 2772 3150 2772 3378 
Q 2772 3750 2511 3984 
Q 2250 4219 1831 4219 
Q 1534 4219 1204 4116 
Q 875 4013 500 3803 
L 500 4441 
Q 881 4594 1212 4672 
Q 1544 4750 1819 4750 
Q 2544 4750 2975 4387 
Q 3406 4025 3406 3419 
Q 3406 3131 3298 2873 
Q 3191 2616 2906 2266 
Q 2828 2175 2409 1742 
Q 1991 1309 1228 531 
z
" transform="scale(0.015625)"/>
       </defs>
       <use xlink:href="#DejaVuSans-30"/>
       <use xlink:href="#DejaVuSans-2e" transform="translate(63.623047 0)"/>
       <use xlink:href="#DejaVuSans-32" transform="translate(95.410156 0)"/>
      </g>
     </g>
    </g>
    <g id="xtick_4">
     <g id="line2d_7">
      <path d="M 313.535455 282.04 
L 313.535455 26.88 
" clip-path="url(#p902a9baa94)" style="fill: none; stroke-dasharray: 0.8,1.32; stroke-dashoffset: 0; stroke: #b0b0b0; stroke-opacity: 0.6; stroke-width: 0.8"/>
     </g>
     <g id="line2d_8">
      <g>
       <use xlink:href="#me27a53d9de" x="313.535455" y="282.04" style="stroke: #000000; stroke-width: 0.8"/>
      </g>
     </g>
     <g id="text_4">
      <!-- 0.3 -->
      <g transform="translate(305.583892 296.638438) scale(0.1 -0.1)">
       <defs>
        <path id="DejaVuSans-33" d="M 2597 2516 
Q 3050 2419 3304 2112 
Q 3559 1806 3559 1356 
Q 3559 666 3084 287 
Q 2609 -91 1734 -91 
Q 1441 -91 1130 -33 
Q 819 25 488 141 
L 488 750 
Q 750 597 1062 519 
Q 1375 441 1716 441 
Q 2309 441 2620 675 
Q 2931 909 2931 1356 
Q 2931 1769 2642 2001 
Q 2353 2234 1838 2234 
L 1294 2234 
L 1294 2753 
L 1863 2753 
Q 2328 2753 2575 2939 
Q 2822 3125 2822 3475 
Q 2822 3834 2567 4026 
Q 2313 4219 1838 4219 
Q 1578 4219 1281 4162 
Q 984 4106 628 3988 
L 628 4550 
Q 988 4650 1302 4700 
Q 1616 4750 1894 4750 
Q 2613 4750 3031 4423 
Q 3450 4097 3450 3541 
Q 3450 3153 3228 2886 
Q 3006 2619 2597 2516 
z
" transform="scale(0.015625)"/>
       </defs>
       <use xlink:href="#DejaVuSans-30"/>
       <use xlink:href="#DejaVuSans-2e" transform="translate(63.623047 0)"/>
       <use xlink:href="#DejaVuSans-33" transform="translate(95.410156 0)"/>
      </g>
     </g>
    </g>
    <g id="xtick_5">
     <g id="line2d_9">
      <path d="M 393.386364 282.04 
L 393.386364 26.88 
" clip-path="url(#p902a9baa94)" style="fill: none; stroke-dasharray: 0.8,1.32; stroke-dashoffset: 0; stroke: #b0b0b0; stroke-opacity: 0.6; stroke-width: 0.8"/>
     </g>
     <g id="line2d_10">
      <g>
       <use xlink:href="#me27a53d9de" x="393.386364" y="282.04" style="stroke: #000000; stroke-width: 0.8"/>
      </g>
     </g>
     <g id="text_5">
      <!-- 0.4 -->
      <g transform="translate(385.434801 296.638438) scale(0.1 -0.1)">
       <defs>
        <path id="DejaVuSans-34" d="M 2419 4116 
L 825 1625 
L 2419 1625 
L 2419 4116 
z
M 2253 4666 
L 3047 4666 
L 3047 1625 
L 3713 1625 
L 3713 1100 
L 3047 1100 
L 3047 0 
L 2419 0 
L 2419 1100 
L 313 1100 
L 313 1709 
L 2253 4666 
z
" transform="scale(0.015625)"/>
       </defs>
       <use xlink:href="#DejaVuSans-30"/>
       <use xlink:href="#DejaVuSans-2e" transform="translate(63.623047 0)"/>
       <use xlink:href="#DejaVuSans-34" transform="translate(95.410156 0)"/>
      </g>
     </g>
    </g>
    <g id="xtick_6">
     <g id="line2d_11">
      <path d="M 473.237273 282.04 
L 473.237273 26.88 
" clip-path="url(#p902a9baa94)" style="fill: none; stroke-dasharray: 0.8,1.32; stroke-dashoffset: 0; stroke: #b0b0b0; stroke-opacity: 0.6; stroke-width: 0.8"/>
     </g>
     <g id="line2d_12">
      <g>
       <use xlink:href="#me27a53d9de" x="473.237273" y="282.04" style="stroke: #000000; stroke-width: 0.8"/>
      </g>
     </g>
     <g id="text_6">
      <!-- 0.5 -->
      <g transform="translate(465.28571 296.638438) scale(0.1 -0.1)">
       <defs>
        <path id="DejaVuSans-35" d="M 691 4666 
L 3169 4666 
L 3169 4134 
L 1269 4134 
L 1269 2991 
Q 1406 3038 1543 3061 
Q 1681 3084 1819 3084 
Q 2600 3084 3056 2656 
Q 3513 2228 3513 1497 
Q 3513 744 3044 326 
Q 2575 -91 1722 -91 
Q 1428 -91 1123 -41 
Q 819 9 494 109 
L 494 744 
Q 775 591 1075 516 
Q 1375 441 1709 441 
Q 2250 441 2565 725 
Q 2881 1009 2881 1497 
Q 2881 1984 2565 2268 
Q 2250 2553 1709 2553 
Q 1456 2553 1204 2497 
Q 953 2441 691 2322 
L 691 4666 
z
" transform="scale(0.015625)"/>
       </defs>
       <use xlink:href="#DejaVuSans-30"/>
       <use xlink:href="#DejaVuSans-2e" transform="translate(63.623047 0)"/>
       <use xlink:href="#DejaVuSans-35" transform="translate(95.410156 0)"/>
      </g>
     </g>
    </g>
    <g id="text_7">
     <!-- alpha -->
     <g transform="translate(259.749844 310.316563) scale(0.1 -0.1)">
      <defs>
       <path id="DejaVuSans-61" d="M 2194 1759 
Q 1497 1759 1228 1600 
Q 959 1441 959 1056 
Q 959 750 1161 570 
Q 1363 391 1709 391 
Q 2188 391 2477 730 
Q 2766 1069 2766 1631 
L 2766 1759 
L 2194 1759 
z
M 3341 1997 
L 3341 0 
L 2766 0 
L 2766 531 
Q 2569 213 2275 61 
Q 1981 -91 1556 -91 
Q 1019 -91 701 211 
Q 384 513 384 1019 
Q 384 1609 779 1909 
Q 1175 2209 1959 2209 
L 2766 2209 
L 2766 2266 
Q 2766 2663 2505 2880 
Q 2244 3097 1772 3097 
Q 1472 3097 1187 3025 
Q 903 2953 641 2809 
L 641 3341 
Q 956 3463 1253 3523 
Q 1550 3584 1831 3584 
Q 2591 3584 2966 3190 
Q 3341 2797 3341 1997 
z
" transform="scale(0.015625)"/>
       <path id="DejaVuSans-6c" d="M 603 4863 
L 1178 4863 
L 1178 0 
L 603 0 
L 603 4863 
z
" transform="scale(0.015625)"/>
       <path id="DejaVuSans-70" d="M 1159 525 
L 1159 -1331 
L 581 -1331 
L 581 3500 
L 1159 3500 
L 1159 2969 
Q 1341 3281 1617 3432 
Q 1894 3584 2278 3584 
Q 2916 3584 3314 3078 
Q 3713 2572 3713 1747 
Q 3713 922 3314 415 
Q 2916 -91 2278 -91 
Q 1894 -91 1617 61 
Q 1341 213 1159 525 
z
M 3116 1747 
Q 3116 2381 2855 2742 
Q 2594 3103 2138 3103 
Q 1681 3103 1420 2742 
Q 1159 2381 1159 1747 
Q 1159 1113 1420 752 
Q 1681 391 2138 391 
Q 2594 391 2855 752 
Q 3116 1113 3116 1747 
z
" transform="scale(0.015625)"/>
       <path id="DejaVuSans-68" d="M 3513 2113 
L 3513 0 
L 2938 0 
L 2938 2094 
Q 2938 2591 2744 2837 
Q 2550 3084 2163 3084 
Q 1697 3084 1428 2787 
Q 1159 2491 1159 1978 
L 1159 0 
L 581 0 
L 581 4863 
L 1159 4863 
L 1159 2956 
Q 1366 3272 1645 3428 
Q 1925 3584 2291 3584 
Q 2894 3584 3203 3211 
Q 3513 2838 3513 2113 
z
" transform="scale(0.015625)"/>
      </defs>
      <use xlink:href="#DejaVuSans-61"/>
      <use xlink:href="#DejaVuSans-6c" transform="translate(61.279297 0)"/>
      <use xlink:href="#DejaVuSans-70" transform="translate(89.0625 0)"/>
      <use xlink:href="#DejaVuSans-68" transform="translate(152.539062 0)"/>
      <use xlink:href="#DejaVuSans-61" transform="translate(215.917969 0)"/>
     </g>
    </g>
   </g>
   <g id="matplotlib.axis_2">
    <g id="ytick_1">
     <g id="line2d_13">
      <path d="M 54.02 239.593999 
L 493.2 239.593999 
" clip-path="url(#p902a9baa94)" style="fill: none; stroke-dasharray: 0.8,1.32; stroke-dashoffset: 0; stroke: #b0b0b0; stroke-opacity: 0.6; stroke-width: 0.8"/>
     </g>
     <g id="line2d_14">
      <defs>
       <path id="m0ef63d83a1" d="M 0 0 
L -3.5 0 
" style="stroke: #000000; stroke-width: 0.8"/>
      </defs>
      <g>
       <use xlink:href="#m0ef63d83a1" x="54.02" y="239.593999" style="stroke: #000000; stroke-width: 0.8"/>
      </g>
     </g>
     <g id="text_8">
      <!-- 0.75 -->
      <g transform="translate(24.754375 243.393218) scale(0.1 -0.1)">
       <defs>
        <path id="DejaVuSans-37" d="M 525 4666 
L 3525 4666 
L 3525 4397 
L 1831 0 
L 1172 0 
L 2766 4134 
L 525 4134 
L 525 4666 
z
" transform="scale(0.015625)"/>
       </defs>
       <use xlink:href="#DejaVuSans-30"/>
       <use xlink:href="#DejaVuSans-2e" transform="translate(63.623047 0)"/>
       <use xlink:href="#DejaVuSans-37" transform="translate(95.410156 0)"/>
       <use xlink:href="#DejaVuSans-35" transform="translate(159.033203 0)"/>
      </g>
     </g>
    </g>
    <g id="ytick_2">
     <g id="line2d_15">
      <path d="M 54.02 188.130915 
L 493.2 188.130915 
" clip-path="url(#p902a9baa94)" style="fill: none; stroke-dasharray: 0.8,1.32; stroke-dashoffset: 0; stroke: #b0b0b0; stroke-opacity: 0.6; stroke-width: 0.8"/>
     </g>
     <g id="line2d_16">
      <g>
       <use xlink:href="#m0ef63d83a1" x="54.02" y="188.130915" style="stroke: #000000; stroke-width: 0.8"/>
      </g>
     </g>
     <g id="text_9">
      <!-- 0.80 -->
      <g transform="translate(24.754375 191.930134) scale(0.1 -0.1)">
       <defs>
        <path id="DejaVuSans-38" d="M 2034 2216 
Q 1584 2216 1326 1975 
Q 1069 1734 1069 1313 
Q 1069 891 1326 650 
Q 1584 409 2034 409 
Q 2484 409 2743 651 
Q 3003 894 3003 1313 
Q 3003 1734 2745 1975 
Q 2488 2216 2034 2216 
z
M 1403 2484 
Q 997 2584 770 2862 
Q 544 3141 544 3541 
Q 544 4100 942 4425 
Q 1341 4750 2034 4750 
Q 2731 4750 3128 4425 
Q 3525 4100 3525 3541 
Q 3525 3141 3298 2862 
Q 3072 2584 2669 2484 
Q 3125 2378 3379 2068 
Q 3634 1759 3634 1313 
Q 3634 634 3220 271 
Q 2806 -91 2034 -91 
Q 1263 -91 848 271 
Q 434 634 434 1313 
Q 434 1759 690 2068 
Q 947 2378 1403 2484 
z
M 1172 3481 
Q 1172 3119 1398 2916 
Q 1625 2713 2034 2713 
Q 2441 2713 2670 2916 
Q 2900 3119 2900 3481 
Q 2900 3844 2670 4047 
Q 2441 4250 2034 4250 
Q 1625 4250 1398 4047 
Q 1172 3844 1172 3481 
z
" transform="scale(0.015625)"/>
       </defs>
       <use xlink:href="#DejaVuSans-30"/>
       <use xlink:href="#DejaVuSans-2e" transform="translate(63.623047 0)"/>
       <use xlink:href="#DejaVuSans-38" transform="translate(95.410156 0)"/>
       <use xlink:href="#DejaVuSans-30" transform="translate(159.033203 0)"/>
      </g>
     </g>
    </g>
    <g id="ytick_3">
     <g id="line2d_17">
      <path d="M 54.02 136.667831 
L 493.2 136.667831 
" clip-path="url(#p902a9baa94)" style="fill: none; stroke-dasharray: 0.8,1.32; stroke-dashoffset: 0; stroke: #b0b0b0; stroke-opacity: 0.6; stroke-width: 0.8"/>
     </g>
     <g id="line2d_18">
      <g>
       <use xlink:href="#m0ef63d83a1" x="54.02" y="136.667831" style="stroke: #000000; stroke-width: 0.8"/>
      </g>
     </g>
     <g id="text_10">
      <!-- 0.85 -->
      <g transform="translate(24.754375 140.46705) scale(0.1 -0.1)">
       <use xlink:href="#DejaVuSans-30"/>
       <use xlink:href="#DejaVuSans-2e" transform="translate(63.623047 0)"/>
       <use xlink:href="#DejaVuSans-38" transform="translate(95.410156 0)"/>
       <use xlink:href="#DejaVuSans-35" transform="translate(159.033203 0)"/>
      </g>
     </g>
    </g>
    <g id="ytick_4">
     <g id="line2d_19">
      <path d="M 54.02 85.204747 
L 493.2 85.204747 
" clip-path="url(#p902a9baa94)" style="fill: none; stroke-dasharray: 0.8,1.32; stroke-dashoffset: 0; stroke: #b0b0b0; stroke-opacity: 0.6; stroke-width: 0.8"/>
     </g>
     <g id="line2d_20">
      <g>
       <use xlink:href="#m0ef63d83a1" x="54.02" y="85.204747" style="stroke: #000000; stroke-width: 0.8"/>
      </g>
     </g>
     <g id="text_11">
      <!-- 0.90 -->
      <g transform="translate(24.754375 89.003965) scale(0.1 -0.1)">
       <defs>
        <path id="DejaVuSans-39" d="M 703 97 
L 703 672 
Q 941 559 1184 500 
Q 1428 441 1663 441 
Q 2288 441 2617 861 
Q 2947 1281 2994 2138 
Q 2813 1869 2534 1725 
Q 2256 1581 1919 1581 
Q 1219 1581 811 2004 
Q 403 2428 403 3163 
Q 403 3881 828 4315 
Q 1253 4750 1959 4750 
Q 2769 4750 3195 4129 
Q 3622 3509 3622 2328 
Q 3622 1225 3098 567 
Q 2575 -91 1691 -91 
Q 1453 -91 1209 -44 
Q 966 3 703 97 
z
M 1959 2075 
Q 2384 2075 2632 2365 
Q 2881 2656 2881 3163 
Q 2881 3666 2632 3958 
Q 2384 4250 1959 4250 
Q 1534 4250 1286 3958 
Q 1038 3666 1038 3163 
Q 1038 2656 1286 2365 
Q 1534 2075 1959 2075 
z
" transform="scale(0.015625)"/>
       </defs>
       <use xlink:href="#DejaVuSans-30"/>
       <use xlink:href="#DejaVuSans-2e" transform="translate(63.623047 0)"/>
       <use xlink:href="#DejaVuSans-39" transform="translate(95.410156 0)"/>
       <use xlink:href="#DejaVuSans-30" transform="translate(159.033203 0)"/>
      </g>
     </g>
    </g>
    <g id="ytick_5">
     <g id="line2d_21">
      <path d="M 54.02 33.741663 
L 493.2 33.741663 
" clip-path="url(#p902a9baa94)" style="fill: none; stroke-dasharray: 0.8,1.32; stroke-dashoffset: 0; stroke: #b0b0b0; stroke-opacity: 0.6; stroke-width: 0.8"/>
     </g>
     <g id="line2d_22">
      <g>
       <use xlink:href="#m0ef63d83a1" x="54.02" y="33.741663" style="stroke: #000000; stroke-width: 0.8"/>
      </g>
     </g>
     <g id="text_12">
      <!-- 0.95 -->
      <g transform="translate(24.754375 37.540881) scale(0.1 -0.1)">
       <use xlink:href="#DejaVuSans-30"/>
       <use xlink:href="#DejaVuSans-2e" transform="translate(63.623047 0)"/>
       <use xlink:href="#DejaVuSans-39" transform="translate(95.410156 0)"/>
       <use xlink:href="#DejaVuSans-35" transform="translate(159.033203 0)"/>
      </g>
     </g>
    </g>
    <g id="text_13">
     <!-- Base Top-1 Accuracy -->
     <g transform="translate(18.674688 206.064687) rotate(-90) scale(0.1 -0.1)">
      <defs>
       <path id="DejaVuSans-42" d="M 1259 2228 
L 1259 519 
L 2272 519 
Q 2781 519 3026 730 
Q 3272 941 3272 1375 
Q 3272 1813 3026 2020 
Q 2781 2228 2272 2228 
L 1259 2228 
z
M 1259 4147 
L 1259 2741 
L 2194 2741 
Q 2656 2741 2882 2914 
Q 3109 3088 3109 3444 
Q 3109 3797 2882 3972 
Q 2656 4147 2194 4147 
L 1259 4147 
z
M 628 4666 
L 2241 4666 
Q 2963 4666 3353 4366 
Q 3744 4066 3744 3513 
Q 3744 3084 3544 2831 
Q 3344 2578 2956 2516 
Q 3422 2416 3680 2098 
Q 3938 1781 3938 1306 
Q 3938 681 3513 340 
Q 3088 0 2303 0 
L 628 0 
L 628 4666 
z
" transform="scale(0.015625)"/>
       <path id="DejaVuSans-73" d="M 2834 3397 
L 2834 2853 
Q 2591 2978 2328 3040 
Q 2066 3103 1784 3103 
Q 1356 3103 1142 2972 
Q 928 2841 928 2578 
Q 928 2378 1081 2264 
Q 1234 2150 1697 2047 
L 1894 2003 
Q 2506 1872 2764 1633 
Q 3022 1394 3022 966 
Q 3022 478 2636 193 
Q 2250 -91 1575 -91 
Q 1294 -91 989 -36 
Q 684 19 347 128 
L 347 722 
Q 666 556 975 473 
Q 1284 391 1588 391 
Q 1994 391 2212 530 
Q 2431 669 2431 922 
Q 2431 1156 2273 1281 
Q 2116 1406 1581 1522 
L 1381 1569 
Q 847 1681 609 1914 
Q 372 2147 372 2553 
Q 372 3047 722 3315 
Q 1072 3584 1716 3584 
Q 2034 3584 2315 3537 
Q 2597 3491 2834 3397 
z
" transform="scale(0.015625)"/>
       <path id="DejaVuSans-65" d="M 3597 1894 
L 3597 1613 
L 953 1613 
Q 991 1019 1311 708 
Q 1631 397 2203 397 
Q 2534 397 2845 478 
Q 3156 559 3463 722 
L 3463 178 
Q 3153 47 2828 -22 
Q 2503 -91 2169 -91 
Q 1331 -91 842 396 
Q 353 884 353 1716 
Q 353 2575 817 3079 
Q 1281 3584 2069 3584 
Q 2775 3584 3186 3129 
Q 3597 2675 3597 1894 
z
M 3022 2063 
Q 3016 2534 2758 2815 
Q 2500 3097 2075 3097 
Q 1594 3097 1305 2825 
Q 1016 2553 972 2059 
L 3022 2063 
z
" transform="scale(0.015625)"/>
       <path id="DejaVuSans-20" transform="scale(0.015625)"/>
       <path id="DejaVuSans-54" d="M -19 4666 
L 3928 4666 
L 3928 4134 
L 2272 4134 
L 2272 0 
L 1638 0 
L 1638 4134 
L -19 4134 
L -19 4666 
z
" transform="scale(0.015625)"/>
       <path id="DejaVuSans-6f" d="M 1959 3097 
Q 1497 3097 1228 2736 
Q 959 2375 959 1747 
Q 959 1119 1226 758 
Q 1494 397 1959 397 
Q 2419 397 2687 759 
Q 2956 1122 2956 1747 
Q 2956 2369 2687 2733 
Q 2419 3097 1959 3097 
z
M 1959 3584 
Q 2709 3584 3137 3096 
Q 3566 2609 3566 1747 
Q 3566 888 3137 398 
Q 2709 -91 1959 -91 
Q 1206 -91 779 398 
Q 353 888 353 1747 
Q 353 2609 779 3096 
Q 1206 3584 1959 3584 
z
" transform="scale(0.015625)"/>
       <path id="DejaVuSans-2d" d="M 313 2009 
L 1997 2009 
L 1997 1497 
L 313 1497 
L 313 2009 
z
" transform="scale(0.015625)"/>
       <path id="DejaVuSans-41" d="M 2188 4044 
L 1331 1722 
L 3047 1722 
L 2188 4044 
z
M 1831 4666 
L 2547 4666 
L 4325 0 
L 3669 0 
L 3244 1197 
L 1141 1197 
L 716 0 
L 50 0 
L 1831 4666 
z
" transform="scale(0.015625)"/>
       <path id="DejaVuSans-63" d="M 3122 3366 
L 3122 2828 
Q 2878 2963 2633 3030 
Q 2388 3097 2138 3097 
Q 1578 3097 1268 2742 
Q 959 2388 959 1747 
Q 959 1106 1268 751 
Q 1578 397 2138 397 
Q 2388 397 2633 464 
Q 2878 531 3122 666 
L 3122 134 
Q 2881 22 2623 -34 
Q 2366 -91 2075 -91 
Q 1284 -91 818 406 
Q 353 903 353 1747 
Q 353 2603 823 3093 
Q 1294 3584 2113 3584 
Q 2378 3584 2631 3529 
Q 2884 3475 3122 3366 
z
" transform="scale(0.015625)"/>
       <path id="DejaVuSans-75" d="M 544 1381 
L 544 3500 
L 1119 3500 
L 1119 1403 
Q 1119 906 1312 657 
Q 1506 409 1894 409 
Q 2359 409 2629 706 
Q 2900 1003 2900 1516 
L 2900 3500 
L 3475 3500 
L 3475 0 
L 2900 0 
L 2900 538 
Q 2691 219 2414 64 
Q 2138 -91 1772 -91 
Q 1169 -91 856 284 
Q 544 659 544 1381 
z
M 1991 3584 
L 1991 3584 
z
" transform="scale(0.015625)"/>
       <path id="DejaVuSans-72" d="M 2631 2963 
Q 2534 3019 2420 3045 
Q 2306 3072 2169 3072 
Q 1681 3072 1420 2755 
Q 1159 2438 1159 1844 
L 1159 0 
L 581 0 
L 581 3500 
L 1159 3500 
L 1159 2956 
Q 1341 3275 1631 3429 
Q 1922 3584 2338 3584 
Q 2397 3584 2469 3576 
Q 2541 3569 2628 3553 
L 2631 2963 
z
" transform="scale(0.015625)"/>
       <path id="DejaVuSans-79" d="M 2059 -325 
Q 1816 -950 1584 -1140 
Q 1353 -1331 966 -1331 
L 506 -1331 
L 506 -850 
L 844 -850 
Q 1081 -850 1212 -737 
Q 1344 -625 1503 -206 
L 1606 56 
L 191 3500 
L 800 3500 
L 1894 763 
L 2988 3500 
L 3597 3500 
L 2059 -325 
z
" transform="scale(0.015625)"/>
      </defs>
      <use xlink:href="#DejaVuSans-42"/>
      <use xlink:href="#DejaVuSans-61" transform="translate(68.603516 0)"/>
      <use xlink:href="#DejaVuSans-73" transform="translate(129.882812 0)"/>
      <use xlink:href="#DejaVuSans-65" transform="translate(181.982422 0)"/>
      <use xlink:href="#DejaVuSans-20" transform="translate(243.505859 0)"/>
      <use xlink:href="#DejaVuSans-54" transform="translate(275.292969 0)"/>
      <use xlink:href="#DejaVuSans-6f" transform="translate(319.376953 0)"/>
      <use xlink:href="#DejaVuSans-70" transform="translate(380.558594 0)"/>
      <use xlink:href="#DejaVuSans-2d" transform="translate(444.035156 0)"/>
      <use xlink:href="#DejaVuSans-31" transform="translate(480.119141 0)"/>
      <use xlink:href="#DejaVuSans-20" transform="translate(543.742188 0)"/>
      <use xlink:href="#DejaVuSans-41" transform="translate(575.529297 0)"/>
      <use xlink:href="#DejaVuSans-63" transform="translate(642.1875 0)"/>
      <use xlink:href="#DejaVuSans-63" transform="translate(697.167969 0)"/>
      <use xlink:href="#DejaVuSans-75" transform="translate(752.148438 0)"/>
      <use xlink:href="#DejaVuSans-72" transform="translate(815.527344 0)"/>
      <use xlink:href="#DejaVuSans-61" transform="translate(856.640625 0)"/>
      <use xlink:href="#DejaVuSans-63" transform="translate(917.919922 0)"/>
      <use xlink:href="#DejaVuSans-79" transform="translate(972.900391 0)"/>
     </g>
    </g>
   </g>
   <g id="line2d_23">
    <path d="M 73.982727 40.954624 
L 81.967818 40.954624 
L 89.952909 40.954624 
L 97.938 40.954624 
L 105.923091 40.954624 
L 113.908182 40.954624 
L 133.870909 40.954624 
L 153.833636 40.954624 
L 193.759091 40.954624 
L 233.684545 40.954624 
L 273.61 40.954624 
L 313.535455 40.954624 
L 353.460909 40.954624 
L 393.386364 40.954624 
L 433.311818 40.954624 
L 473.237273 40.954624 
" clip-path="url(#p902a9baa94)" style="fill: none; stroke: #1f77b4; stroke-width: 1.5; stroke-linecap: square"/>
    <defs>
     <path id="mf1d27fb673" d="M 0 3 
C 0.795609 3 1.55874 2.683901 2.12132 2.12132 
C 2.683901 1.55874 3 0.795609 3 0 
C 3 -0.795609 2.683901 -1.55874 2.12132 -2.12132 
C 1.55874 -2.683901 0.795609 -3 0 -3 
C -0.795609 -3 -1.55874 -2.683901 -2.12132 -2.12132 
C -2.683901 -1.55874 -3 -0.795609 -3 0 
C -3 0.795609 -2.683901 1.55874 -2.12132 2.12132 
C -1.55874 2.683901 -0.795609 3 0 3 
z
" style="stroke: #1f77b4"/>
    </defs>
    <g clip-path="url(#p902a9baa94)">
     <use xlink:href="#mf1d27fb673" x="73.982727" y="40.954624" style="fill: #1f77b4; stroke: #1f77b4"/>
     <use xlink:href="#mf1d27fb673" x="81.967818" y="40.954624" style="fill: #1f77b4; stroke: #1f77b4"/>
     <use xlink:href="#mf1d27fb673" x="89.952909" y="40.954624" style="fill: #1f77b4; stroke: #1f77b4"/>
     <use xlink:href="#mf1d27fb673" x="97.938" y="40.954624" style="fill: #1f77b4; stroke: #1f77b4"/>
     <use xlink:href="#mf1d27fb673" x="105.923091" y="40.954624" style="fill: #1f77b4; stroke: #1f77b4"/>
     <use xlink:href="#mf1d27fb673" x="113.908182" y="40.954624" style="fill: #1f77b4; stroke: #1f77b4"/>
     <use xlink:href="#mf1d27fb673" x="133.870909" y="40.954624" style="fill: #1f77b4; stroke: #1f77b4"/>
     <use xlink:href="#mf1d27fb673" x="153.833636" y="40.954624" style="fill: #1f77b4; stroke: #1f77b4"/>
     <use xlink:href="#mf1d27fb673" x="193.759091" y="40.954624" style="fill: #1f77b4; stroke: #1f77b4"/>
     <use xlink:href="#mf1d27fb673" x="233.684545" y="40.954624" style="fill: #1f77b4; stroke: #1f77b4"/>
     <use xlink:href="#mf1d27fb673" x="273.61" y="40.954624" style="fill: #1f77b4; stroke: #1f77b4"/>
     <use xlink:href="#mf1d27fb673" x="313.535455" y="40.954624" style="fill: #1f77b4; stroke: #1f77b4"/>
     <use xlink:href="#mf1d27fb673" x="353.460909" y="40.954624" style="fill: #1f77b4; stroke: #1f77b4"/>
     <use xlink:href="#mf1d27fb673" x="393.386364" y="40.954624" style="fill: #1f77b4; stroke: #1f77b4"/>
     <use xlink:href="#mf1d27fb673" x="433.311818" y="40.954624" style="fill: #1f77b4; stroke: #1f77b4"/>
     <use xlink:href="#mf1d27fb673" x="473.237273" y="40.954624" style="fill: #1f77b4; stroke: #1f77b4"/>
    </g>
   </g>
   <g id="line2d_24">
    <path d="M 73.982727 166.709914 
L 81.967818 166.709914 
L 89.952909 166.709914 
L 97.938 166.709914 
L 105.923091 166.709914 
L 113.908182 166.709914 
L 133.870909 166.709914 
L 153.833636 166.709914 
L 193.759091 166.709914 
L 233.684545 166.709914 
L 273.61 166.709914 
L 313.535455 166.709914 
L 353.460909 166.709914 
L 393.386364 166.709914 
L 433.311818 166.709914 
L 473.237273 166.709914 
" clip-path="url(#p902a9baa94)" style="fill: none; stroke: #ff7f0e; stroke-width: 1.5; stroke-linecap: square"/>
    <defs>
     <path id="m38b30c307c" d="M 0 3 
C 0.795609 3 1.55874 2.683901 2.12132 2.12132 
C 2.683901 1.55874 3 0.795609 3 0 
C 3 -0.795609 2.683901 -1.55874 2.12132 -2.12132 
C 1.55874 -2.683901 0.795609 -3 0 -3 
C -0.795609 -3 -1.55874 -2.683901 -2.12132 -2.12132 
C -2.683901 -1.55874 -3 -0.795609 -3 0 
C -3 0.795609 -2.683901 1.55874 -2.12132 2.12132 
C -1.55874 2.683901 -0.795609 3 0 3 
z
" style="stroke: #ff7f0e"/>
    </defs>
    <g clip-path="url(#p902a9baa94)">
     <use xlink:href="#m38b30c307c" x="73.982727" y="166.709914" style="fill: #ff7f0e; stroke: #ff7f0e"/>
     <use xlink:href="#m38b30c307c" x="81.967818" y="166.709914" style="fill: #ff7f0e; stroke: #ff7f0e"/>
     <use xlink:href="#m38b30c307c" x="89.952909" y="166.709914" style="fill: #ff7f0e; stroke: #ff7f0e"/>
     <use xlink:href="#m38b30c307c" x="97.938" y="166.709914" style="fill: #ff7f0e; stroke: #ff7f0e"/>
     <use xlink:href="#m38b30c307c" x="105.923091" y="166.709914" style="fill: #ff7f0e; stroke: #ff7f0e"/>
     <use xlink:href="#m38b30c307c" x="113.908182" y="166.709914" style="fill: #ff7f0e; stroke: #ff7f0e"/>
     <use xlink:href="#m38b30c307c" x="133.870909" y="166.709914" style="fill: #ff7f0e; stroke: #ff7f0e"/>
     <use xlink:href="#m38b30c307c" x="153.833636" y="166.709914" style="fill: #ff7f0e; stroke: #ff7f0e"/>
     <use xlink:href="#m38b30c307c" x="193.759091" y="166.709914" style="fill: #ff7f0e; stroke: #ff7f0e"/>
     <use xlink:href="#m38b30c307c" x="233.684545" y="166.709914" style="fill: #ff7f0e; stroke: #ff7f0e"/>
     <use xlink:href="#m38b30c307c" x="273.61" y="166.709914" style="fill: #ff7f0e; stroke: #ff7f0e"/>
     <use xlink:href="#m38b30c307c" x="313.535455" y="166.709914" style="fill: #ff7f0e; stroke: #ff7f0e"/>
     <use xlink:href="#m38b30c307c" x="353.460909" y="166.709914" style="fill: #ff7f0e; stroke: #ff7f0e"/>
     <use xlink:href="#m38b30c307c" x="393.386364" y="166.709914" style="fill: #ff7f0e; stroke: #ff7f0e"/>
     <use xlink:href="#m38b30c307c" x="433.311818" y="166.709914" style="fill: #ff7f0e; stroke: #ff7f0e"/>
     <use xlink:href="#m38b30c307c" x="473.237273" y="166.709914" style="fill: #ff7f0e; stroke: #ff7f0e"/>
    </g>
   </g>
   <g id="line2d_25">
    <path d="M 73.982727 267.291382 
L 81.967818 267.291382 
L 89.952909 267.291382 
L 97.938 267.291382 
L 105.923091 267.291382 
L 113.908182 267.291382 
L 133.870909 267.291382 
L 153.833636 267.291382 
L 193.759091 267.291382 
L 233.684545 267.291382 
L 273.61 267.291382 
L 313.535455 267.291382 
L 353.460909 267.291382 
L 393.386364 267.291382 
L 433.311818 267.291382 
L 473.237273 267.291382 
" clip-path="url(#p902a9baa94)" style="fill: none; stroke: #2ca02c; stroke-width: 1.5; stroke-linecap: square"/>
    <defs>
     <path id="me7210cd107" d="M 0 3 
C 0.795609 3 1.55874 2.683901 2.12132 2.12132 
C 2.683901 1.55874 3 0.795609 3 0 
C 3 -0.795609 2.683901 -1.55874 2.12132 -2.12132 
C 1.55874 -2.683901 0.795609 -3 0 -3 
C -0.795609 -3 -1.55874 -2.683901 -2.12132 -2.12132 
C -2.683901 -1.55874 -3 -0.795609 -3 0 
C -3 0.795609 -2.683901 1.55874 -2.12132 2.12132 
C -1.55874 2.683901 -0.795609 3 0 3 
z
" style="stroke: #2ca02c"/>
    </defs>
    <g clip-path="url(#p902a9baa94)">
     <use xlink:href="#me7210cd107" x="73.982727" y="267.291382" style="fill: #2ca02c; stroke: #2ca02c"/>
     <use xlink:href="#me7210cd107" x="81.967818" y="267.291382" style="fill: #2ca02c; stroke: #2ca02c"/>
     <use xlink:href="#me7210cd107" x="89.952909" y="267.291382" style="fill: #2ca02c; stroke: #2ca02c"/>
     <use xlink:href="#me7210cd107" x="97.938" y="267.291382" style="fill: #2ca02c; stroke: #2ca02c"/>
     <use xlink:href="#me7210cd107" x="105.923091" y="267.291382" style="fill: #2ca02c; stroke: #2ca02c"/>
     <use xlink:href="#me7210cd107" x="113.908182" y="267.291382" style="fill: #2ca02c; stroke: #2ca02c"/>
     <use xlink:href="#me7210cd107" x="133.870909" y="267.291382" style="fill: #2ca02c; stroke: #2ca02c"/>
     <use xlink:href="#me7210cd107" x="153.833636" y="267.291382" style="fill: #2ca02c; stroke: #2ca02c"/>
     <use xlink:href="#me7210cd107" x="193.759091" y="267.291382" style="fill: #2ca02c; stroke: #2ca02c"/>
     <use xlink:href="#me7210cd107" x="233.684545" y="267.291382" style="fill: #2ca02c; stroke: #2ca02c"/>
     <use xlink:href="#me7210cd107" x="273.61" y="267.291382" style="fill: #2ca02c; stroke: #2ca02c"/>
     <use xlink:href="#me7210cd107" x="313.535455" y="267.291382" style="fill: #2ca02c; stroke: #2ca02c"/>
     <use xlink:href="#me7210cd107" x="353.460909" y="267.291382" style="fill: #2ca02c; stroke: #2ca02c"/>
     <use xlink:href="#me7210cd107" x="393.386364" y="267.291382" style="fill: #2ca02c; stroke: #2ca02c"/>
     <use xlink:href="#me7210cd107" x="433.311818" y="267.291382" style="fill: #2ca02c; stroke: #2ca02c"/>
     <use xlink:href="#me7210cd107" x="473.237273" y="267.291382" style="fill: #2ca02c; stroke: #2ca02c"/>
    </g>
   </g>
   <g id="patch_3">
    <path d="M 54.02 282.04 
L 54.02 26.88 
" style="fill: none; stroke: #000000; stroke-width: 0.8; stroke-linejoin: miter; stroke-linecap: square"/>
   </g>
   <g id="patch_4">
    <path d="M 493.2 282.04 
L 493.2 26.88 
" style="fill: none; stroke: #000000; stroke-width: 0.8; stroke-linejoin: miter; stroke-linecap: square"/>
   </g>
   <g id="patch_5">
    <path d="M 54.02 282.04 
L 493.2 282.04 
" style="fill: none; stroke: #000000; stroke-width: 0.8; stroke-linejoin: miter; stroke-linecap: square"/>
   </g>
   <g id="patch_6">
    <path d="M 54.02 26.88 
L 493.2 26.88 
" style="fill: none; stroke: #000000; stroke-width: 0.8; stroke-linejoin: miter; stroke-linecap: square"/>
   </g>
   <g id="text_14">
    <!-- Base Top-1 Accuracy -->
    <g transform="translate(211.684375 20.88) scale(0.12 -0.12)">
     <use xlink:href="#DejaVuSans-42"/>
     <use xlink:href="#DejaVuSans-61" transform="translate(68.603516 0)"/>
     <use xlink:href="#DejaVuSans-73" transform="translate(129.882812 0)"/>
     <use xlink:href="#DejaVuSans-65" transform="translate(181.982422 0)"/>
     <use xlink:href="#DejaVuSans-20" transform="translate(243.505859 0)"/>
     <use xlink:href="#DejaVuSans-54" transform="translate(275.292969 0)"/>
     <use xlink:href="#DejaVuSans-6f" transform="translate(319.376953 0)"/>
     <use xlink:href="#DejaVuSans-70" transform="translate(380.558594 0)"/>
     <use xlink:href="#DejaVuSans-2d" transform="translate(444.035156 0)"/>
     <use xlink:href="#DejaVuSans-31" transform="translate(480.119141 0)"/>
     <use xlink:href="#DejaVuSans-20" transform="translate(543.742188 0)"/>
     <use xlink:href="#DejaVuSans-41" transform="translate(575.529297 0)"/>
     <use xlink:href="#DejaVuSans-63" transform="translate(642.1875 0)"/>
     <use xlink:href="#DejaVuSans-63" transform="translate(697.167969 0)"/>
     <use xlink:href="#DejaVuSans-75" transform="translate(752.148438 0)"/>
     <use xlink:href="#DejaVuSans-72" transform="translate(815.527344 0)"/>
     <use xlink:href="#DejaVuSans-61" transform="translate(856.640625 0)"/>
     <use xlink:href="#DejaVuSans-63" transform="translate(917.919922 0)"/>
     <use xlink:href="#DejaVuSans-79" transform="translate(972.900391 0)"/>
    </g>
   </g>
   <g id="legend_1">
    <g id="patch_7">
     <path d="M 242.177969 277.04 
L 305.042031 277.04 
Q 307.042031 277.04 307.042031 275.04 
L 307.042031 217.3275 
Q 307.042031 215.3275 305.042031 215.3275 
L 242.177969 215.3275 
Q 240.177969 215.3275 240.177969 217.3275 
L 240.177969 275.04 
Q 240.177969 277.04 242.177969 277.04 
z
" style="fill: #ffffff; opacity: 0.8; stroke: #cccccc; stroke-linejoin: miter"/>
    </g>
    <g id="text_15">
     <!-- level -->
     <g transform="translate(261.719375 226.925938) scale(0.1 -0.1)">
      <defs>
       <path id="DejaVuSans-76" d="M 191 3500 
L 800 3500 
L 1894 563 
L 2988 3500 
L 3597 3500 
L 2284 0 
L 1503 0 
L 191 3500 
z
" transform="scale(0.015625)"/>
      </defs>
      <use xlink:href="#DejaVuSans-6c"/>
      <use xlink:href="#DejaVuSans-65" transform="translate(27.783203 0)"/>
      <use xlink:href="#DejaVuSans-76" transform="translate(89.306641 0)"/>
      <use xlink:href="#DejaVuSans-65" transform="translate(148.486328 0)"/>
      <use xlink:href="#DejaVuSans-6c" transform="translate(210.009766 0)"/>
     </g>
    </g>
    <g id="line2d_26">
     <path d="M 244.177969 238.104062 
L 254.177969 238.104062 
L 264.177969 238.104062 
" style="fill: none; stroke: #1f77b4; stroke-width: 1.5; stroke-linecap: square"/>
     <g>
      <use xlink:href="#mf1d27fb673" x="254.177969" y="238.104062" style="fill: #1f77b4; stroke: #1f77b4"/>
     </g>
    </g>
    <g id="text_16">
     <!-- family -->
     <g transform="translate(272.177969 241.604062) scale(0.1 -0.1)">
      <defs>
       <path id="DejaVuSans-66" d="M 2375 4863 
L 2375 4384 
L 1825 4384 
Q 1516 4384 1395 4259 
Q 1275 4134 1275 3809 
L 1275 3500 
L 2222 3500 
L 2222 3053 
L 1275 3053 
L 1275 0 
L 697 0 
L 697 3053 
L 147 3053 
L 147 3500 
L 697 3500 
L 697 3744 
Q 697 4328 969 4595 
Q 1241 4863 1831 4863 
L 2375 4863 
z
" transform="scale(0.015625)"/>
       <path id="DejaVuSans-6d" d="M 3328 2828 
Q 3544 3216 3844 3400 
Q 4144 3584 4550 3584 
Q 5097 3584 5394 3201 
Q 5691 2819 5691 2113 
L 5691 0 
L 5113 0 
L 5113 2094 
Q 5113 2597 4934 2840 
Q 4756 3084 4391 3084 
Q 3944 3084 3684 2787 
Q 3425 2491 3425 1978 
L 3425 0 
L 2847 0 
L 2847 2094 
Q 2847 2600 2669 2842 
Q 2491 3084 2119 3084 
Q 1678 3084 1418 2786 
Q 1159 2488 1159 1978 
L 1159 0 
L 581 0 
L 581 3500 
L 1159 3500 
L 1159 2956 
Q 1356 3278 1631 3431 
Q 1906 3584 2284 3584 
Q 2666 3584 2933 3390 
Q 3200 3197 3328 2828 
z
" transform="scale(0.015625)"/>
       <path id="DejaVuSans-69" d="M 603 3500 
L 1178 3500 
L 1178 0 
L 603 0 
L 603 3500 
z
M 603 4863 
L 1178 4863 
L 1178 4134 
L 603 4134 
L 603 4863 
z
" transform="scale(0.015625)"/>
      </defs>
      <use xlink:href="#DejaVuSans-66"/>
      <use xlink:href="#DejaVuSans-61" transform="translate(35.205078 0)"/>
      <use xlink:href="#DejaVuSans-6d" transform="translate(96.484375 0)"/>
      <use xlink:href="#DejaVuSans-69" transform="translate(193.896484 0)"/>
      <use xlink:href="#DejaVuSans-6c" transform="translate(221.679688 0)"/>
      <use xlink:href="#DejaVuSans-79" transform="translate(249.462891 0)"/>
     </g>
    </g>
    <g id="line2d_27">
     <path d="M 244.177969 252.782187 
L 254.177969 252.782187 
L 264.177969 252.782187 
" style="fill: none; stroke: #ff7f0e; stroke-width: 1.5; stroke-linecap: square"/>
     <g>
      <use xlink:href="#m38b30c307c" x="254.177969" y="252.782187" style="fill: #ff7f0e; stroke: #ff7f0e"/>
     </g>
    </g>
    <g id="text_17">
     <!-- major -->
     <g transform="translate(272.177969 256.282187) scale(0.1 -0.1)">
      <defs>
       <path id="DejaVuSans-6a" d="M 603 3500 
L 1178 3500 
L 1178 -63 
Q 1178 -731 923 -1031 
Q 669 -1331 103 -1331 
L -116 -1331 
L -116 -844 
L 38 -844 
Q 366 -844 484 -692 
Q 603 -541 603 -63 
L 603 3500 
z
M 603 4863 
L 1178 4863 
L 1178 4134 
L 603 4134 
L 603 4863 
z
" transform="scale(0.015625)"/>
      </defs>
      <use xlink:href="#DejaVuSans-6d"/>
      <use xlink:href="#DejaVuSans-61" transform="translate(97.412109 0)"/>
      <use xlink:href="#DejaVuSans-6a" transform="translate(158.691406 0)"/>
      <use xlink:href="#DejaVuSans-6f" transform="translate(186.474609 0)"/>
      <use xlink:href="#DejaVuSans-72" transform="translate(247.65625 0)"/>
     </g>
    </g>
    <g id="line2d_28">
     <path d="M 244.177969 267.460312 
L 254.177969 267.460312 
L 264.177969 267.460312 
" style="fill: none; stroke: #2ca02c; stroke-width: 1.5; stroke-linecap: square"/>
     <g>
      <use xlink:href="#me7210cd107" x="254.177969" y="267.460312" style="fill: #2ca02c; stroke: #2ca02c"/>
     </g>
    </g>
    <g id="text_18">
     <!-- leaf -->
     <g transform="translate(272.177969 270.960312) scale(0.1 -0.1)">
      <use xlink:href="#DejaVuSans-6c"/>
      <use xlink:href="#DejaVuSans-65" transform="translate(27.783203 0)"/>
      <use xlink:href="#DejaVuSans-61" transform="translate(89.306641 0)"/>
      <use xlink:href="#DejaVuSans-66" transform="translate(150.585938 0)"/>
     </g>
    </g>
   </g>
  </g>
 </g>
 <defs>
  <clipPath id="p902a9baa94">
   <rect x="54.02" y="26.88" width="439.18" height="255.16"/>
  </clipPath>
 </defs>
</svg>
