<?xml version="1.0" encoding="utf-8" standalone="no"?>
<!DOCTYPE svg PUBLIC "-//W3C//DTD SVG 1.1//EN"
  "http://www.w3.org/Graphics/SVG/1.1/DTD/svg11.dtd">
<svg xmlns:xlink="http://www.w3.org/1999/xlink" width="648pt" height="360pt" viewBox="0 0 648 360" xmlns="http://www.w3.org/2000/svg" version="1.1">
 <metadata>
  <rdf:RDF xmlns:dc="http://purl.org/dc/elements/1.1/" xmlns:cc="http://creativecommons.org/ns#" xmlns:rdf="http://www.w3.org/1999/02/22-rdf-syntax-ns#">
   <cc:Work>
    <dc:type rdf:resource="http://purl.org/dc/dcmitype/StillImage"/>
    <dc:date>2026-01-09T19:27:43.478251</dc:date>
    <dc:format>image/svg+xml</dc:format>
    <dc:creator>
     <cc:Agent>
      <dc:title>Matplotlib v3.10.7, https://matplotlib.org/</dc:title>
     </cc:Agent>
    </dc:creator>
   </cc:Work>
  </rdf:RDF>
 </metadata>
 <defs>
  <style type="text/css">*{stroke-linejoin: round; stroke-linecap: butt}</style>
 </defs>
 <g id="figure_1">
  <g id="patch_1">
   <path d="M 0 360 
L 648 360 
L 648 0 
L 0 0 
z
" style="fill: #ffffff"/>
  </g>
  <g id="axes_1">
   <g id="patch_2">
    <path d="M 54.02 318.04 
L 637.2 318.04 
L 637.2 26.88 
L 54.02 26.88 
z
" style="fill: #ffffff"/>
   </g>
   <g id="FillBetweenPolyCollection_1">
    <defs>
     <path id="m9baf363782" d="M 80.528182 -268.445641 
L 80.528182 -263.892306 
L 91.131455 -263.892306 
L 101.734727 -263.892306 
L 112.338 -263.892306 
L 122.941273 -263.892306 
L 133.544545 -263.892306 
L 160.052727 -263.892306 
L 186.560909 -264.706685 
L 239.577273 -267.387105 
L 292.593636 -267.087193 
L 345.61 -268.94728 
L 398.626364 -276.094616 
L 451.642727 -290.240542 
L 504.659091 -304.565537 
L 557.675455 -311.964925 
L 610.691818 -314.512443 
L 610.691818 -316.112862 
L 610.691818 -316.112862 
L 557.675455 -313.485092 
L 504.659091 -307.148784 
L 451.642727 -293.495619 
L 398.626364 -279.865943 
L 345.61 -273.110361 
L 292.593636 -271.565657 
L 239.577273 -271.777393 
L 186.560909 -269.085459 
L 160.052727 -268.445641 
L 133.544545 -268.445641 
L 122.941273 -268.445641 
L 112.338 -268.445641 
L 101.734727 -268.445641 
L 91.131455 -268.445641 
L 80.528182 -268.445641 
z
" style="stroke: #2ca02c; stroke-opacity: 0.15"/>
    </defs>
    <g clip-path="url(#p7f82ccf923)">
     <use xlink:href="#m9baf363782" x="0" y="360" style="fill: #2ca02c; fill-opacity: 0.15; stroke: #2ca02c; stroke-opacity: 0.15"/>
    </g>
   </g>
   <g id="FillBetweenPolyCollection_2">
    <defs>
     <path id="m2e03de5793" d="M 80.528182 -153.38397 
L 80.528182 -147.732793 
L 91.131455 -147.732793 
L 101.734727 -147.732793 
L 112.338 -147.732793 
L 122.941273 -147.732793 
L 133.544545 -147.732793 
L 160.052727 -147.732793 
L 186.560909 -148.59509 
L 239.577273 -155.213884 
L 292.593636 -162.368359 
L 345.61 -182.733061 
L 398.626364 -198.761274 
L 451.642727 -227.928606 
L 504.659091 -273.433609 
L 557.675455 -301.881897 
L 610.691818 -309.370254 
L 610.691818 -311.359342 
L 610.691818 -311.359342 
L 557.675455 -304.802493 
L 504.659091 -279.617151 
L 451.642727 -231.95389 
L 398.626364 -203.456457 
L 345.61 -187.216781 
L 292.593636 -166.803768 
L 239.577273 -159.662889 
L 186.560909 -154.068651 
L 160.052727 -153.38397 
L 133.544545 -153.38397 
L 122.941273 -153.38397 
L 112.338 -153.38397 
L 101.734727 -153.38397 
L 91.131455 -153.38397 
L 80.528182 -153.38397 
z
" style="stroke: #2ca02c; stroke-opacity: 0.15"/>
    </defs>
    <g clip-path="url(#p7f82ccf923)">
     <use xlink:href="#m2e03de5793" x="0" y="360" style="fill: #2ca02c; fill-opacity: 0.15; stroke: #2ca02c; stroke-opacity: 0.15"/>
    </g>
   </g>
   <g id="FillBetweenPolyCollection_3">
    <defs>
     <path id="m029a9a9873" d="M 80.528182 -60.987125 
L 80.528182 -55.194545 
L 91.131455 -55.194545 
L 101.734727 -55.194545 
L 112.338 -55.194545 
L 122.941273 -55.194545 
L 133.544545 -55.194545 
L 160.052727 -55.194545 
L 186.560909 -55.93664 
L 239.577273 -61.924171 
L 292.593636 -68.421292 
L 345.61 -104.684702 
L 398.626364 -162.889711 
L 451.642727 -206.471172 
L 504.659091 -261.273747 
L 557.675455 -298.794562 
L 610.691818 -308.400091 
L 610.691818 -310.45678 
L 610.691818 -310.45678 
L 557.675455 -301.789359 
L 504.659091 -267.687407 
L 451.642727 -210.915421 
L 398.626364 -167.948308 
L 345.61 -110.611837 
L 292.593636 -72.973445 
L 239.577273 -66.623029 
L 186.560909 -61.607879 
L 160.052727 -60.987125 
L 133.544545 -60.987125 
L 122.941273 -60.987125 
L 112.338 -60.987125 
L 101.734727 -60.987125 
L 91.131455 -60.987125 
L 80.528182 -60.987125 
z
" style="stroke: #2ca02c; stroke-opacity: 0.15"/>
    </defs>
    <g clip-path="url(#p7f82ccf923)">
     <use xlink:href="#m029a9a9873" x="0" y="360" style="fill: #2ca02c; fill-opacity: 0.15; stroke: #2ca02c; stroke-opacity: 0.15"/>
    </g>
   </g>
   <g id="FillBetweenPolyCollection_4">
    <defs>
     <path id="m960996c689" d="M 80.528182 -279.352754 
L 80.528182 -276.484011 
L 91.131455 -276.484011 
L 101.734727 -276.484011 
L 112.338 -276.484011 
L 122.941273 -276.920544 
L 133.544545 -284.350396 
L 160.052727 -298.345319 
L 186.560909 -304.073265 
L 239.577273 -309.154699 
L 292.593636 -313.305077 
L 345.61 -315.680007 
L 398.626364 -316.605811 
L 451.642727 -317.459972 
L 504.659091 -318.633606 
L 557.675455 -319.200313 
L 610.691818 -319.237973 
L 610.691818 -319.885455 
L 610.691818 -319.885455 
L 557.675455 -319.851288 
L 504.659091 -319.481427 
L 451.642727 -318.569959 
L 398.626364 -317.82032 
L 345.61 -317.019006 
L 292.593636 -314.621675 
L 239.577273 -310.766208 
L 186.560909 -306.084806 
L 160.052727 -300.422067 
L 133.544545 -286.640075 
L 122.941273 -279.424113 
L 112.338 -279.352754 
L 101.734727 -279.352754 
L 91.131455 -279.352754 
L 80.528182 -279.352754 
z
" style="stroke: #1f77b4; stroke-opacity: 0.15"/>
    </defs>
    <g clip-path="url(#p7f82ccf923)">
     <use xlink:href="#m960996c689" x="0" y="360" style="fill: #1f77b4; fill-opacity: 0.15; stroke: #1f77b4; stroke-opacity: 0.15"/>
    </g>
   </g>
   <g id="FillBetweenPolyCollection_5">
    <defs>
     <path id="md8701717dc" d="M 80.528182 -174.239473 
L 80.528182 -169.013718 
L 91.131455 -169.013718 
L 101.734727 -169.013718 
L 112.338 -169.013718 
L 122.941273 -169.013718 
L 133.544545 -169.013718 
L 160.052727 -169.002431 
L 186.560909 -169.817755 
L 239.577273 -189.756369 
L 292.593636 -239.27332 
L 345.61 -270.775065 
L 398.626364 -293.476928 
L 451.642727 -300.012925 
L 504.659091 -308.416722 
L 557.675455 -311.263559 
L 610.691818 -314.02041 
L 610.691818 -315.81527 
L 610.691818 -315.81527 
L 557.675455 -313.752402 
L 504.659091 -311.037835 
L 451.642727 -303.932434 
L 398.626364 -296.960229 
L 345.61 -276.119067 
L 292.593636 -244.59798 
L 239.577273 -193.045948 
L 186.560909 -174.572843 
L 160.052727 -174.229167 
L 133.544545 -174.239473 
L 122.941273 -174.239473 
L 112.338 -174.239473 
L 101.734727 -174.239473 
L 91.131455 -174.239473 
L 80.528182 -174.239473 
z
" style="stroke: #1f77b4; stroke-opacity: 0.15"/>
    </defs>
    <g clip-path="url(#p7f82ccf923)">
     <use xlink:href="#md8701717dc" x="0" y="360" style="fill: #1f77b4; fill-opacity: 0.15; stroke: #1f77b4; stroke-opacity: 0.15"/>
    </g>
   </g>
   <g id="FillBetweenPolyCollection_6">
    <defs>
     <path id="m074378fc45" d="M 80.528182 -60.987125 
L 80.528182 -55.194545 
L 91.131455 -55.194545 
L 101.734727 -55.194545 
L 112.338 -55.194545 
L 122.941273 -55.194545 
L 133.544545 -55.194545 
L 160.052727 -55.194545 
L 186.560909 -55.93664 
L 239.577273 -61.924171 
L 292.593636 -68.421292 
L 345.61 -104.684702 
L 398.626364 -162.889711 
L 451.642727 -206.471172 
L 504.659091 -261.273747 
L 557.675455 -298.794562 
L 610.691818 -308.400091 
L 610.691818 -310.45678 
L 610.691818 -310.45678 
L 557.675455 -301.789359 
L 504.659091 -267.687407 
L 451.642727 -210.915421 
L 398.626364 -167.948308 
L 345.61 -110.611837 
L 292.593636 -72.973445 
L 239.577273 -66.623029 
L 186.560909 -61.607879 
L 160.052727 -60.987125 
L 133.544545 -60.987125 
L 122.941273 -60.987125 
L 112.338 -60.987125 
L 101.734727 -60.987125 
L 91.131455 -60.987125 
L 80.528182 -60.987125 
z
" style="stroke: #1f77b4; stroke-opacity: 0.15"/>
    </defs>
    <g clip-path="url(#p7f82ccf923)">
     <use xlink:href="#m074378fc45" x="0" y="360" style="fill: #1f77b4; fill-opacity: 0.15; stroke: #1f77b4; stroke-opacity: 0.15"/>
    </g>
   </g>
   <g id="matplotlib.axis_1">
    <g id="xtick_1">
     <g id="line2d_1">
      <path d="M 80.528182 318.04 
L 80.528182 26.88 
" clip-path="url(#p7f82ccf923)" style="fill: none; stroke-dasharray: 0.5,0.825; stroke-dashoffset: 0; stroke: #b0b0b0; stroke-width: 0.5"/>
     </g>
     <g id="line2d_2">
      <defs>
       <path id="ma222f6a334" d="M 0 0 
L 0 3.5 
" style="stroke: #000000; stroke-width: 0.8"/>
      </defs>
      <g>
       <use xlink:href="#ma222f6a334" x="80.528182" y="318.04" style="stroke: #000000; stroke-width: 0.8"/>
      </g>
     </g>
     <g id="text_1">
      <!-- 0.0 -->
      <g transform="translate(72.576619 332.638438) scale(0.1 -0.1)">
       <defs>
        <path id="DejaVuSans-30" d="M 2034 4250 
Q 1547 4250 1301 3770 
Q 1056 3291 1056 2328 
Q 1056 1369 1301 889 
Q 1547 409 2034 409 
Q 2525 409 2770 889 
Q 3016 1369 3016 2328 
Q 3016 3291 2770 3770 
Q 2525 4250 2034 4250 
z
M 2034 4750 
Q 2819 4750 3233 4129 
Q 3647 3509 3647 2328 
Q 3647 1150 3233 529 
Q 2819 -91 2034 -91 
Q 1250 -91 836 529 
Q 422 1150 422 2328 
Q 422 3509 836 4129 
Q 1250 4750 2034 4750 
z
" transform="scale(0.015625)"/>
        <path id="DejaVuSans-2e" d="M 684 794 
L 1344 794 
L 1344 0 
L 684 0 
L 684 794 
z
" transform="scale(0.015625)"/>
       </defs>
       <use xlink:href="#DejaVuSans-30"/>
       <use xlink:href="#DejaVuSans-2e" transform="translate(63.623047 0)"/>
       <use xlink:href="#DejaVuSans-30" transform="translate(95.410156 0)"/>
      </g>
     </g>
    </g>
    <g id="xtick_2">
     <g id="line2d_3">
      <path d="M 186.560909 318.04 
L 186.560909 26.88 
" clip-path="url(#p7f82ccf923)" style="fill: none; stroke-dasharray: 0.5,0.825; stroke-dashoffset: 0; stroke: #b0b0b0; stroke-width: 0.5"/>
     </g>
     <g id="line2d_4">
      <g>
       <use xlink:href="#ma222f6a334" x="186.560909" y="318.04" style="stroke: #000000; stroke-width: 0.8"/>
      </g>
     </g>
     <g id="text_2">
      <!-- 0.1 -->
      <g transform="translate(178.609347 332.638438) scale(0.1 -0.1)">
       <defs>
        <path id="DejaVuSans-31" d="M 794 531 
L 1825 531 
L 1825 4091 
L 703 3866 
L 703 4441 
L 1819 4666 
L 2450 4666 
L 2450 531 
L 3481 531 
L 3481 0 
L 794 0 
L 794 531 
z
" transform="scale(0.015625)"/>
       </defs>
       <use xlink:href="#DejaVuSans-30"/>
       <use xlink:href="#DejaVuSans-2e" transform="translate(63.623047 0)"/>
       <use xlink:href="#DejaVuSans-31" transform="translate(95.410156 0)"/>
      </g>
     </g>
    </g>
    <g id="xtick_3">
     <g id="line2d_5">
      <path d="M 292.593636 318.04 
L 292.593636 26.88 
" clip-path="url(#p7f82ccf923)" style="fill: none; stroke-dasharray: 0.5,0.825; stroke-dashoffset: 0; stroke: #b0b0b0; stroke-width: 0.5"/>
     </g>
     <g id="line2d_6">
      <g>
       <use xlink:href="#ma222f6a334" x="292.593636" y="318.04" style="stroke: #000000; stroke-width: 0.8"/>
      </g>
     </g>
     <g id="text_3">
      <!-- 0.2 -->
      <g transform="translate(284.642074 332.638438) scale(0.1 -0.1)">
       <defs>
        <path id="DejaVuSans-32" d="M 1228 531 
L 3431 531 
L 3431 0 
L 469 0 
L 469 531 
Q 828 903 1448 1529 
Q 2069 2156 2228 2338 
Q 2531 2678 2651 2914 
Q 2772 3150 2772 3378 
Q 2772 3750 2511 3984 
Q 2250 4219 1831 4219 
Q 1534 4219 1204 4116 
Q 875 4013 500 3803 
L 500 4441 
Q 881 4594 1212 4672 
Q 1544 4750 1819 4750 
Q 2544 4750 2975 4387 
Q 3406 4025 3406 3419 
Q 3406 3131 3298 2873 
Q 3191 2616 2906 2266 
Q 2828 2175 2409 1742 
Q 1991 1309 1228 531 
z
" transform="scale(0.015625)"/>
       </defs>
       <use xlink:href="#DejaVuSans-30"/>
       <use xlink:href="#DejaVuSans-2e" transform="translate(63.623047 0)"/>
       <use xlink:href="#DejaVuSans-32" transform="translate(95.410156 0)"/>
      </g>
     </g>
    </g>
    <g id="xtick_4">
     <g id="line2d_7">
      <path d="M 398.626364 318.04 
L 398.626364 26.88 
" clip-path="url(#p7f82ccf923)" style="fill: none; stroke-dasharray: 0.5,0.825; stroke-dashoffset: 0; stroke: #b0b0b0; stroke-width: 0.5"/>
     </g>
     <g id="line2d_8">
      <g>
       <use xlink:href="#ma222f6a334" x="398.626364" y="318.04" style="stroke: #000000; stroke-width: 0.8"/>
      </g>
     </g>
     <g id="text_4">
      <!-- 0.3 -->
      <g transform="translate(390.674801 332.638438) scale(0.1 -0.1)">
       <defs>
        <path id="DejaVuSans-33" d="M 2597 2516 
Q 3050 2419 3304 2112 
Q 3559 1806 3559 1356 
Q 3559 666 3084 287 
Q 2609 -91 1734 -91 
Q 1441 -91 1130 -33 
Q 819 25 488 141 
L 488 750 
Q 750 597 1062 519 
Q 1375 441 1716 441 
Q 2309 441 2620 675 
Q 2931 909 2931 1356 
Q 2931 1769 2642 2001 
Q 2353 2234 1838 2234 
L 1294 2234 
L 1294 2753 
L 1863 2753 
Q 2328 2753 2575 2939 
Q 2822 3125 2822 3475 
Q 2822 3834 2567 4026 
Q 2313 4219 1838 4219 
Q 1578 4219 1281 4162 
Q 984 4106 628 3988 
L 628 4550 
Q 988 4650 1302 4700 
Q 1616 4750 1894 4750 
Q 2613 4750 3031 4423 
Q 3450 4097 3450 3541 
Q 3450 3153 3228 2886 
Q 3006 2619 2597 2516 
z
" transform="scale(0.015625)"/>
       </defs>
       <use xlink:href="#DejaVuSans-30"/>
       <use xlink:href="#DejaVuSans-2e" transform="translate(63.623047 0)"/>
       <use xlink:href="#DejaVuSans-33" transform="translate(95.410156 0)"/>
      </g>
     </g>
    </g>
    <g id="xtick_5">
     <g id="line2d_9">
      <path d="M 504.659091 318.04 
L 504.659091 26.88 
" clip-path="url(#p7f82ccf923)" style="fill: none; stroke-dasharray: 0.5,0.825; stroke-dashoffset: 0; stroke: #b0b0b0; stroke-width: 0.5"/>
     </g>
     <g id="line2d_10">
      <g>
       <use xlink:href="#ma222f6a334" x="504.659091" y="318.04" style="stroke: #000000; stroke-width: 0.8"/>
      </g>
     </g>
     <g id="text_5">
      <!-- 0.4 -->
      <g transform="translate(496.707528 332.638438) scale(0.1 -0.1)">
       <defs>
        <path id="DejaVuSans-34" d="M 2419 4116 
L 825 1625 
L 2419 1625 
L 2419 4116 
z
M 2253 4666 
L 3047 4666 
L 3047 1625 
L 3713 1625 
L 3713 1100 
L 3047 1100 
L 3047 0 
L 2419 0 
L 2419 1100 
L 313 1100 
L 313 1709 
L 2253 4666 
z
" transform="scale(0.015625)"/>
       </defs>
       <use xlink:href="#DejaVuSans-30"/>
       <use xlink:href="#DejaVuSans-2e" transform="translate(63.623047 0)"/>
       <use xlink:href="#DejaVuSans-34" transform="translate(95.410156 0)"/>
      </g>
     </g>
    </g>
    <g id="xtick_6">
     <g id="line2d_11">
      <path d="M 610.691818 318.04 
L 610.691818 26.88 
" clip-path="url(#p7f82ccf923)" style="fill: none; stroke-dasharray: 0.5,0.825; stroke-dashoffset: 0; stroke: #b0b0b0; stroke-width: 0.5"/>
     </g>
     <g id="line2d_12">
      <g>
       <use xlink:href="#ma222f6a334" x="610.691818" y="318.04" style="stroke: #000000; stroke-width: 0.8"/>
      </g>
     </g>
     <g id="text_6">
      <!-- 0.5 -->
      <g transform="translate(602.740256 332.638438) scale(0.1 -0.1)">
       <defs>
        <path id="DejaVuSans-35" d="M 691 4666 
L 3169 4666 
L 3169 4134 
L 1269 4134 
L 1269 2991 
Q 1406 3038 1543 3061 
Q 1681 3084 1819 3084 
Q 2600 3084 3056 2656 
Q 3513 2228 3513 1497 
Q 3513 744 3044 326 
Q 2575 -91 1722 -91 
Q 1428 -91 1123 -41 
Q 819 9 494 109 
L 494 744 
Q 775 591 1075 516 
Q 1375 441 1709 441 
Q 2250 441 2565 725 
Q 2881 1009 2881 1497 
Q 2881 1984 2565 2268 
Q 2250 2553 1709 2553 
Q 1456 2553 1204 2497 
Q 953 2441 691 2322 
L 691 4666 
z
" transform="scale(0.015625)"/>
       </defs>
       <use xlink:href="#DejaVuSans-30"/>
       <use xlink:href="#DejaVuSans-2e" transform="translate(63.623047 0)"/>
       <use xlink:href="#DejaVuSans-35" transform="translate(95.410156 0)"/>
      </g>
     </g>
    </g>
    <g id="text_7">
     <!-- alpha -->
     <g transform="translate(331.749844 346.316563) scale(0.1 -0.1)">
      <defs>
       <path id="DejaVuSans-61" d="M 2194 1759 
Q 1497 1759 1228 1600 
Q 959 1441 959 1056 
Q 959 750 1161 570 
Q 1363 391 1709 391 
Q 2188 391 2477 730 
Q 2766 1069 2766 1631 
L 2766 1759 
L 2194 1759 
z
M 3341 1997 
L 3341 0 
L 2766 0 
L 2766 531 
Q 2569 213 2275 61 
Q 1981 -91 1556 -91 
Q 1019 -91 701 211 
Q 384 513 384 1019 
Q 384 1609 779 1909 
Q 1175 2209 1959 2209 
L 2766 2209 
L 2766 2266 
Q 2766 2663 2505 2880 
Q 2244 3097 1772 3097 
Q 1472 3097 1187 3025 
Q 903 2953 641 2809 
L 641 3341 
Q 956 3463 1253 3523 
Q 1550 3584 1831 3584 
Q 2591 3584 2966 3190 
Q 3341 2797 3341 1997 
z
" transform="scale(0.015625)"/>
       <path id="DejaVuSans-6c" d="M 603 4863 
L 1178 4863 
L 1178 0 
L 603 0 
L 603 4863 
z
" transform="scale(0.015625)"/>
       <path id="DejaVuSans-70" d="M 1159 525 
L 1159 -1331 
L 581 -1331 
L 581 3500 
L 1159 3500 
L 1159 2969 
Q 1341 3281 1617 3432 
Q 1894 3584 2278 3584 
Q 2916 3584 3314 3078 
Q 3713 2572 3713 1747 
Q 3713 922 3314 415 
Q 2916 -91 2278 -91 
Q 1894 -91 1617 61 
Q 1341 213 1159 525 
z
M 3116 1747 
Q 3116 2381 2855 2742 
Q 2594 3103 2138 3103 
Q 1681 3103 1420 2742 
Q 1159 2381 1159 1747 
Q 1159 1113 1420 752 
Q 1681 391 2138 391 
Q 2594 391 2855 752 
Q 3116 1113 3116 1747 
z
" transform="scale(0.015625)"/>
       <path id="DejaVuSans-68" d="M 3513 2113 
L 3513 0 
L 2938 0 
L 2938 2094 
Q 2938 2591 2744 2837 
Q 2550 3084 2163 3084 
Q 1697 3084 1428 2787 
Q 1159 2491 1159 1978 
L 1159 0 
L 581 0 
L 581 4863 
L 1159 4863 
L 1159 2956 
Q 1366 3272 1645 3428 
Q 1925 3584 2291 3584 
Q 2894 3584 3203 3211 
Q 3513 2838 3513 2113 
z
" transform="scale(0.015625)"/>
      </defs>
      <use xlink:href="#DejaVuSans-61"/>
      <use xlink:href="#DejaVuSans-6c" transform="translate(61.279297 0)"/>
      <use xlink:href="#DejaVuSans-70" transform="translate(89.0625 0)"/>
      <use xlink:href="#DejaVuSans-68" transform="translate(152.539062 0)"/>
      <use xlink:href="#DejaVuSans-61" transform="translate(215.917969 0)"/>
     </g>
    </g>
   </g>
   <g id="matplotlib.axis_2">
    <g id="ytick_1">
     <g id="line2d_13">
      <path d="M 54.02 276.446134 
L 637.2 276.446134 
" clip-path="url(#p7f82ccf923)" style="fill: none; stroke-dasharray: 0.5,0.825; stroke-dashoffset: 0; stroke: #b0b0b0; stroke-width: 0.5"/>
     </g>
     <g id="line2d_14">
      <defs>
       <path id="m4091c0fdd2" d="M 0 0 
L -3.5 0 
" style="stroke: #000000; stroke-width: 0.8"/>
      </defs>
      <g>
       <use xlink:href="#m4091c0fdd2" x="54.02" y="276.446134" style="stroke: #000000; stroke-width: 0.8"/>
      </g>
     </g>
     <g id="text_8">
      <!-- 0.75 -->
      <g transform="translate(24.754375 280.245352) scale(0.1 -0.1)">
       <defs>
        <path id="DejaVuSans-37" d="M 525 4666 
L 3525 4666 
L 3525 4397 
L 1831 0 
L 1172 0 
L 2766 4134 
L 525 4134 
L 525 4666 
z
" transform="scale(0.015625)"/>
       </defs>
       <use xlink:href="#DejaVuSans-30"/>
       <use xlink:href="#DejaVuSans-2e" transform="translate(63.623047 0)"/>
       <use xlink:href="#DejaVuSans-37" transform="translate(95.410156 0)"/>
       <use xlink:href="#DejaVuSans-35" transform="translate(159.033203 0)"/>
      </g>
     </g>
    </g>
    <g id="ytick_2">
     <g id="line2d_15">
      <path d="M 54.02 229.134584 
L 637.2 229.134584 
" clip-path="url(#p7f82ccf923)" style="fill: none; stroke-dasharray: 0.5,0.825; stroke-dashoffset: 0; stroke: #b0b0b0; stroke-width: 0.5"/>
     </g>
     <g id="line2d_16">
      <g>
       <use xlink:href="#m4091c0fdd2" x="54.02" y="229.134584" style="stroke: #000000; stroke-width: 0.8"/>
      </g>
     </g>
     <g id="text_9">
      <!-- 0.80 -->
      <g transform="translate(24.754375 232.933803) scale(0.1 -0.1)">
       <defs>
        <path id="DejaVuSans-38" d="M 2034 2216 
Q 1584 2216 1326 1975 
Q 1069 1734 1069 1313 
Q 1069 891 1326 650 
Q 1584 409 2034 409 
Q 2484 409 2743 651 
Q 3003 894 3003 1313 
Q 3003 1734 2745 1975 
Q 2488 2216 2034 2216 
z
M 1403 2484 
Q 997 2584 770 2862 
Q 544 3141 544 3541 
Q 544 4100 942 4425 
Q 1341 4750 2034 4750 
Q 2731 4750 3128 4425 
Q 3525 4100 3525 3541 
Q 3525 3141 3298 2862 
Q 3072 2584 2669 2484 
Q 3125 2378 3379 2068 
Q 3634 1759 3634 1313 
Q 3634 634 3220 271 
Q 2806 -91 2034 -91 
Q 1263 -91 848 271 
Q 434 634 434 1313 
Q 434 1759 690 2068 
Q 947 2378 1403 2484 
z
M 1172 3481 
Q 1172 3119 1398 2916 
Q 1625 2713 2034 2713 
Q 2441 2713 2670 2916 
Q 2900 3119 2900 3481 
Q 2900 3844 2670 4047 
Q 2441 4250 2034 4250 
Q 1625 4250 1398 4047 
Q 1172 3844 1172 3481 
z
" transform="scale(0.015625)"/>
       </defs>
       <use xlink:href="#DejaVuSans-30"/>
       <use xlink:href="#DejaVuSans-2e" transform="translate(63.623047 0)"/>
       <use xlink:href="#DejaVuSans-38" transform="translate(95.410156 0)"/>
       <use xlink:href="#DejaVuSans-30" transform="translate(159.033203 0)"/>
      </g>
     </g>
    </g>
    <g id="ytick_3">
     <g id="line2d_17">
      <path d="M 54.02 181.823034 
L 637.2 181.823034 
" clip-path="url(#p7f82ccf923)" style="fill: none; stroke-dasharray: 0.5,0.825; stroke-dashoffset: 0; stroke: #b0b0b0; stroke-width: 0.5"/>
     </g>
     <g id="line2d_18">
      <g>
       <use xlink:href="#m4091c0fdd2" x="54.02" y="181.823034" style="stroke: #000000; stroke-width: 0.8"/>
      </g>
     </g>
     <g id="text_10">
      <!-- 0.85 -->
      <g transform="translate(24.754375 185.622253) scale(0.1 -0.1)">
       <use xlink:href="#DejaVuSans-30"/>
       <use xlink:href="#DejaVuSans-2e" transform="translate(63.623047 0)"/>
       <use xlink:href="#DejaVuSans-38" transform="translate(95.410156 0)"/>
       <use xlink:href="#DejaVuSans-35" transform="translate(159.033203 0)"/>
      </g>
     </g>
    </g>
    <g id="ytick_4">
     <g id="line2d_19">
      <path d="M 54.02 134.511485 
L 637.2 134.511485 
" clip-path="url(#p7f82ccf923)" style="fill: none; stroke-dasharray: 0.5,0.825; stroke-dashoffset: 0; stroke: #b0b0b0; stroke-width: 0.5"/>
     </g>
     <g id="line2d_20">
      <g>
       <use xlink:href="#m4091c0fdd2" x="54.02" y="134.511485" style="stroke: #000000; stroke-width: 0.8"/>
      </g>
     </g>
     <g id="text_11">
      <!-- 0.90 -->
      <g transform="translate(24.754375 138.310704) scale(0.1 -0.1)">
       <defs>
        <path id="DejaVuSans-39" d="M 703 97 
L 703 672 
Q 941 559 1184 500 
Q 1428 441 1663 441 
Q 2288 441 2617 861 
Q 2947 1281 2994 2138 
Q 2813 1869 2534 1725 
Q 2256 1581 1919 1581 
Q 1219 1581 811 2004 
Q 403 2428 403 3163 
Q 403 3881 828 4315 
Q 1253 4750 1959 4750 
Q 2769 4750 3195 4129 
Q 3622 3509 3622 2328 
Q 3622 1225 3098 567 
Q 2575 -91 1691 -91 
Q 1453 -91 1209 -44 
Q 966 3 703 97 
z
M 1959 2075 
Q 2384 2075 2632 2365 
Q 2881 2656 2881 3163 
Q 2881 3666 2632 3958 
Q 2384 4250 1959 4250 
Q 1534 4250 1286 3958 
Q 1038 3666 1038 3163 
Q 1038 2656 1286 2365 
Q 1534 2075 1959 2075 
z
" transform="scale(0.015625)"/>
       </defs>
       <use xlink:href="#DejaVuSans-30"/>
       <use xlink:href="#DejaVuSans-2e" transform="translate(63.623047 0)"/>
       <use xlink:href="#DejaVuSans-39" transform="translate(95.410156 0)"/>
       <use xlink:href="#DejaVuSans-30" transform="translate(159.033203 0)"/>
      </g>
     </g>
    </g>
    <g id="ytick_5">
     <g id="line2d_21">
      <path d="M 54.02 87.199935 
L 637.2 87.199935 
" clip-path="url(#p7f82ccf923)" style="fill: none; stroke-dasharray: 0.5,0.825; stroke-dashoffset: 0; stroke: #b0b0b0; stroke-width: 0.5"/>
     </g>
     <g id="line2d_22">
      <g>
       <use xlink:href="#m4091c0fdd2" x="54.02" y="87.199935" style="stroke: #000000; stroke-width: 0.8"/>
      </g>
     </g>
     <g id="text_12">
      <!-- 0.95 -->
      <g transform="translate(24.754375 90.999154) scale(0.1 -0.1)">
       <use xlink:href="#DejaVuSans-30"/>
       <use xlink:href="#DejaVuSans-2e" transform="translate(63.623047 0)"/>
       <use xlink:href="#DejaVuSans-39" transform="translate(95.410156 0)"/>
       <use xlink:href="#DejaVuSans-35" transform="translate(159.033203 0)"/>
      </g>
     </g>
    </g>
    <g id="ytick_6">
     <g id="line2d_23">
      <path d="M 54.02 39.888386 
L 637.2 39.888386 
" clip-path="url(#p7f82ccf923)" style="fill: none; stroke-dasharray: 0.5,0.825; stroke-dashoffset: 0; stroke: #b0b0b0; stroke-width: 0.5"/>
     </g>
     <g id="line2d_24">
      <g>
       <use xlink:href="#m4091c0fdd2" x="54.02" y="39.888386" style="stroke: #000000; stroke-width: 0.8"/>
      </g>
     </g>
     <g id="text_13">
      <!-- 1.00 -->
      <g transform="translate(24.754375 43.687604) scale(0.1 -0.1)">
       <use xlink:href="#DejaVuSans-31"/>
       <use xlink:href="#DejaVuSans-2e" transform="translate(63.623047 0)"/>
       <use xlink:href="#DejaVuSans-30" transform="translate(95.410156 0)"/>
       <use xlink:href="#DejaVuSans-30" transform="translate(159.033203 0)"/>
      </g>
     </g>
    </g>
    <g id="text_14">
     <!-- Top-1 Accuracy (Non-Empty) -->
     <g transform="translate(18.674688 243.686563) rotate(-90) scale(0.1 -0.1)">
      <defs>
       <path id="DejaVuSans-54" d="M -19 4666 
L 3928 4666 
L 3928 4134 
L 2272 4134 
L 2272 0 
L 1638 0 
L 1638 4134 
L -19 4134 
L -19 4666 
z
" transform="scale(0.015625)"/>
       <path id="DejaVuSans-6f" d="M 1959 3097 
Q 1497 3097 1228 2736 
Q 959 2375 959 1747 
Q 959 1119 1226 758 
Q 1494 397 1959 397 
Q 2419 397 2687 759 
Q 2956 1122 2956 1747 
Q 2956 2369 2687 2733 
Q 2419 3097 1959 3097 
z
M 1959 3584 
Q 2709 3584 3137 3096 
Q 3566 2609 3566 1747 
Q 3566 888 3137 398 
Q 2709 -91 1959 -91 
Q 1206 -91 779 398 
Q 353 888 353 1747 
Q 353 2609 779 3096 
Q 1206 3584 1959 3584 
z
" transform="scale(0.015625)"/>
       <path id="DejaVuSans-2d" d="M 313 2009 
L 1997 2009 
L 1997 1497 
L 313 1497 
L 313 2009 
z
" transform="scale(0.015625)"/>
       <path id="DejaVuSans-20" transform="scale(0.015625)"/>
       <path id="DejaVuSans-41" d="M 2188 4044 
L 1331 1722 
L 3047 1722 
L 2188 4044 
z
M 1831 4666 
L 2547 4666 
L 4325 0 
L 3669 0 
L 3244 1197 
L 1141 1197 
L 716 0 
L 50 0 
L 1831 4666 
z
" transform="scale(0.015625)"/>
       <path id="DejaVuSans-63" d="M 3122 3366 
L 3122 2828 
Q 2878 2963 2633 3030 
Q 2388 3097 2138 3097 
Q 1578 3097 1268 2742 
Q 959 2388 959 1747 
Q 959 1106 1268 751 
Q 1578 397 2138 397 
Q 2388 397 2633 464 
Q 2878 531 3122 666 
L 3122 134 
Q 2881 22 2623 -34 
Q 2366 -91 2075 -91 
Q 1284 -91 818 406 
Q 353 903 353 1747 
Q 353 2603 823 3093 
Q 1294 3584 2113 3584 
Q 2378 3584 2631 3529 
Q 2884 3475 3122 3366 
z
" transform="scale(0.015625)"/>
       <path id="DejaVuSans-75" d="M 544 1381 
L 544 3500 
L 1119 3500 
L 1119 1403 
Q 1119 906 1312 657 
Q 1506 409 1894 409 
Q 2359 409 2629 706 
Q 2900 1003 2900 1516 
L 2900 3500 
L 3475 3500 
L 3475 0 
L 2900 0 
L 2900 538 
Q 2691 219 2414 64 
Q 2138 -91 1772 -91 
Q 1169 -91 856 284 
Q 544 659 544 1381 
z
M 1991 3584 
L 1991 3584 
z
" transform="scale(0.015625)"/>
       <path id="DejaVuSans-72" d="M 2631 2963 
Q 2534 3019 2420 3045 
Q 2306 3072 2169 3072 
Q 1681 3072 1420 2755 
Q 1159 2438 1159 1844 
L 1159 0 
L 581 0 
L 581 3500 
L 1159 3500 
L 1159 2956 
Q 1341 3275 1631 3429 
Q 1922 3584 2338 3584 
Q 2397 3584 2469 3576 
Q 2541 3569 2628 3553 
L 2631 2963 
z
" transform="scale(0.015625)"/>
       <path id="DejaVuSans-79" d="M 2059 -325 
Q 1816 -950 1584 -1140 
Q 1353 -1331 966 -1331 
L 506 -1331 
L 506 -850 
L 844 -850 
Q 1081 -850 1212 -737 
Q 1344 -625 1503 -206 
L 1606 56 
L 191 3500 
L 800 3500 
L 1894 763 
L 2988 3500 
L 3597 3500 
L 2059 -325 
z
" transform="scale(0.015625)"/>
       <path id="DejaVuSans-28" d="M 1984 4856 
Q 1566 4138 1362 3434 
Q 1159 2731 1159 2009 
Q 1159 1288 1364 580 
Q 1569 -128 1984 -844 
L 1484 -844 
Q 1016 -109 783 600 
Q 550 1309 550 2009 
Q 550 2706 781 3412 
Q 1013 4119 1484 4856 
L 1984 4856 
z
" transform="scale(0.015625)"/>
       <path id="DejaVuSans-4e" d="M 628 4666 
L 1478 4666 
L 3547 763 
L 3547 4666 
L 4159 4666 
L 4159 0 
L 3309 0 
L 1241 3903 
L 1241 0 
L 628 0 
L 628 4666 
z
" transform="scale(0.015625)"/>
       <path id="DejaVuSans-6e" d="M 3513 2113 
L 3513 0 
L 2938 0 
L 2938 2094 
Q 2938 2591 2744 2837 
Q 2550 3084 2163 3084 
Q 1697 3084 1428 2787 
Q 1159 2491 1159 1978 
L 1159 0 
L 581 0 
L 581 3500 
L 1159 3500 
L 1159 2956 
Q 1366 3272 1645 3428 
Q 1925 3584 2291 3584 
Q 2894 3584 3203 3211 
Q 3513 2838 3513 2113 
z
" transform="scale(0.015625)"/>
       <path id="DejaVuSans-45" d="M 628 4666 
L 3578 4666 
L 3578 4134 
L 1259 4134 
L 1259 2753 
L 3481 2753 
L 3481 2222 
L 1259 2222 
L 1259 531 
L 3634 531 
L 3634 0 
L 628 0 
L 628 4666 
z
" transform="scale(0.015625)"/>
       <path id="DejaVuSans-6d" d="M 3328 2828 
Q 3544 3216 3844 3400 
Q 4144 3584 4550 3584 
Q 5097 3584 5394 3201 
Q 5691 2819 5691 2113 
L 5691 0 
L 5113 0 
L 5113 2094 
Q 5113 2597 4934 2840 
Q 4756 3084 4391 3084 
Q 3944 3084 3684 2787 
Q 3425 2491 3425 1978 
L 3425 0 
L 2847 0 
L 2847 2094 
Q 2847 2600 2669 2842 
Q 2491 3084 2119 3084 
Q 1678 3084 1418 2786 
Q 1159 2488 1159 1978 
L 1159 0 
L 581 0 
L 581 3500 
L 1159 3500 
L 1159 2956 
Q 1356 3278 1631 3431 
Q 1906 3584 2284 3584 
Q 2666 3584 2933 3390 
Q 3200 3197 3328 2828 
z
" transform="scale(0.015625)"/>
       <path id="DejaVuSans-74" d="M 1172 4494 
L 1172 3500 
L 2356 3500 
L 2356 3053 
L 1172 3053 
L 1172 1153 
Q 1172 725 1289 603 
Q 1406 481 1766 481 
L 2356 481 
L 2356 0 
L 1766 0 
Q 1100 0 847 248 
Q 594 497 594 1153 
L 594 3053 
L 172 3053 
L 172 3500 
L 594 3500 
L 594 4494 
L 1172 4494 
z
" transform="scale(0.015625)"/>
       <path id="DejaVuSans-29" d="M 513 4856 
L 1013 4856 
Q 1481 4119 1714 3412 
Q 1947 2706 1947 2009 
Q 1947 1309 1714 600 
Q 1481 -109 1013 -844 
L 513 -844 
Q 928 -128 1133 580 
Q 1338 1288 1338 2009 
Q 1338 2731 1133 3434 
Q 928 4138 513 4856 
z
" transform="scale(0.015625)"/>
      </defs>
      <use xlink:href="#DejaVuSans-54"/>
      <use xlink:href="#DejaVuSans-6f" transform="translate(44.083984 0)"/>
      <use xlink:href="#DejaVuSans-70" transform="translate(105.265625 0)"/>
      <use xlink:href="#DejaVuSans-2d" transform="translate(168.742188 0)"/>
      <use xlink:href="#DejaVuSans-31" transform="translate(204.826172 0)"/>
      <use xlink:href="#DejaVuSans-20" transform="translate(268.449219 0)"/>
      <use xlink:href="#DejaVuSans-41" transform="translate(300.236328 0)"/>
      <use xlink:href="#DejaVuSans-63" transform="translate(366.894531 0)"/>
      <use xlink:href="#DejaVuSans-63" transform="translate(421.875 0)"/>
      <use xlink:href="#DejaVuSans-75" transform="translate(476.855469 0)"/>
      <use xlink:href="#DejaVuSans-72" transform="translate(540.234375 0)"/>
      <use xlink:href="#DejaVuSans-61" transform="translate(581.347656 0)"/>
      <use xlink:href="#DejaVuSans-63" transform="translate(642.626953 0)"/>
      <use xlink:href="#DejaVuSans-79" transform="translate(697.607422 0)"/>
      <use xlink:href="#DejaVuSans-20" transform="translate(756.787109 0)"/>
      <use xlink:href="#DejaVuSans-28" transform="translate(788.574219 0)"/>
      <use xlink:href="#DejaVuSans-4e" transform="translate(827.587891 0)"/>
      <use xlink:href="#DejaVuSans-6f" transform="translate(902.392578 0)"/>
      <use xlink:href="#DejaVuSans-6e" transform="translate(963.574219 0)"/>
      <use xlink:href="#DejaVuSans-2d" transform="translate(1026.953125 0)"/>
      <use xlink:href="#DejaVuSans-45" transform="translate(1063.037109 0)"/>
      <use xlink:href="#DejaVuSans-6d" transform="translate(1126.220703 0)"/>
      <use xlink:href="#DejaVuSans-70" transform="translate(1223.632812 0)"/>
      <use xlink:href="#DejaVuSans-74" transform="translate(1287.109375 0)"/>
      <use xlink:href="#DejaVuSans-79" transform="translate(1326.318359 0)"/>
      <use xlink:href="#DejaVuSans-29" transform="translate(1385.498047 0)"/>
     </g>
    </g>
   </g>
   <g id="line2d_25">
    <path d="M 80.528182 93.831026 
L 91.131455 93.831026 
L 101.734727 93.831026 
L 112.338 93.831026 
L 122.941273 93.831026 
L 133.544545 93.831026 
L 160.052727 93.831026 
L 186.560909 93.103928 
L 239.577273 90.417751 
L 292.593636 90.673575 
L 345.61 88.97118 
L 398.626364 82.01972 
L 451.642727 68.13192 
L 504.659091 54.14284 
L 557.675455 47.274992 
L 610.691818 44.687347 
" clip-path="url(#p7f82ccf923)" style="fill: none; stroke: #2ca02c; stroke-width: 1.5; stroke-linecap: square"/>
   </g>
   <g id="line2d_26">
    <path d="M 80.528182 209.441619 
L 91.131455 209.441619 
L 101.734727 209.441619 
L 112.338 209.441619 
L 122.941273 209.441619 
L 133.544545 209.441619 
L 160.052727 209.441619 
L 186.560909 208.668129 
L 239.577273 202.561614 
L 292.593636 195.413936 
L 345.61 175.025079 
L 398.626364 158.891135 
L 451.642727 130.058752 
L 504.659091 83.47462 
L 557.675455 56.657805 
L 610.691818 49.635202 
" clip-path="url(#p7f82ccf923)" style="fill: none; stroke-dasharray: 5.55,2.4; stroke-dashoffset: 0; stroke: #2ca02c; stroke-width: 1.5"/>
   </g>
   <g id="line2d_27">
    <path d="M 80.528182 301.909165 
L 91.131455 301.909165 
L 101.734727 301.909165 
L 112.338 301.909165 
L 122.941273 301.909165 
L 133.544545 301.909165 
L 160.052727 301.909165 
L 186.560909 301.22774 
L 239.577273 295.7264 
L 292.593636 289.302631 
L 345.61 252.35173 
L 398.626364 194.58099 
L 451.642727 151.306703 
L 504.659091 95.519423 
L 557.675455 59.70804 
L 610.691818 50.571564 
" clip-path="url(#p7f82ccf923)" style="fill: none; stroke-dasharray: 1.5,2.475; stroke-dashoffset: 0; stroke: #2ca02c; stroke-width: 1.5"/>
   </g>
   <g id="line2d_28">
    <path d="M 80.528182 82.081618 
L 91.131455 82.081618 
L 101.734727 82.081618 
L 112.338 82.081618 
L 122.941273 81.827671 
L 133.544545 74.504765 
L 160.052727 60.616307 
L 186.560909 54.920965 
L 239.577273 50.039546 
L 292.593636 46.036624 
L 345.61 43.650494 
L 398.626364 42.786934 
L 451.642727 41.985035 
L 504.659091 40.942483 
L 557.675455 40.474199 
L 610.691818 40.438286 
" clip-path="url(#p7f82ccf923)" style="fill: none; stroke: #1f77b4; stroke-width: 1.5; stroke-linecap: square"/>
   </g>
   <g id="line2d_29">
    <path d="M 80.528182 188.373404 
L 91.131455 188.373404 
L 101.734727 188.373404 
L 112.338 188.373404 
L 122.941273 188.373404 
L 133.544545 188.373404 
L 160.052727 188.384201 
L 186.560909 187.804701 
L 239.577273 168.598842 
L 292.593636 118.06435 
L 345.61 86.552934 
L 398.626364 64.781422 
L 451.642727 58.02732 
L 504.659091 50.272721 
L 557.675455 47.492019 
L 610.691818 45.08216 
" clip-path="url(#p7f82ccf923)" style="fill: none; stroke-dasharray: 5.55,2.4; stroke-dashoffset: 0; stroke: #1f77b4; stroke-width: 1.5"/>
   </g>
   <g id="line2d_30">
    <path d="M 80.528182 301.909165 
L 91.131455 301.909165 
L 101.734727 301.909165 
L 112.338 301.909165 
L 122.941273 301.909165 
L 133.544545 301.909165 
L 160.052727 301.909165 
L 186.560909 301.22774 
L 239.577273 295.7264 
L 292.593636 289.302631 
L 345.61 252.35173 
L 398.626364 194.58099 
L 451.642727 151.306703 
L 504.659091 95.519423 
L 557.675455 59.70804 
L 610.691818 50.571564 
" clip-path="url(#p7f82ccf923)" style="fill: none; stroke-dasharray: 1.5,2.475; stroke-dashoffset: 0; stroke: #1f77b4; stroke-width: 1.5"/>
   </g>
   <g id="patch_3">
    <path d="M 54.02 318.04 
L 54.02 26.88 
" style="fill: none; stroke: #000000; stroke-width: 0.8; stroke-linejoin: miter; stroke-linecap: square"/>
   </g>
   <g id="patch_4">
    <path d="M 637.2 318.04 
L 637.2 26.88 
" style="fill: none; stroke: #000000; stroke-width: 0.8; stroke-linejoin: miter; stroke-linecap: square"/>
   </g>
   <g id="patch_5">
    <path d="M 54.02 318.04 
L 637.2 318.04 
" style="fill: none; stroke: #000000; stroke-width: 0.8; stroke-linejoin: miter; stroke-linecap: square"/>
   </g>
   <g id="patch_6">
    <path d="M 54.02 26.88 
L 637.2 26.88 
" style="fill: none; stroke: #000000; stroke-width: 0.8; stroke-linejoin: miter; stroke-linecap: square"/>
   </g>
   <g id="text_15">
    <!-- Top-1 Accuracy (Non-Empty) -->
    <g transform="translate(260.138125 20.88) scale(0.12 -0.12)">
     <use xlink:href="#DejaVuSans-54"/>
     <use xlink:href="#DejaVuSans-6f" transform="translate(44.083984 0)"/>
     <use xlink:href="#DejaVuSans-70" transform="translate(105.265625 0)"/>
     <use xlink:href="#DejaVuSans-2d" transform="translate(168.742188 0)"/>
     <use xlink:href="#DejaVuSans-31" transform="translate(204.826172 0)"/>
     <use xlink:href="#DejaVuSans-20" transform="translate(268.449219 0)"/>
     <use xlink:href="#DejaVuSans-41" transform="translate(300.236328 0)"/>
     <use xlink:href="#DejaVuSans-63" transform="translate(366.894531 0)"/>
     <use xlink:href="#DejaVuSans-63" transform="translate(421.875 0)"/>
     <use xlink:href="#DejaVuSans-75" transform="translate(476.855469 0)"/>
     <use xlink:href="#DejaVuSans-72" transform="translate(540.234375 0)"/>
     <use xlink:href="#DejaVuSans-61" transform="translate(581.347656 0)"/>
     <use xlink:href="#DejaVuSans-63" transform="translate(642.626953 0)"/>
     <use xlink:href="#DejaVuSans-79" transform="translate(697.607422 0)"/>
     <use xlink:href="#DejaVuSans-20" transform="translate(756.787109 0)"/>
     <use xlink:href="#DejaVuSans-28" transform="translate(788.574219 0)"/>
     <use xlink:href="#DejaVuSans-4e" transform="translate(827.587891 0)"/>
     <use xlink:href="#DejaVuSans-6f" transform="translate(902.392578 0)"/>
     <use xlink:href="#DejaVuSans-6e" transform="translate(963.574219 0)"/>
     <use xlink:href="#DejaVuSans-2d" transform="translate(1026.953125 0)"/>
     <use xlink:href="#DejaVuSans-45" transform="translate(1063.037109 0)"/>
     <use xlink:href="#DejaVuSans-6d" transform="translate(1126.220703 0)"/>
     <use xlink:href="#DejaVuSans-70" transform="translate(1223.632812 0)"/>
     <use xlink:href="#DejaVuSans-74" transform="translate(1287.109375 0)"/>
     <use xlink:href="#DejaVuSans-79" transform="translate(1326.318359 0)"/>
     <use xlink:href="#DejaVuSans-29" transform="translate(1385.498047 0)"/>
    </g>
   </g>
   <g id="legend_1">
    <g id="patch_7">
     <path d="M 394.879687 313.04 
L 630.2 313.04 
Q 632.2 313.04 632.2 311.04 
L 632.2 268.005625 
Q 632.2 266.005625 630.2 266.005625 
L 394.879687 266.005625 
Q 392.879687 266.005625 392.879687 268.005625 
L 392.879687 311.04 
Q 392.879687 313.04 394.879687 313.04 
z
" style="fill: #ffffff; opacity: 0.8; stroke: #cccccc; stroke-linejoin: miter"/>
    </g>
    <g id="line2d_31">
     <path d="M 396.879687 274.104062 
L 406.879687 274.104062 
L 416.879687 274.104062 
" style="fill: none; stroke: #2ca02c; stroke-width: 1.5; stroke-linecap: square"/>
    </g>
    <g id="text_16">
     <!-- family (LoUP-CP) -->
     <g transform="translate(424.879687 277.604062) scale(0.1 -0.1)">
      <defs>
       <path id="DejaVuSans-66" d="M 2375 4863 
L 2375 4384 
L 1825 4384 
Q 1516 4384 1395 4259 
Q 1275 4134 1275 3809 
L 1275 3500 
L 2222 3500 
L 2222 3053 
L 1275 3053 
L 1275 0 
L 697 0 
L 697 3053 
L 147 3053 
L 147 3500 
L 697 3500 
L 697 3744 
Q 697 4328 969 4595 
Q 1241 4863 1831 4863 
L 2375 4863 
z
" transform="scale(0.015625)"/>
       <path id="DejaVuSans-69" d="M 603 3500 
L 1178 3500 
L 1178 0 
L 603 0 
L 603 3500 
z
M 603 4863 
L 1178 4863 
L 1178 4134 
L 603 4134 
L 603 4863 
z
" transform="scale(0.015625)"/>
       <path id="DejaVuSans-4c" d="M 628 4666 
L 1259 4666 
L 1259 531 
L 3531 531 
L 3531 0 
L 628 0 
L 628 4666 
z
" transform="scale(0.015625)"/>
       <path id="DejaVuSans-55" d="M 556 4666 
L 1191 4666 
L 1191 1831 
Q 1191 1081 1462 751 
Q 1734 422 2344 422 
Q 2950 422 3222 751 
Q 3494 1081 3494 1831 
L 3494 4666 
L 4128 4666 
L 4128 1753 
Q 4128 841 3676 375 
Q 3225 -91 2344 -91 
Q 1459 -91 1007 375 
Q 556 841 556 1753 
L 556 4666 
z
" transform="scale(0.015625)"/>
       <path id="DejaVuSans-50" d="M 1259 4147 
L 1259 2394 
L 2053 2394 
Q 2494 2394 2734 2622 
Q 2975 2850 2975 3272 
Q 2975 3691 2734 3919 
Q 2494 4147 2053 4147 
L 1259 4147 
z
M 628 4666 
L 2053 4666 
Q 2838 4666 3239 4311 
Q 3641 3956 3641 3272 
Q 3641 2581 3239 2228 
Q 2838 1875 2053 1875 
L 1259 1875 
L 1259 0 
L 628 0 
L 628 4666 
z
" transform="scale(0.015625)"/>
       <path id="DejaVuSans-43" d="M 4122 4306 
L 4122 3641 
Q 3803 3938 3442 4084 
Q 3081 4231 2675 4231 
Q 1875 4231 1450 3742 
Q 1025 3253 1025 2328 
Q 1025 1406 1450 917 
Q 1875 428 2675 428 
Q 3081 428 3442 575 
Q 3803 722 4122 1019 
L 4122 359 
Q 3791 134 3420 21 
Q 3050 -91 2638 -91 
Q 1578 -91 968 557 
Q 359 1206 359 2328 
Q 359 3453 968 4101 
Q 1578 4750 2638 4750 
Q 3056 4750 3426 4639 
Q 3797 4528 4122 4306 
z
" transform="scale(0.015625)"/>
      </defs>
      <use xlink:href="#DejaVuSans-66"/>
      <use xlink:href="#DejaVuSans-61" transform="translate(35.205078 0)"/>
      <use xlink:href="#DejaVuSans-6d" transform="translate(96.484375 0)"/>
      <use xlink:href="#DejaVuSans-69" transform="translate(193.896484 0)"/>
      <use xlink:href="#DejaVuSans-6c" transform="translate(221.679688 0)"/>
      <use xlink:href="#DejaVuSans-79" transform="translate(249.462891 0)"/>
      <use xlink:href="#DejaVuSans-20" transform="translate(308.642578 0)"/>
      <use xlink:href="#DejaVuSans-28" transform="translate(340.429688 0)"/>
      <use xlink:href="#DejaVuSans-4c" transform="translate(379.443359 0)"/>
      <use xlink:href="#DejaVuSans-6f" transform="translate(433.40625 0)"/>
      <use xlink:href="#DejaVuSans-55" transform="translate(494.587891 0)"/>
      <use xlink:href="#DejaVuSans-50" transform="translate(567.78125 0)"/>
      <use xlink:href="#DejaVuSans-2d" transform="translate(625.833984 0)"/>
      <use xlink:href="#DejaVuSans-43" transform="translate(661.917969 0)"/>
      <use xlink:href="#DejaVuSans-50" transform="translate(731.742188 0)"/>
      <use xlink:href="#DejaVuSans-29" transform="translate(792.044922 0)"/>
     </g>
    </g>
    <g id="line2d_32">
     <path d="M 396.879687 288.782188 
L 406.879687 288.782188 
L 416.879687 288.782188 
" style="fill: none; stroke-dasharray: 5.55,2.4; stroke-dashoffset: 0; stroke: #2ca02c; stroke-width: 1.5"/>
    </g>
    <g id="text_17">
     <!-- major (LoUP-CP) -->
     <g transform="translate(424.879687 292.282188) scale(0.1 -0.1)">
      <defs>
       <path id="DejaVuSans-6a" d="M 603 3500 
L 1178 3500 
L 1178 -63 
Q 1178 -731 923 -1031 
Q 669 -1331 103 -1331 
L -116 -1331 
L -116 -844 
L 38 -844 
Q 366 -844 484 -692 
Q 603 -541 603 -63 
L 603 3500 
z
M 603 4863 
L 1178 4863 
L 1178 4134 
L 603 4134 
L 603 4863 
z
" transform="scale(0.015625)"/>
      </defs>
      <use xlink:href="#DejaVuSans-6d"/>
      <use xlink:href="#DejaVuSans-61" transform="translate(97.412109 0)"/>
      <use xlink:href="#DejaVuSans-6a" transform="translate(158.691406 0)"/>
      <use xlink:href="#DejaVuSans-6f" transform="translate(186.474609 0)"/>
      <use xlink:href="#DejaVuSans-72" transform="translate(247.65625 0)"/>
      <use xlink:href="#DejaVuSans-20" transform="translate(288.769531 0)"/>
      <use xlink:href="#DejaVuSans-28" transform="translate(320.556641 0)"/>
      <use xlink:href="#DejaVuSans-4c" transform="translate(359.570312 0)"/>
      <use xlink:href="#DejaVuSans-6f" transform="translate(413.533203 0)"/>
      <use xlink:href="#DejaVuSans-55" transform="translate(474.714844 0)"/>
      <use xlink:href="#DejaVuSans-50" transform="translate(547.908203 0)"/>
      <use xlink:href="#DejaVuSans-2d" transform="translate(605.960938 0)"/>
      <use xlink:href="#DejaVuSans-43" transform="translate(642.044922 0)"/>
      <use xlink:href="#DejaVuSans-50" transform="translate(711.869141 0)"/>
      <use xlink:href="#DejaVuSans-29" transform="translate(772.171875 0)"/>
     </g>
    </g>
    <g id="line2d_33">
     <path d="M 396.879687 303.460312 
L 406.879687 303.460312 
L 416.879687 303.460312 
" style="fill: none; stroke-dasharray: 1.5,2.475; stroke-dashoffset: 0; stroke: #2ca02c; stroke-width: 1.5"/>
    </g>
    <g id="text_18">
     <!-- leaf (LoUP-CP) -->
     <g transform="translate(424.879687 306.960312) scale(0.1 -0.1)">
      <defs>
       <path id="DejaVuSans-65" d="M 3597 1894 
L 3597 1613 
L 953 1613 
Q 991 1019 1311 708 
Q 1631 397 2203 397 
Q 2534 397 2845 478 
Q 3156 559 3463 722 
L 3463 178 
Q 3153 47 2828 -22 
Q 2503 -91 2169 -91 
Q 1331 -91 842 396 
Q 353 884 353 1716 
Q 353 2575 817 3079 
Q 1281 3584 2069 3584 
Q 2775 3584 3186 3129 
Q 3597 2675 3597 1894 
z
M 3022 2063 
Q 3016 2534 2758 2815 
Q 2500 3097 2075 3097 
Q 1594 3097 1305 2825 
Q 1016 2553 972 2059 
L 3022 2063 
z
" transform="scale(0.015625)"/>
      </defs>
      <use xlink:href="#DejaVuSans-6c"/>
      <use xlink:href="#DejaVuSans-65" transform="translate(27.783203 0)"/>
      <use xlink:href="#DejaVuSans-61" transform="translate(89.306641 0)"/>
      <use xlink:href="#DejaVuSans-66" transform="translate(150.585938 0)"/>
      <use xlink:href="#DejaVuSans-20" transform="translate(185.791016 0)"/>
      <use xlink:href="#DejaVuSans-28" transform="translate(217.578125 0)"/>
      <use xlink:href="#DejaVuSans-4c" transform="translate(256.591797 0)"/>
      <use xlink:href="#DejaVuSans-6f" transform="translate(310.554688 0)"/>
      <use xlink:href="#DejaVuSans-55" transform="translate(371.736328 0)"/>
      <use xlink:href="#DejaVuSans-50" transform="translate(444.929688 0)"/>
      <use xlink:href="#DejaVuSans-2d" transform="translate(502.982422 0)"/>
      <use xlink:href="#DejaVuSans-43" transform="translate(539.066406 0)"/>
      <use xlink:href="#DejaVuSans-50" transform="translate(608.890625 0)"/>
      <use xlink:href="#DejaVuSans-29" transform="translate(669.193359 0)"/>
     </g>
    </g>
    <g id="line2d_34">
     <path d="M 527.984375 274.104062 
L 537.984375 274.104062 
L 547.984375 274.104062 
" style="fill: none; stroke: #1f77b4; stroke-width: 1.5; stroke-linecap: square"/>
    </g>
    <g id="text_19">
     <!-- family (Lw-CP) -->
     <g transform="translate(555.984375 277.604062) scale(0.1 -0.1)">
      <defs>
       <path id="DejaVuSans-77" d="M 269 3500 
L 844 3500 
L 1563 769 
L 2278 3500 
L 2956 3500 
L 3675 769 
L 4391 3500 
L 4966 3500 
L 4050 0 
L 3372 0 
L 2619 2869 
L 1863 0 
L 1184 0 
L 269 3500 
z
" transform="scale(0.015625)"/>
      </defs>
      <use xlink:href="#DejaVuSans-66"/>
      <use xlink:href="#DejaVuSans-61" transform="translate(35.205078 0)"/>
      <use xlink:href="#DejaVuSans-6d" transform="translate(96.484375 0)"/>
      <use xlink:href="#DejaVuSans-69" transform="translate(193.896484 0)"/>
      <use xlink:href="#DejaVuSans-6c" transform="translate(221.679688 0)"/>
      <use xlink:href="#DejaVuSans-79" transform="translate(249.462891 0)"/>
      <use xlink:href="#DejaVuSans-20" transform="translate(308.642578 0)"/>
      <use xlink:href="#DejaVuSans-28" transform="translate(340.429688 0)"/>
      <use xlink:href="#DejaVuSans-4c" transform="translate(379.443359 0)"/>
      <use xlink:href="#DejaVuSans-77" transform="translate(435.15625 0)"/>
      <use xlink:href="#DejaVuSans-2d" transform="translate(516.943359 0)"/>
      <use xlink:href="#DejaVuSans-43" transform="translate(553.027344 0)"/>
      <use xlink:href="#DejaVuSans-50" transform="translate(622.851562 0)"/>
      <use xlink:href="#DejaVuSans-29" transform="translate(683.154297 0)"/>
     </g>
    </g>
    <g id="line2d_35">
     <path d="M 527.984375 288.782188 
L 537.984375 288.782188 
L 547.984375 288.782188 
" style="fill: none; stroke-dasharray: 5.55,2.4; stroke-dashoffset: 0; stroke: #1f77b4; stroke-width: 1.5"/>
    </g>
    <g id="text_20">
     <!-- major (Lw-CP) -->
     <g transform="translate(555.984375 292.282188) scale(0.1 -0.1)">
      <use xlink:href="#DejaVuSans-6d"/>
      <use xlink:href="#DejaVuSans-61" transform="translate(97.412109 0)"/>
      <use xlink:href="#DejaVuSans-6a" transform="translate(158.691406 0)"/>
      <use xlink:href="#DejaVuSans-6f" transform="translate(186.474609 0)"/>
      <use xlink:href="#DejaVuSans-72" transform="translate(247.65625 0)"/>
      <use xlink:href="#DejaVuSans-20" transform="translate(288.769531 0)"/>
      <use xlink:href="#DejaVuSans-28" transform="translate(320.556641 0)"/>
      <use xlink:href="#DejaVuSans-4c" transform="translate(359.570312 0)"/>
      <use xlink:href="#DejaVuSans-77" transform="translate(415.283203 0)"/>
      <use xlink:href="#DejaVuSans-2d" transform="translate(497.070312 0)"/>
      <use xlink:href="#DejaVuSans-43" transform="translate(533.154297 0)"/>
      <use xlink:href="#DejaVuSans-50" transform="translate(602.978516 0)"/>
      <use xlink:href="#DejaVuSans-29" transform="translate(663.28125 0)"/>
     </g>
    </g>
    <g id="line2d_36">
     <path d="M 527.984375 303.460312 
L 537.984375 303.460312 
L 547.984375 303.460312 
" style="fill: none; stroke-dasharray: 1.5,2.475; stroke-dashoffset: 0; stroke: #1f77b4; stroke-width: 1.5"/>
    </g>
    <g id="text_21">
     <!-- leaf (Lw-CP) -->
     <g transform="translate(555.984375 306.960312) scale(0.1 -0.1)">
      <use xlink:href="#DejaVuSans-6c"/>
      <use xlink:href="#DejaVuSans-65" transform="translate(27.783203 0)"/>
      <use xlink:href="#DejaVuSans-61" transform="translate(89.306641 0)"/>
      <use xlink:href="#DejaVuSans-66" transform="translate(150.585938 0)"/>
      <use xlink:href="#DejaVuSans-20" transform="translate(185.791016 0)"/>
      <use xlink:href="#DejaVuSans-28" transform="translate(217.578125 0)"/>
      <use xlink:href="#DejaVuSans-4c" transform="translate(256.591797 0)"/>
      <use xlink:href="#DejaVuSans-77" transform="translate(312.304688 0)"/>
      <use xlink:href="#DejaVuSans-2d" transform="translate(394.091797 0)"/>
      <use xlink:href="#DejaVuSans-43" transform="translate(430.175781 0)"/>
      <use xlink:href="#DejaVuSans-50" transform="translate(500 0)"/>
      <use xlink:href="#DejaVuSans-29" transform="translate(560.302734 0)"/>
     </g>
    </g>
   </g>
  </g>
 </g>
 <defs>
  <clipPath id="p7f82ccf923">
   <rect x="54.02" y="26.88" width="583.18" height="291.16"/>
  </clipPath>
 </defs>
</svg>
