<?xml version="1.0" encoding="utf-8" standalone="no"?>
<!DOCTYPE svg PUBLIC "-//W3C//DTD SVG 1.1//EN"
  "http://www.w3.org/Graphics/SVG/1.1/DTD/svg11.dtd">
<svg xmlns:xlink="http://www.w3.org/1999/xlink" width="648pt" height="360pt" viewBox="0 0 648 360" xmlns="http://www.w3.org/2000/svg" version="1.1">
 <metadata>
  <rdf:RDF xmlns:dc="http://purl.org/dc/elements/1.1/" xmlns:cc="http://creativecommons.org/ns#" xmlns:rdf="http://www.w3.org/1999/02/22-rdf-syntax-ns#">
   <cc:Work>
    <dc:type rdf:resource="http://purl.org/dc/dcmitype/StillImage"/>
    <dc:date>2026-01-09T19:27:41.864011</dc:date>
    <dc:format>image/svg+xml</dc:format>
    <dc:creator>
     <cc:Agent>
      <dc:title>Matplotlib v3.10.7, https://matplotlib.org/</dc:title>
     </cc:Agent>
    </dc:creator>
   </cc:Work>
  </rdf:RDF>
 </metadata>
 <defs>
  <style type="text/css">*{stroke-linejoin: round; stroke-linecap: butt}</style>
 </defs>
 <g id="figure_1">
  <g id="patch_1">
   <path d="M 0 360 
L 648 360 
L 648 0 
L 0 0 
z
" style="fill: #ffffff"/>
  </g>
  <g id="axes_1">
   <g id="patch_2">
    <path d="M 54.02 318.04 
L 637.2 318.04 
L 637.2 26.88 
L 54.02 26.88 
z
" style="fill: #ffffff"/>
   </g>
   <g id="FillBetweenPolyCollection_1">
    <defs>
     <path id="med2b91fe58" d="M 80.528182 -202.99695 
L 80.528182 -198.78482 
L 91.131455 -138.194085 
L 101.734727 -130.933288 
L 112.338 -128.40164 
L 122.941273 -126.31819 
L 133.544545 -122.871164 
L 160.052727 -118.564804 
L 186.560909 -116.910777 
L 239.577273 -115.307008 
L 292.593636 -114.27693 
L 345.61 -104.264939 
L 398.626364 -88.684895 
L 451.642727 -74.571407 
L 504.659091 -60.097558 
L 557.675455 -49.455289 
L 610.691818 -41.566923 
L 610.691818 -43.545952 
L 610.691818 -43.545952 
L 557.675455 -51.558955 
L 504.659091 -62.440055 
L 451.642727 -76.291767 
L 398.626364 -90.579017 
L 345.61 -106.648641 
L 292.593636 -114.78909 
L 239.577273 -115.60674 
L 186.560909 -117.170584 
L 160.052727 -119.441325 
L 133.544545 -124.368181 
L 122.941273 -127.170783 
L 112.338 -129.162953 
L 101.734727 -132.038725 
L 91.131455 -140.668411 
L 80.528182 -202.99695 
z
" style="stroke: #2ca02c; stroke-opacity: 0.15"/>
    </defs>
    <g clip-path="url(#p6a26a698d1)">
     <use xlink:href="#med2b91fe58" x="0" y="360" style="fill: #2ca02c; fill-opacity: 0.15; stroke: #2ca02c; stroke-opacity: 0.15"/>
    </g>
   </g>
   <g id="FillBetweenPolyCollection_2">
    <defs>
     <path id="mdc242e62d9" d="M 80.528182 -280.333967 
L 80.528182 -261.389452 
L 91.131455 -170.097202 
L 101.734727 -155.831018 
L 112.338 -149.680233 
L 122.941273 -145.298259 
L 133.544545 -141.456622 
L 160.052727 -133.166354 
L 186.560909 -127.906542 
L 239.577273 -120.895734 
L 292.593636 -118.469887 
L 345.61 -109.169992 
L 398.626364 -89.525267 
L 451.642727 -74.571407 
L 504.659091 -60.097558 
L 557.675455 -49.455289 
L 610.691818 -41.566923 
L 610.691818 -43.545952 
L 610.691818 -43.545952 
L 557.675455 -51.558955 
L 504.659091 -62.440055 
L 451.642727 -76.291767 
L 398.626364 -91.705031 
L 345.61 -112.162446 
L 292.593636 -119.403514 
L 239.577273 -121.582329 
L 186.560909 -128.599788 
L 160.052727 -134.841099 
L 133.544545 -142.901512 
L 122.941273 -146.552284 
L 112.338 -151.354999 
L 101.734727 -158.111197 
L 91.131455 -173.598184 
L 80.528182 -280.333967 
z
" style="stroke: #2ca02c; stroke-opacity: 0.15"/>
    </defs>
    <g clip-path="url(#p6a26a698d1)">
     <use xlink:href="#mdc242e62d9" x="0" y="360" style="fill: #2ca02c; fill-opacity: 0.15; stroke: #2ca02c; stroke-opacity: 0.15"/>
    </g>
   </g>
   <g id="FillBetweenPolyCollection_3">
    <defs>
     <path id="m8c9ae1cfd5" d="M 80.528182 -319.212327 
L 80.528182 -289.277654 
L 91.131455 -189.665727 
L 101.734727 -174.703987 
L 112.338 -167.303593 
L 122.941273 -161.283344 
L 133.544545 -156.182368 
L 160.052727 -144.602245 
L 186.560909 -138.074748 
L 239.577273 -128.981234 
L 292.593636 -122.394741 
L 345.61 -113.508446 
L 398.626364 -90.313104 
L 451.642727 -74.571407 
L 504.659091 -60.097558 
L 557.675455 -49.455289 
L 610.691818 -41.566923 
L 610.691818 -43.545952 
L 610.691818 -43.545952 
L 557.675455 -51.558955 
L 504.659091 -62.440055 
L 451.642727 -76.291767 
L 398.626364 -92.60642 
L 345.61 -114.921881 
L 292.593636 -123.968223 
L 239.577273 -129.850319 
L 186.560909 -138.910067 
L 160.052727 -146.653433 
L 133.544545 -157.527481 
L 122.941273 -163.194624 
L 112.338 -169.65951 
L 101.734727 -177.332475 
L 91.131455 -193.13036 
L 80.528182 -319.212327 
z
" style="stroke: #2ca02c; stroke-opacity: 0.15"/>
    </defs>
    <g clip-path="url(#p6a26a698d1)">
     <use xlink:href="#m8c9ae1cfd5" x="0" y="360" style="fill: #2ca02c; fill-opacity: 0.15; stroke: #2ca02c; stroke-opacity: 0.15"/>
    </g>
   </g>
   <g id="FillBetweenPolyCollection_4">
    <defs>
     <path id="mba68897fe3" d="M 80.528182 -192.170616 
L 80.528182 -180.066798 
L 91.131455 -124.57565 
L 101.734727 -118.747956 
L 112.338 -115.395168 
L 122.941273 -113.946853 
L 133.544545 -111.009082 
L 160.052727 -105.126324 
L 186.560909 -100.637063 
L 239.577273 -92.754918 
L 292.593636 -84.760404 
L 345.61 -77.423608 
L 398.626364 -70.152167 
L 451.642727 -63.008103 
L 504.659091 -55.521475 
L 557.675455 -48.317838 
L 610.691818 -41.117451 
L 610.691818 -43.083332 
L 610.691818 -43.083332 
L 557.675455 -50.25903 
L 504.659091 -57.424231 
L 451.642727 -64.666026 
L 398.626364 -71.786639 
L 345.61 -79.086019 
L 292.593636 -86.484892 
L 239.577273 -94.578333 
L 186.560909 -102.114792 
L 160.052727 -106.520008 
L 133.544545 -112.286118 
L 122.941273 -114.362494 
L 112.338 -115.767195 
L 101.734727 -120.263117 
L 91.131455 -125.261637 
L 80.528182 -192.170616 
z
" style="stroke: #1f77b4; stroke-opacity: 0.15"/>
    </defs>
    <g clip-path="url(#p6a26a698d1)">
     <use xlink:href="#mba68897fe3" x="0" y="360" style="fill: #1f77b4; fill-opacity: 0.15; stroke: #1f77b4; stroke-opacity: 0.15"/>
    </g>
   </g>
   <g id="FillBetweenPolyCollection_5">
    <defs>
     <path id="m271c9f0d9d" d="M 80.528182 -279.97765 
L 80.528182 -264.019402 
L 91.131455 -155.441764 
L 101.734727 -145.705827 
L 112.338 -140.211933 
L 122.941273 -136.468377 
L 133.544545 -132.630896 
L 160.052727 -126.342439 
L 186.560909 -122.041375 
L 239.577273 -112.485006 
L 292.593636 -93.847763 
L 345.61 -81.924236 
L 398.626364 -72.11888 
L 451.642727 -63.541254 
L 504.659091 -56.009831 
L 557.675455 -48.361003 
L 610.691818 -41.058872 
L 610.691818 -43.158215 
L 610.691818 -43.158215 
L 557.675455 -50.785583 
L 504.659091 -57.984736 
L 451.642727 -67.047582 
L 398.626364 -74.536173 
L 345.61 -84.243417 
L 292.593636 -96.133904 
L 239.577273 -114.199041 
L 186.560909 -123.028908 
L 160.052727 -127.401904 
L 133.544545 -134.020156 
L 122.941273 -137.688215 
L 112.338 -141.413765 
L 101.734727 -147.579327 
L 91.131455 -159.979782 
L 80.528182 -279.97765 
z
" style="stroke: #1f77b4; stroke-opacity: 0.15"/>
    </defs>
    <g clip-path="url(#p6a26a698d1)">
     <use xlink:href="#m271c9f0d9d" x="0" y="360" style="fill: #1f77b4; fill-opacity: 0.15; stroke: #1f77b4; stroke-opacity: 0.15"/>
    </g>
   </g>
   <g id="FillBetweenPolyCollection_6">
    <defs>
     <path id="m7c785575dc" d="M 80.528182 -319.212327 
L 80.528182 -289.277654 
L 91.131455 -189.665727 
L 101.734727 -174.703987 
L 112.338 -167.303593 
L 122.941273 -161.283344 
L 133.544545 -156.182368 
L 160.052727 -144.602245 
L 186.560909 -138.074748 
L 239.577273 -128.981234 
L 292.593636 -122.394741 
L 345.61 -113.508446 
L 398.626364 -90.313104 
L 451.642727 -74.571407 
L 504.659091 -60.097558 
L 557.675455 -49.455289 
L 610.691818 -41.566923 
L 610.691818 -43.545952 
L 610.691818 -43.545952 
L 557.675455 -51.558955 
L 504.659091 -62.440055 
L 451.642727 -76.291767 
L 398.626364 -92.60642 
L 345.61 -114.921881 
L 292.593636 -123.968223 
L 239.577273 -129.850319 
L 186.560909 -138.910067 
L 160.052727 -146.653433 
L 133.544545 -157.527481 
L 122.941273 -163.194624 
L 112.338 -169.65951 
L 101.734727 -177.332475 
L 91.131455 -193.13036 
L 80.528182 -319.212327 
z
" style="stroke: #1f77b4; stroke-opacity: 0.15"/>
    </defs>
    <g clip-path="url(#p6a26a698d1)">
     <use xlink:href="#m7c785575dc" x="0" y="360" style="fill: #1f77b4; fill-opacity: 0.15; stroke: #1f77b4; stroke-opacity: 0.15"/>
    </g>
   </g>
   <g id="matplotlib.axis_1">
    <g id="xtick_1">
     <g id="line2d_1">
      <path d="M 80.528182 318.04 
L 80.528182 26.88 
" clip-path="url(#p6a26a698d1)" style="fill: none; stroke-dasharray: 0.5,0.825; stroke-dashoffset: 0; stroke: #b0b0b0; stroke-width: 0.5"/>
     </g>
     <g id="line2d_2">
      <defs>
       <path id="mda3340a209" d="M 0 0 
L 0 3.5 
" style="stroke: #000000; stroke-width: 0.8"/>
      </defs>
      <g>
       <use xlink:href="#mda3340a209" x="80.528182" y="318.04" style="stroke: #000000; stroke-width: 0.8"/>
      </g>
     </g>
     <g id="text_1">
      <!-- 0.0 -->
      <g transform="translate(72.576619 332.638438) scale(0.1 -0.1)">
       <defs>
        <path id="DejaVuSans-30" d="M 2034 4250 
Q 1547 4250 1301 3770 
Q 1056 3291 1056 2328 
Q 1056 1369 1301 889 
Q 1547 409 2034 409 
Q 2525 409 2770 889 
Q 3016 1369 3016 2328 
Q 3016 3291 2770 3770 
Q 2525 4250 2034 4250 
z
M 2034 4750 
Q 2819 4750 3233 4129 
Q 3647 3509 3647 2328 
Q 3647 1150 3233 529 
Q 2819 -91 2034 -91 
Q 1250 -91 836 529 
Q 422 1150 422 2328 
Q 422 3509 836 4129 
Q 1250 4750 2034 4750 
z
" transform="scale(0.015625)"/>
        <path id="DejaVuSans-2e" d="M 684 794 
L 1344 794 
L 1344 0 
L 684 0 
L 684 794 
z
" transform="scale(0.015625)"/>
       </defs>
       <use xlink:href="#DejaVuSans-30"/>
       <use xlink:href="#DejaVuSans-2e" transform="translate(63.623047 0)"/>
       <use xlink:href="#DejaVuSans-30" transform="translate(95.410156 0)"/>
      </g>
     </g>
    </g>
    <g id="xtick_2">
     <g id="line2d_3">
      <path d="M 186.560909 318.04 
L 186.560909 26.88 
" clip-path="url(#p6a26a698d1)" style="fill: none; stroke-dasharray: 0.5,0.825; stroke-dashoffset: 0; stroke: #b0b0b0; stroke-width: 0.5"/>
     </g>
     <g id="line2d_4">
      <g>
       <use xlink:href="#mda3340a209" x="186.560909" y="318.04" style="stroke: #000000; stroke-width: 0.8"/>
      </g>
     </g>
     <g id="text_2">
      <!-- 0.1 -->
      <g transform="translate(178.609347 332.638438) scale(0.1 -0.1)">
       <defs>
        <path id="DejaVuSans-31" d="M 794 531 
L 1825 531 
L 1825 4091 
L 703 3866 
L 703 4441 
L 1819 4666 
L 2450 4666 
L 2450 531 
L 3481 531 
L 3481 0 
L 794 0 
L 794 531 
z
" transform="scale(0.015625)"/>
       </defs>
       <use xlink:href="#DejaVuSans-30"/>
       <use xlink:href="#DejaVuSans-2e" transform="translate(63.623047 0)"/>
       <use xlink:href="#DejaVuSans-31" transform="translate(95.410156 0)"/>
      </g>
     </g>
    </g>
    <g id="xtick_3">
     <g id="line2d_5">
      <path d="M 292.593636 318.04 
L 292.593636 26.88 
" clip-path="url(#p6a26a698d1)" style="fill: none; stroke-dasharray: 0.5,0.825; stroke-dashoffset: 0; stroke: #b0b0b0; stroke-width: 0.5"/>
     </g>
     <g id="line2d_6">
      <g>
       <use xlink:href="#mda3340a209" x="292.593636" y="318.04" style="stroke: #000000; stroke-width: 0.8"/>
      </g>
     </g>
     <g id="text_3">
      <!-- 0.2 -->
      <g transform="translate(284.642074 332.638438) scale(0.1 -0.1)">
       <defs>
        <path id="DejaVuSans-32" d="M 1228 531 
L 3431 531 
L 3431 0 
L 469 0 
L 469 531 
Q 828 903 1448 1529 
Q 2069 2156 2228 2338 
Q 2531 2678 2651 2914 
Q 2772 3150 2772 3378 
Q 2772 3750 2511 3984 
Q 2250 4219 1831 4219 
Q 1534 4219 1204 4116 
Q 875 4013 500 3803 
L 500 4441 
Q 881 4594 1212 4672 
Q 1544 4750 1819 4750 
Q 2544 4750 2975 4387 
Q 3406 4025 3406 3419 
Q 3406 3131 3298 2873 
Q 3191 2616 2906 2266 
Q 2828 2175 2409 1742 
Q 1991 1309 1228 531 
z
" transform="scale(0.015625)"/>
       </defs>
       <use xlink:href="#DejaVuSans-30"/>
       <use xlink:href="#DejaVuSans-2e" transform="translate(63.623047 0)"/>
       <use xlink:href="#DejaVuSans-32" transform="translate(95.410156 0)"/>
      </g>
     </g>
    </g>
    <g id="xtick_4">
     <g id="line2d_7">
      <path d="M 398.626364 318.04 
L 398.626364 26.88 
" clip-path="url(#p6a26a698d1)" style="fill: none; stroke-dasharray: 0.5,0.825; stroke-dashoffset: 0; stroke: #b0b0b0; stroke-width: 0.5"/>
     </g>
     <g id="line2d_8">
      <g>
       <use xlink:href="#mda3340a209" x="398.626364" y="318.04" style="stroke: #000000; stroke-width: 0.8"/>
      </g>
     </g>
     <g id="text_4">
      <!-- 0.3 -->
      <g transform="translate(390.674801 332.638438) scale(0.1 -0.1)">
       <defs>
        <path id="DejaVuSans-33" d="M 2597 2516 
Q 3050 2419 3304 2112 
Q 3559 1806 3559 1356 
Q 3559 666 3084 287 
Q 2609 -91 1734 -91 
Q 1441 -91 1130 -33 
Q 819 25 488 141 
L 488 750 
Q 750 597 1062 519 
Q 1375 441 1716 441 
Q 2309 441 2620 675 
Q 2931 909 2931 1356 
Q 2931 1769 2642 2001 
Q 2353 2234 1838 2234 
L 1294 2234 
L 1294 2753 
L 1863 2753 
Q 2328 2753 2575 2939 
Q 2822 3125 2822 3475 
Q 2822 3834 2567 4026 
Q 2313 4219 1838 4219 
Q 1578 4219 1281 4162 
Q 984 4106 628 3988 
L 628 4550 
Q 988 4650 1302 4700 
Q 1616 4750 1894 4750 
Q 2613 4750 3031 4423 
Q 3450 4097 3450 3541 
Q 3450 3153 3228 2886 
Q 3006 2619 2597 2516 
z
" transform="scale(0.015625)"/>
       </defs>
       <use xlink:href="#DejaVuSans-30"/>
       <use xlink:href="#DejaVuSans-2e" transform="translate(63.623047 0)"/>
       <use xlink:href="#DejaVuSans-33" transform="translate(95.410156 0)"/>
      </g>
     </g>
    </g>
    <g id="xtick_5">
     <g id="line2d_9">
      <path d="M 504.659091 318.04 
L 504.659091 26.88 
" clip-path="url(#p6a26a698d1)" style="fill: none; stroke-dasharray: 0.5,0.825; stroke-dashoffset: 0; stroke: #b0b0b0; stroke-width: 0.5"/>
     </g>
     <g id="line2d_10">
      <g>
       <use xlink:href="#mda3340a209" x="504.659091" y="318.04" style="stroke: #000000; stroke-width: 0.8"/>
      </g>
     </g>
     <g id="text_5">
      <!-- 0.4 -->
      <g transform="translate(496.707528 332.638438) scale(0.1 -0.1)">
       <defs>
        <path id="DejaVuSans-34" d="M 2419 4116 
L 825 1625 
L 2419 1625 
L 2419 4116 
z
M 2253 4666 
L 3047 4666 
L 3047 1625 
L 3713 1625 
L 3713 1100 
L 3047 1100 
L 3047 0 
L 2419 0 
L 2419 1100 
L 313 1100 
L 313 1709 
L 2253 4666 
z
" transform="scale(0.015625)"/>
       </defs>
       <use xlink:href="#DejaVuSans-30"/>
       <use xlink:href="#DejaVuSans-2e" transform="translate(63.623047 0)"/>
       <use xlink:href="#DejaVuSans-34" transform="translate(95.410156 0)"/>
      </g>
     </g>
    </g>
    <g id="xtick_6">
     <g id="line2d_11">
      <path d="M 610.691818 318.04 
L 610.691818 26.88 
" clip-path="url(#p6a26a698d1)" style="fill: none; stroke-dasharray: 0.5,0.825; stroke-dashoffset: 0; stroke: #b0b0b0; stroke-width: 0.5"/>
     </g>
     <g id="line2d_12">
      <g>
       <use xlink:href="#mda3340a209" x="610.691818" y="318.04" style="stroke: #000000; stroke-width: 0.8"/>
      </g>
     </g>
     <g id="text_6">
      <!-- 0.5 -->
      <g transform="translate(602.740256 332.638438) scale(0.1 -0.1)">
       <defs>
        <path id="DejaVuSans-35" d="M 691 4666 
L 3169 4666 
L 3169 4134 
L 1269 4134 
L 1269 2991 
Q 1406 3038 1543 3061 
Q 1681 3084 1819 3084 
Q 2600 3084 3056 2656 
Q 3513 2228 3513 1497 
Q 3513 744 3044 326 
Q 2575 -91 1722 -91 
Q 1428 -91 1123 -41 
Q 819 9 494 109 
L 494 744 
Q 775 591 1075 516 
Q 1375 441 1709 441 
Q 2250 441 2565 725 
Q 2881 1009 2881 1497 
Q 2881 1984 2565 2268 
Q 2250 2553 1709 2553 
Q 1456 2553 1204 2497 
Q 953 2441 691 2322 
L 691 4666 
z
" transform="scale(0.015625)"/>
       </defs>
       <use xlink:href="#DejaVuSans-30"/>
       <use xlink:href="#DejaVuSans-2e" transform="translate(63.623047 0)"/>
       <use xlink:href="#DejaVuSans-35" transform="translate(95.410156 0)"/>
      </g>
     </g>
    </g>
    <g id="text_7">
     <!-- alpha -->
     <g transform="translate(331.749844 346.316563) scale(0.1 -0.1)">
      <defs>
       <path id="DejaVuSans-61" d="M 2194 1759 
Q 1497 1759 1228 1600 
Q 959 1441 959 1056 
Q 959 750 1161 570 
Q 1363 391 1709 391 
Q 2188 391 2477 730 
Q 2766 1069 2766 1631 
L 2766 1759 
L 2194 1759 
z
M 3341 1997 
L 3341 0 
L 2766 0 
L 2766 531 
Q 2569 213 2275 61 
Q 1981 -91 1556 -91 
Q 1019 -91 701 211 
Q 384 513 384 1019 
Q 384 1609 779 1909 
Q 1175 2209 1959 2209 
L 2766 2209 
L 2766 2266 
Q 2766 2663 2505 2880 
Q 2244 3097 1772 3097 
Q 1472 3097 1187 3025 
Q 903 2953 641 2809 
L 641 3341 
Q 956 3463 1253 3523 
Q 1550 3584 1831 3584 
Q 2591 3584 2966 3190 
Q 3341 2797 3341 1997 
z
" transform="scale(0.015625)"/>
       <path id="DejaVuSans-6c" d="M 603 4863 
L 1178 4863 
L 1178 0 
L 603 0 
L 603 4863 
z
" transform="scale(0.015625)"/>
       <path id="DejaVuSans-70" d="M 1159 525 
L 1159 -1331 
L 581 -1331 
L 581 3500 
L 1159 3500 
L 1159 2969 
Q 1341 3281 1617 3432 
Q 1894 3584 2278 3584 
Q 2916 3584 3314 3078 
Q 3713 2572 3713 1747 
Q 3713 922 3314 415 
Q 2916 -91 2278 -91 
Q 1894 -91 1617 61 
Q 1341 213 1159 525 
z
M 3116 1747 
Q 3116 2381 2855 2742 
Q 2594 3103 2138 3103 
Q 1681 3103 1420 2742 
Q 1159 2381 1159 1747 
Q 1159 1113 1420 752 
Q 1681 391 2138 391 
Q 2594 391 2855 752 
Q 3116 1113 3116 1747 
z
" transform="scale(0.015625)"/>
       <path id="DejaVuSans-68" d="M 3513 2113 
L 3513 0 
L 2938 0 
L 2938 2094 
Q 2938 2591 2744 2837 
Q 2550 3084 2163 3084 
Q 1697 3084 1428 2787 
Q 1159 2491 1159 1978 
L 1159 0 
L 581 0 
L 581 4863 
L 1159 4863 
L 1159 2956 
Q 1366 3272 1645 3428 
Q 1925 3584 2291 3584 
Q 2894 3584 3203 3211 
Q 3513 2838 3513 2113 
z
" transform="scale(0.015625)"/>
      </defs>
      <use xlink:href="#DejaVuSans-61"/>
      <use xlink:href="#DejaVuSans-6c" transform="translate(61.279297 0)"/>
      <use xlink:href="#DejaVuSans-70" transform="translate(89.0625 0)"/>
      <use xlink:href="#DejaVuSans-68" transform="translate(152.539062 0)"/>
      <use xlink:href="#DejaVuSans-61" transform="translate(215.917969 0)"/>
     </g>
    </g>
   </g>
   <g id="matplotlib.axis_2">
    <g id="ytick_1">
     <g id="line2d_13">
      <path d="M 54.02 318.04 
L 637.2 318.04 
" clip-path="url(#p6a26a698d1)" style="fill: none; stroke-dasharray: 0.5,0.825; stroke-dashoffset: 0; stroke: #b0b0b0; stroke-width: 0.5"/>
     </g>
     <g id="line2d_14">
      <defs>
       <path id="m24960f1b24" d="M 0 0 
L -3.5 0 
" style="stroke: #000000; stroke-width: 0.8"/>
      </defs>
      <g>
       <use xlink:href="#m24960f1b24" x="54.02" y="318.04" style="stroke: #000000; stroke-width: 0.8"/>
      </g>
     </g>
     <g id="text_8">
      <!-- 0.5 -->
      <g transform="translate(31.116875 321.839219) scale(0.1 -0.1)">
       <use xlink:href="#DejaVuSans-30"/>
       <use xlink:href="#DejaVuSans-2e" transform="translate(63.623047 0)"/>
       <use xlink:href="#DejaVuSans-35" transform="translate(95.410156 0)"/>
      </g>
     </g>
    </g>
    <g id="ytick_2">
     <g id="line2d_15">
      <path d="M 54.02 246.372427 
L 637.2 246.372427 
" clip-path="url(#p6a26a698d1)" style="fill: none; stroke-dasharray: 0.5,0.825; stroke-dashoffset: 0; stroke: #b0b0b0; stroke-width: 0.5"/>
     </g>
     <g id="line2d_16">
      <g>
       <use xlink:href="#m24960f1b24" x="54.02" y="246.372427" style="stroke: #000000; stroke-width: 0.8"/>
      </g>
     </g>
     <g id="text_9">
      <!-- 1.0 -->
      <g transform="translate(31.116875 250.171646) scale(0.1 -0.1)">
       <use xlink:href="#DejaVuSans-31"/>
       <use xlink:href="#DejaVuSans-2e" transform="translate(63.623047 0)"/>
       <use xlink:href="#DejaVuSans-30" transform="translate(95.410156 0)"/>
      </g>
     </g>
    </g>
    <g id="ytick_3">
     <g id="line2d_17">
      <path d="M 54.02 207.539067 
L 637.2 207.539067 
" clip-path="url(#p6a26a698d1)" style="fill: none; stroke-dasharray: 0.5,0.825; stroke-dashoffset: 0; stroke: #b0b0b0; stroke-width: 0.5"/>
     </g>
     <g id="line2d_18">
      <g>
       <use xlink:href="#m24960f1b24" x="54.02" y="207.539067" style="stroke: #000000; stroke-width: 0.8"/>
      </g>
     </g>
     <g id="text_10">
      <!-- 2.0 -->
      <g transform="translate(31.116875 211.338286) scale(0.1 -0.1)">
       <use xlink:href="#DejaVuSans-32"/>
       <use xlink:href="#DejaVuSans-2e" transform="translate(63.623047 0)"/>
       <use xlink:href="#DejaVuSans-30" transform="translate(95.410156 0)"/>
      </g>
     </g>
    </g>
    <g id="ytick_4">
     <g id="line2d_19">
      <path d="M 54.02 156.204157 
L 637.2 156.204157 
" clip-path="url(#p6a26a698d1)" style="fill: none; stroke-dasharray: 0.5,0.825; stroke-dashoffset: 0; stroke: #b0b0b0; stroke-width: 0.5"/>
     </g>
     <g id="line2d_20">
      <g>
       <use xlink:href="#m24960f1b24" x="54.02" y="156.204157" style="stroke: #000000; stroke-width: 0.8"/>
      </g>
     </g>
     <g id="text_11">
      <!-- 5.0 -->
      <g transform="translate(31.116875 160.003376) scale(0.1 -0.1)">
       <use xlink:href="#DejaVuSans-35"/>
       <use xlink:href="#DejaVuSans-2e" transform="translate(63.623047 0)"/>
       <use xlink:href="#DejaVuSans-30" transform="translate(95.410156 0)"/>
      </g>
     </g>
    </g>
    <g id="ytick_5">
     <g id="line2d_21">
      <path d="M 54.02 117.370797 
L 637.2 117.370797 
" clip-path="url(#p6a26a698d1)" style="fill: none; stroke-dasharray: 0.5,0.825; stroke-dashoffset: 0; stroke: #b0b0b0; stroke-width: 0.5"/>
     </g>
     <g id="line2d_22">
      <g>
       <use xlink:href="#m24960f1b24" x="54.02" y="117.370797" style="stroke: #000000; stroke-width: 0.8"/>
      </g>
     </g>
     <g id="text_12">
      <!-- 10.0 -->
      <g transform="translate(24.754375 121.170016) scale(0.1 -0.1)">
       <use xlink:href="#DejaVuSans-31"/>
       <use xlink:href="#DejaVuSans-30" transform="translate(63.623047 0)"/>
       <use xlink:href="#DejaVuSans-2e" transform="translate(127.246094 0)"/>
       <use xlink:href="#DejaVuSans-30" transform="translate(159.033203 0)"/>
      </g>
     </g>
    </g>
    <g id="ytick_6">
     <g id="line2d_23">
      <path d="M 54.02 78.537437 
L 637.2 78.537437 
" clip-path="url(#p6a26a698d1)" style="fill: none; stroke-dasharray: 0.5,0.825; stroke-dashoffset: 0; stroke: #b0b0b0; stroke-width: 0.5"/>
     </g>
     <g id="line2d_24">
      <g>
       <use xlink:href="#m24960f1b24" x="54.02" y="78.537437" style="stroke: #000000; stroke-width: 0.8"/>
      </g>
     </g>
     <g id="text_13">
      <!-- 20.0 -->
      <g transform="translate(24.754375 82.336655) scale(0.1 -0.1)">
       <use xlink:href="#DejaVuSans-32"/>
       <use xlink:href="#DejaVuSans-30" transform="translate(63.623047 0)"/>
       <use xlink:href="#DejaVuSans-2e" transform="translate(127.246094 0)"/>
       <use xlink:href="#DejaVuSans-30" transform="translate(159.033203 0)"/>
      </g>
     </g>
    </g>
    <g id="ytick_7">
     <g id="line2d_25">
      <path d="M 54.02 27.202527 
L 637.2 27.202527 
" clip-path="url(#p6a26a698d1)" style="fill: none; stroke-dasharray: 0.5,0.825; stroke-dashoffset: 0; stroke: #b0b0b0; stroke-width: 0.5"/>
     </g>
     <g id="line2d_26">
      <g>
       <use xlink:href="#m24960f1b24" x="54.02" y="27.202527" style="stroke: #000000; stroke-width: 0.8"/>
      </g>
     </g>
     <g id="text_14">
      <!-- 50.0 -->
      <g transform="translate(24.754375 31.001745) scale(0.1 -0.1)">
       <use xlink:href="#DejaVuSans-35"/>
       <use xlink:href="#DejaVuSans-30" transform="translate(63.623047 0)"/>
       <use xlink:href="#DejaVuSans-2e" transform="translate(127.246094 0)"/>
       <use xlink:href="#DejaVuSans-30" transform="translate(159.033203 0)"/>
      </g>
     </g>
    </g>
    <g id="text_15">
     <!-- Mean Set Size -->
     <g transform="translate(18.674688 207.736563) rotate(-90) scale(0.1 -0.1)">
      <defs>
       <path id="DejaVuSans-4d" d="M 628 4666 
L 1569 4666 
L 2759 1491 
L 3956 4666 
L 4897 4666 
L 4897 0 
L 4281 0 
L 4281 4097 
L 3078 897 
L 2444 897 
L 1241 4097 
L 1241 0 
L 628 0 
L 628 4666 
z
" transform="scale(0.015625)"/>
       <path id="DejaVuSans-65" d="M 3597 1894 
L 3597 1613 
L 953 1613 
Q 991 1019 1311 708 
Q 1631 397 2203 397 
Q 2534 397 2845 478 
Q 3156 559 3463 722 
L 3463 178 
Q 3153 47 2828 -22 
Q 2503 -91 2169 -91 
Q 1331 -91 842 396 
Q 353 884 353 1716 
Q 353 2575 817 3079 
Q 1281 3584 2069 3584 
Q 2775 3584 3186 3129 
Q 3597 2675 3597 1894 
z
M 3022 2063 
Q 3016 2534 2758 2815 
Q 2500 3097 2075 3097 
Q 1594 3097 1305 2825 
Q 1016 2553 972 2059 
L 3022 2063 
z
" transform="scale(0.015625)"/>
       <path id="DejaVuSans-6e" d="M 3513 2113 
L 3513 0 
L 2938 0 
L 2938 2094 
Q 2938 2591 2744 2837 
Q 2550 3084 2163 3084 
Q 1697 3084 1428 2787 
Q 1159 2491 1159 1978 
L 1159 0 
L 581 0 
L 581 3500 
L 1159 3500 
L 1159 2956 
Q 1366 3272 1645 3428 
Q 1925 3584 2291 3584 
Q 2894 3584 3203 3211 
Q 3513 2838 3513 2113 
z
" transform="scale(0.015625)"/>
       <path id="DejaVuSans-20" transform="scale(0.015625)"/>
       <path id="DejaVuSans-53" d="M 3425 4513 
L 3425 3897 
Q 3066 4069 2747 4153 
Q 2428 4238 2131 4238 
Q 1616 4238 1336 4038 
Q 1056 3838 1056 3469 
Q 1056 3159 1242 3001 
Q 1428 2844 1947 2747 
L 2328 2669 
Q 3034 2534 3370 2195 
Q 3706 1856 3706 1288 
Q 3706 609 3251 259 
Q 2797 -91 1919 -91 
Q 1588 -91 1214 -16 
Q 841 59 441 206 
L 441 856 
Q 825 641 1194 531 
Q 1563 422 1919 422 
Q 2459 422 2753 634 
Q 3047 847 3047 1241 
Q 3047 1584 2836 1778 
Q 2625 1972 2144 2069 
L 1759 2144 
Q 1053 2284 737 2584 
Q 422 2884 422 3419 
Q 422 4038 858 4394 
Q 1294 4750 2059 4750 
Q 2388 4750 2728 4690 
Q 3069 4631 3425 4513 
z
" transform="scale(0.015625)"/>
       <path id="DejaVuSans-74" d="M 1172 4494 
L 1172 3500 
L 2356 3500 
L 2356 3053 
L 1172 3053 
L 1172 1153 
Q 1172 725 1289 603 
Q 1406 481 1766 481 
L 2356 481 
L 2356 0 
L 1766 0 
Q 1100 0 847 248 
Q 594 497 594 1153 
L 594 3053 
L 172 3053 
L 172 3500 
L 594 3500 
L 594 4494 
L 1172 4494 
z
" transform="scale(0.015625)"/>
       <path id="DejaVuSans-69" d="M 603 3500 
L 1178 3500 
L 1178 0 
L 603 0 
L 603 3500 
z
M 603 4863 
L 1178 4863 
L 1178 4134 
L 603 4134 
L 603 4863 
z
" transform="scale(0.015625)"/>
       <path id="DejaVuSans-7a" d="M 353 3500 
L 3084 3500 
L 3084 2975 
L 922 459 
L 3084 459 
L 3084 0 
L 275 0 
L 275 525 
L 2438 3041 
L 353 3041 
L 353 3500 
z
" transform="scale(0.015625)"/>
      </defs>
      <use xlink:href="#DejaVuSans-4d"/>
      <use xlink:href="#DejaVuSans-65" transform="translate(86.279297 0)"/>
      <use xlink:href="#DejaVuSans-61" transform="translate(147.802734 0)"/>
      <use xlink:href="#DejaVuSans-6e" transform="translate(209.082031 0)"/>
      <use xlink:href="#DejaVuSans-20" transform="translate(272.460938 0)"/>
      <use xlink:href="#DejaVuSans-53" transform="translate(304.248047 0)"/>
      <use xlink:href="#DejaVuSans-65" transform="translate(367.724609 0)"/>
      <use xlink:href="#DejaVuSans-74" transform="translate(429.248047 0)"/>
      <use xlink:href="#DejaVuSans-20" transform="translate(468.457031 0)"/>
      <use xlink:href="#DejaVuSans-53" transform="translate(500.244141 0)"/>
      <use xlink:href="#DejaVuSans-69" transform="translate(563.720703 0)"/>
      <use xlink:href="#DejaVuSans-7a" transform="translate(591.503906 0)"/>
      <use xlink:href="#DejaVuSans-65" transform="translate(643.994141 0)"/>
     </g>
    </g>
   </g>
   <g id="line2d_27">
    <path d="M 80.528182 159.069539 
L 91.131455 220.555093 
L 101.734727 228.511268 
L 112.338 231.21641 
L 122.941273 233.253892 
L 133.544545 236.375328 
L 160.052727 240.995221 
L 186.560909 242.959169 
L 239.577273 244.542925 
L 292.593636 245.466405 
L 345.61 254.54321 
L 398.626364 270.368044 
L 451.642727 284.568413 
L 504.659091 298.731194 
L 557.675455 309.492878 
L 610.691818 317.443563 
" clip-path="url(#p6a26a698d1)" style="fill: none; stroke: #2ca02c; stroke-width: 1.5; stroke-linecap: square"/>
   </g>
   <g id="line2d_28">
    <path d="M 80.528182 88.341325 
L 91.131455 188.124965 
L 101.734727 203.017293 
L 112.338 209.476126 
L 122.941273 214.07122 
L 133.544545 217.816275 
L 160.052727 225.990016 
L 186.560909 231.745763 
L 239.577273 238.759917 
L 292.593636 241.061355 
L 345.61 249.333781 
L 398.626364 269.384851 
L 451.642727 284.568413 
L 504.659091 298.731194 
L 557.675455 309.492878 
L 610.691818 317.443563 
" clip-path="url(#p6a26a698d1)" style="fill: none; stroke-dasharray: 5.55,2.4; stroke-dashoffset: 0; stroke: #2ca02c; stroke-width: 1.5"/>
   </g>
   <g id="line2d_29">
    <path d="M 80.528182 53.779041 
L 91.131455 168.575179 
L 101.734727 183.966356 
L 112.338 191.506066 
L 122.941273 197.752866 
L 133.544545 203.141039 
L 160.052727 214.362774 
L 186.560909 221.506036 
L 239.577273 230.582538 
L 292.593636 236.812994 
L 345.61 245.744553 
L 398.626364 268.540238 
L 451.642727 284.568413 
L 504.659091 298.731194 
L 557.675455 309.492878 
L 610.691818 317.443563 
" clip-path="url(#p6a26a698d1)" style="fill: none; stroke-dasharray: 1.5,2.475; stroke-dashoffset: 0; stroke: #2ca02c; stroke-width: 1.5"/>
   </g>
   <g id="line2d_30">
    <path d="M 80.528182 173.555057 
L 91.131455 235.080307 
L 101.734727 240.489342 
L 112.338 244.41851 
L 122.941273 245.844941 
L 133.544545 248.3524 
L 160.052727 254.176834 
L 186.560909 258.624073 
L 239.577273 266.333375 
L 292.593636 274.377352 
L 345.61 281.745186 
L 398.626364 289.030597 
L 451.642727 296.162936 
L 504.659091 303.527147 
L 557.675455 310.711566 
L 610.691818 317.899609 
" clip-path="url(#p6a26a698d1)" style="fill: none; stroke: #1f77b4; stroke-width: 1.5; stroke-linecap: square"/>
   </g>
   <g id="line2d_31">
    <path d="M 80.528182 87.435185 
L 91.131455 202.243292 
L 101.734727 213.349592 
L 112.338 219.183929 
L 122.941273 222.918384 
L 133.544545 226.670168 
L 160.052727 233.125324 
L 186.560909 237.462683 
L 239.577273 246.308562 
L 292.593636 265.009166 
L 345.61 276.916173 
L 398.626364 286.672473 
L 451.642727 294.705582 
L 504.659091 303.002717 
L 557.675455 310.426707 
L 610.691818 317.891457 
" clip-path="url(#p6a26a698d1)" style="fill: none; stroke-dasharray: 5.55,2.4; stroke-dashoffset: 0; stroke: #1f77b4; stroke-width: 1.5"/>
   </g>
   <g id="line2d_32">
    <path d="M 80.528182 53.779041 
L 91.131455 168.575179 
L 101.734727 183.966356 
L 112.338 191.506066 
L 122.941273 197.752866 
L 133.544545 203.141039 
L 160.052727 214.362774 
L 186.560909 221.506036 
L 239.577273 230.582538 
L 292.593636 236.812994 
L 345.61 245.744553 
L 398.626364 268.540238 
L 451.642727 284.568413 
L 504.659091 298.731194 
L 557.675455 309.492878 
L 610.691818 317.443563 
" clip-path="url(#p6a26a698d1)" style="fill: none; stroke-dasharray: 1.5,2.475; stroke-dashoffset: 0; stroke: #1f77b4; stroke-width: 1.5"/>
   </g>
   <g id="patch_3">
    <path d="M 54.02 318.04 
L 54.02 26.88 
" style="fill: none; stroke: #000000; stroke-width: 0.8; stroke-linejoin: miter; stroke-linecap: square"/>
   </g>
   <g id="patch_4">
    <path d="M 637.2 318.04 
L 637.2 26.88 
" style="fill: none; stroke: #000000; stroke-width: 0.8; stroke-linejoin: miter; stroke-linecap: square"/>
   </g>
   <g id="patch_5">
    <path d="M 54.02 318.04 
L 637.2 318.04 
" style="fill: none; stroke: #000000; stroke-width: 0.8; stroke-linejoin: miter; stroke-linecap: square"/>
   </g>
   <g id="patch_6">
    <path d="M 54.02 26.88 
L 637.2 26.88 
" style="fill: none; stroke: #000000; stroke-width: 0.8; stroke-linejoin: miter; stroke-linecap: square"/>
   </g>
   <g id="text_16">
    <!-- Mean Set Size -->
    <g transform="translate(303.278125 20.88) scale(0.12 -0.12)">
     <use xlink:href="#DejaVuSans-4d"/>
     <use xlink:href="#DejaVuSans-65" transform="translate(86.279297 0)"/>
     <use xlink:href="#DejaVuSans-61" transform="translate(147.802734 0)"/>
     <use xlink:href="#DejaVuSans-6e" transform="translate(209.082031 0)"/>
     <use xlink:href="#DejaVuSans-20" transform="translate(272.460938 0)"/>
     <use xlink:href="#DejaVuSans-53" transform="translate(304.248047 0)"/>
     <use xlink:href="#DejaVuSans-65" transform="translate(367.724609 0)"/>
     <use xlink:href="#DejaVuSans-74" transform="translate(429.248047 0)"/>
     <use xlink:href="#DejaVuSans-20" transform="translate(468.457031 0)"/>
     <use xlink:href="#DejaVuSans-53" transform="translate(500.244141 0)"/>
     <use xlink:href="#DejaVuSans-69" transform="translate(563.720703 0)"/>
     <use xlink:href="#DejaVuSans-7a" transform="translate(591.503906 0)"/>
     <use xlink:href="#DejaVuSans-65" transform="translate(643.994141 0)"/>
    </g>
   </g>
   <g id="legend_1">
    <g id="patch_7">
     <path d="M 394.879687 78.914375 
L 630.2 78.914375 
Q 632.2 78.914375 632.2 76.914375 
L 632.2 33.88 
Q 632.2 31.88 630.2 31.88 
L 394.879687 31.88 
Q 392.879687 31.88 392.879687 33.88 
L 392.879687 76.914375 
Q 392.879687 78.914375 394.879687 78.914375 
z
" style="fill: #ffffff; opacity: 0.8; stroke: #cccccc; stroke-linejoin: miter"/>
    </g>
    <g id="line2d_33">
     <path d="M 396.879687 39.978437 
L 406.879687 39.978437 
L 416.879687 39.978437 
" style="fill: none; stroke: #2ca02c; stroke-width: 1.5; stroke-linecap: square"/>
    </g>
    <g id="text_17">
     <!-- family (LoUP-CP) -->
     <g transform="translate(424.879687 43.478437) scale(0.1 -0.1)">
      <defs>
       <path id="DejaVuSans-66" d="M 2375 4863 
L 2375 4384 
L 1825 4384 
Q 1516 4384 1395 4259 
Q 1275 4134 1275 3809 
L 1275 3500 
L 2222 3500 
L 2222 3053 
L 1275 3053 
L 1275 0 
L 697 0 
L 697 3053 
L 147 3053 
L 147 3500 
L 697 3500 
L 697 3744 
Q 697 4328 969 4595 
Q 1241 4863 1831 4863 
L 2375 4863 
z
" transform="scale(0.015625)"/>
       <path id="DejaVuSans-6d" d="M 3328 2828 
Q 3544 3216 3844 3400 
Q 4144 3584 4550 3584 
Q 5097 3584 5394 3201 
Q 5691 2819 5691 2113 
L 5691 0 
L 5113 0 
L 5113 2094 
Q 5113 2597 4934 2840 
Q 4756 3084 4391 3084 
Q 3944 3084 3684 2787 
Q 3425 2491 3425 1978 
L 3425 0 
L 2847 0 
L 2847 2094 
Q 2847 2600 2669 2842 
Q 2491 3084 2119 3084 
Q 1678 3084 1418 2786 
Q 1159 2488 1159 1978 
L 1159 0 
L 581 0 
L 581 3500 
L 1159 3500 
L 1159 2956 
Q 1356 3278 1631 3431 
Q 1906 3584 2284 3584 
Q 2666 3584 2933 3390 
Q 3200 3197 3328 2828 
z
" transform="scale(0.015625)"/>
       <path id="DejaVuSans-79" d="M 2059 -325 
Q 1816 -950 1584 -1140 
Q 1353 -1331 966 -1331 
L 506 -1331 
L 506 -850 
L 844 -850 
Q 1081 -850 1212 -737 
Q 1344 -625 1503 -206 
L 1606 56 
L 191 3500 
L 800 3500 
L 1894 763 
L 2988 3500 
L 3597 3500 
L 2059 -325 
z
" transform="scale(0.015625)"/>
       <path id="DejaVuSans-28" d="M 1984 4856 
Q 1566 4138 1362 3434 
Q 1159 2731 1159 2009 
Q 1159 1288 1364 580 
Q 1569 -128 1984 -844 
L 1484 -844 
Q 1016 -109 783 600 
Q 550 1309 550 2009 
Q 550 2706 781 3412 
Q 1013 4119 1484 4856 
L 1984 4856 
z
" transform="scale(0.015625)"/>
       <path id="DejaVuSans-4c" d="M 628 4666 
L 1259 4666 
L 1259 531 
L 3531 531 
L 3531 0 
L 628 0 
L 628 4666 
z
" transform="scale(0.015625)"/>
       <path id="DejaVuSans-6f" d="M 1959 3097 
Q 1497 3097 1228 2736 
Q 959 2375 959 1747 
Q 959 1119 1226 758 
Q 1494 397 1959 397 
Q 2419 397 2687 759 
Q 2956 1122 2956 1747 
Q 2956 2369 2687 2733 
Q 2419 3097 1959 3097 
z
M 1959 3584 
Q 2709 3584 3137 3096 
Q 3566 2609 3566 1747 
Q 3566 888 3137 398 
Q 2709 -91 1959 -91 
Q 1206 -91 779 398 
Q 353 888 353 1747 
Q 353 2609 779 3096 
Q 1206 3584 1959 3584 
z
" transform="scale(0.015625)"/>
       <path id="DejaVuSans-55" d="M 556 4666 
L 1191 4666 
L 1191 1831 
Q 1191 1081 1462 751 
Q 1734 422 2344 422 
Q 2950 422 3222 751 
Q 3494 1081 3494 1831 
L 3494 4666 
L 4128 4666 
L 4128 1753 
Q 4128 841 3676 375 
Q 3225 -91 2344 -91 
Q 1459 -91 1007 375 
Q 556 841 556 1753 
L 556 4666 
z
" transform="scale(0.015625)"/>
       <path id="DejaVuSans-50" d="M 1259 4147 
L 1259 2394 
L 2053 2394 
Q 2494 2394 2734 2622 
Q 2975 2850 2975 3272 
Q 2975 3691 2734 3919 
Q 2494 4147 2053 4147 
L 1259 4147 
z
M 628 4666 
L 2053 4666 
Q 2838 4666 3239 4311 
Q 3641 3956 3641 3272 
Q 3641 2581 3239 2228 
Q 2838 1875 2053 1875 
L 1259 1875 
L 1259 0 
L 628 0 
L 628 4666 
z
" transform="scale(0.015625)"/>
       <path id="DejaVuSans-2d" d="M 313 2009 
L 1997 2009 
L 1997 1497 
L 313 1497 
L 313 2009 
z
" transform="scale(0.015625)"/>
       <path id="DejaVuSans-43" d="M 4122 4306 
L 4122 3641 
Q 3803 3938 3442 4084 
Q 3081 4231 2675 4231 
Q 1875 4231 1450 3742 
Q 1025 3253 1025 2328 
Q 1025 1406 1450 917 
Q 1875 428 2675 428 
Q 3081 428 3442 575 
Q 3803 722 4122 1019 
L 4122 359 
Q 3791 134 3420 21 
Q 3050 -91 2638 -91 
Q 1578 -91 968 557 
Q 359 1206 359 2328 
Q 359 3453 968 4101 
Q 1578 4750 2638 4750 
Q 3056 4750 3426 4639 
Q 3797 4528 4122 4306 
z
" transform="scale(0.015625)"/>
       <path id="DejaVuSans-29" d="M 513 4856 
L 1013 4856 
Q 1481 4119 1714 3412 
Q 1947 2706 1947 2009 
Q 1947 1309 1714 600 
Q 1481 -109 1013 -844 
L 513 -844 
Q 928 -128 1133 580 
Q 1338 1288 1338 2009 
Q 1338 2731 1133 3434 
Q 928 4138 513 4856 
z
" transform="scale(0.015625)"/>
      </defs>
      <use xlink:href="#DejaVuSans-66"/>
      <use xlink:href="#DejaVuSans-61" transform="translate(35.205078 0)"/>
      <use xlink:href="#DejaVuSans-6d" transform="translate(96.484375 0)"/>
      <use xlink:href="#DejaVuSans-69" transform="translate(193.896484 0)"/>
      <use xlink:href="#DejaVuSans-6c" transform="translate(221.679688 0)"/>
      <use xlink:href="#DejaVuSans-79" transform="translate(249.462891 0)"/>
      <use xlink:href="#DejaVuSans-20" transform="translate(308.642578 0)"/>
      <use xlink:href="#DejaVuSans-28" transform="translate(340.429688 0)"/>
      <use xlink:href="#DejaVuSans-4c" transform="translate(379.443359 0)"/>
      <use xlink:href="#DejaVuSans-6f" transform="translate(433.40625 0)"/>
      <use xlink:href="#DejaVuSans-55" transform="translate(494.587891 0)"/>
      <use xlink:href="#DejaVuSans-50" transform="translate(567.78125 0)"/>
      <use xlink:href="#DejaVuSans-2d" transform="translate(625.833984 0)"/>
      <use xlink:href="#DejaVuSans-43" transform="translate(661.917969 0)"/>
      <use xlink:href="#DejaVuSans-50" transform="translate(731.742188 0)"/>
      <use xlink:href="#DejaVuSans-29" transform="translate(792.044922 0)"/>
     </g>
    </g>
    <g id="line2d_34">
     <path d="M 396.879687 54.656563 
L 406.879687 54.656563 
L 416.879687 54.656563 
" style="fill: none; stroke-dasharray: 5.55,2.4; stroke-dashoffset: 0; stroke: #2ca02c; stroke-width: 1.5"/>
    </g>
    <g id="text_18">
     <!-- major (LoUP-CP) -->
     <g transform="translate(424.879687 58.156563) scale(0.1 -0.1)">
      <defs>
       <path id="DejaVuSans-6a" d="M 603 3500 
L 1178 3500 
L 1178 -63 
Q 1178 -731 923 -1031 
Q 669 -1331 103 -1331 
L -116 -1331 
L -116 -844 
L 38 -844 
Q 366 -844 484 -692 
Q 603 -541 603 -63 
L 603 3500 
z
M 603 4863 
L 1178 4863 
L 1178 4134 
L 603 4134 
L 603 4863 
z
" transform="scale(0.015625)"/>
       <path id="DejaVuSans-72" d="M 2631 2963 
Q 2534 3019 2420 3045 
Q 2306 3072 2169 3072 
Q 1681 3072 1420 2755 
Q 1159 2438 1159 1844 
L 1159 0 
L 581 0 
L 581 3500 
L 1159 3500 
L 1159 2956 
Q 1341 3275 1631 3429 
Q 1922 3584 2338 3584 
Q 2397 3584 2469 3576 
Q 2541 3569 2628 3553 
L 2631 2963 
z
" transform="scale(0.015625)"/>
      </defs>
      <use xlink:href="#DejaVuSans-6d"/>
      <use xlink:href="#DejaVuSans-61" transform="translate(97.412109 0)"/>
      <use xlink:href="#DejaVuSans-6a" transform="translate(158.691406 0)"/>
      <use xlink:href="#DejaVuSans-6f" transform="translate(186.474609 0)"/>
      <use xlink:href="#DejaVuSans-72" transform="translate(247.65625 0)"/>
      <use xlink:href="#DejaVuSans-20" transform="translate(288.769531 0)"/>
      <use xlink:href="#DejaVuSans-28" transform="translate(320.556641 0)"/>
      <use xlink:href="#DejaVuSans-4c" transform="translate(359.570312 0)"/>
      <use xlink:href="#DejaVuSans-6f" transform="translate(413.533203 0)"/>
      <use xlink:href="#DejaVuSans-55" transform="translate(474.714844 0)"/>
      <use xlink:href="#DejaVuSans-50" transform="translate(547.908203 0)"/>
      <use xlink:href="#DejaVuSans-2d" transform="translate(605.960938 0)"/>
      <use xlink:href="#DejaVuSans-43" transform="translate(642.044922 0)"/>
      <use xlink:href="#DejaVuSans-50" transform="translate(711.869141 0)"/>
      <use xlink:href="#DejaVuSans-29" transform="translate(772.171875 0)"/>
     </g>
    </g>
    <g id="line2d_35">
     <path d="M 396.879687 69.334687 
L 406.879687 69.334687 
L 416.879687 69.334687 
" style="fill: none; stroke-dasharray: 1.5,2.475; stroke-dashoffset: 0; stroke: #2ca02c; stroke-width: 1.5"/>
    </g>
    <g id="text_19">
     <!-- leaf (LoUP-CP) -->
     <g transform="translate(424.879687 72.834687) scale(0.1 -0.1)">
      <use xlink:href="#DejaVuSans-6c"/>
      <use xlink:href="#DejaVuSans-65" transform="translate(27.783203 0)"/>
      <use xlink:href="#DejaVuSans-61" transform="translate(89.306641 0)"/>
      <use xlink:href="#DejaVuSans-66" transform="translate(150.585938 0)"/>
      <use xlink:href="#DejaVuSans-20" transform="translate(185.791016 0)"/>
      <use xlink:href="#DejaVuSans-28" transform="translate(217.578125 0)"/>
      <use xlink:href="#DejaVuSans-4c" transform="translate(256.591797 0)"/>
      <use xlink:href="#DejaVuSans-6f" transform="translate(310.554688 0)"/>
      <use xlink:href="#DejaVuSans-55" transform="translate(371.736328 0)"/>
      <use xlink:href="#DejaVuSans-50" transform="translate(444.929688 0)"/>
      <use xlink:href="#DejaVuSans-2d" transform="translate(502.982422 0)"/>
      <use xlink:href="#DejaVuSans-43" transform="translate(539.066406 0)"/>
      <use xlink:href="#DejaVuSans-50" transform="translate(608.890625 0)"/>
      <use xlink:href="#DejaVuSans-29" transform="translate(669.193359 0)"/>
     </g>
    </g>
    <g id="line2d_36">
     <path d="M 527.984375 39.978437 
L 537.984375 39.978437 
L 547.984375 39.978437 
" style="fill: none; stroke: #1f77b4; stroke-width: 1.5; stroke-linecap: square"/>
    </g>
    <g id="text_20">
     <!-- family (Lw-CP) -->
     <g transform="translate(555.984375 43.478437) scale(0.1 -0.1)">
      <defs>
       <path id="DejaVuSans-77" d="M 269 3500 
L 844 3500 
L 1563 769 
L 2278 3500 
L 2956 3500 
L 3675 769 
L 4391 3500 
L 4966 3500 
L 4050 0 
L 3372 0 
L 2619 2869 
L 1863 0 
L 1184 0 
L 269 3500 
z
" transform="scale(0.015625)"/>
      </defs>
      <use xlink:href="#DejaVuSans-66"/>
      <use xlink:href="#DejaVuSans-61" transform="translate(35.205078 0)"/>
      <use xlink:href="#DejaVuSans-6d" transform="translate(96.484375 0)"/>
      <use xlink:href="#DejaVuSans-69" transform="translate(193.896484 0)"/>
      <use xlink:href="#DejaVuSans-6c" transform="translate(221.679688 0)"/>
      <use xlink:href="#DejaVuSans-79" transform="translate(249.462891 0)"/>
      <use xlink:href="#DejaVuSans-20" transform="translate(308.642578 0)"/>
      <use xlink:href="#DejaVuSans-28" transform="translate(340.429688 0)"/>
      <use xlink:href="#DejaVuSans-4c" transform="translate(379.443359 0)"/>
      <use xlink:href="#DejaVuSans-77" transform="translate(435.15625 0)"/>
      <use xlink:href="#DejaVuSans-2d" transform="translate(516.943359 0)"/>
      <use xlink:href="#DejaVuSans-43" transform="translate(553.027344 0)"/>
      <use xlink:href="#DejaVuSans-50" transform="translate(622.851562 0)"/>
      <use xlink:href="#DejaVuSans-29" transform="translate(683.154297 0)"/>
     </g>
    </g>
    <g id="line2d_37">
     <path d="M 527.984375 54.656563 
L 537.984375 54.656563 
L 547.984375 54.656563 
" style="fill: none; stroke-dasharray: 5.55,2.4; stroke-dashoffset: 0; stroke: #1f77b4; stroke-width: 1.5"/>
    </g>
    <g id="text_21">
     <!-- major (Lw-CP) -->
     <g transform="translate(555.984375 58.156563) scale(0.1 -0.1)">
      <use xlink:href="#DejaVuSans-6d"/>
      <use xlink:href="#DejaVuSans-61" transform="translate(97.412109 0)"/>
      <use xlink:href="#DejaVuSans-6a" transform="translate(158.691406 0)"/>
      <use xlink:href="#DejaVuSans-6f" transform="translate(186.474609 0)"/>
      <use xlink:href="#DejaVuSans-72" transform="translate(247.65625 0)"/>
      <use xlink:href="#DejaVuSans-20" transform="translate(288.769531 0)"/>
      <use xlink:href="#DejaVuSans-28" transform="translate(320.556641 0)"/>
      <use xlink:href="#DejaVuSans-4c" transform="translate(359.570312 0)"/>
      <use xlink:href="#DejaVuSans-77" transform="translate(415.283203 0)"/>
      <use xlink:href="#DejaVuSans-2d" transform="translate(497.070312 0)"/>
      <use xlink:href="#DejaVuSans-43" transform="translate(533.154297 0)"/>
      <use xlink:href="#DejaVuSans-50" transform="translate(602.978516 0)"/>
      <use xlink:href="#DejaVuSans-29" transform="translate(663.28125 0)"/>
     </g>
    </g>
    <g id="line2d_38">
     <path d="M 527.984375 69.334687 
L 537.984375 69.334687 
L 547.984375 69.334687 
" style="fill: none; stroke-dasharray: 1.5,2.475; stroke-dashoffset: 0; stroke: #1f77b4; stroke-width: 1.5"/>
    </g>
    <g id="text_22">
     <!-- leaf (Lw-CP) -->
     <g transform="translate(555.984375 72.834687) scale(0.1 -0.1)">
      <use xlink:href="#DejaVuSans-6c"/>
      <use xlink:href="#DejaVuSans-65" transform="translate(27.783203 0)"/>
      <use xlink:href="#DejaVuSans-61" transform="translate(89.306641 0)"/>
      <use xlink:href="#DejaVuSans-66" transform="translate(150.585938 0)"/>
      <use xlink:href="#DejaVuSans-20" transform="translate(185.791016 0)"/>
      <use xlink:href="#DejaVuSans-28" transform="translate(217.578125 0)"/>
      <use xlink:href="#DejaVuSans-4c" transform="translate(256.591797 0)"/>
      <use xlink:href="#DejaVuSans-77" transform="translate(312.304688 0)"/>
      <use xlink:href="#DejaVuSans-2d" transform="translate(394.091797 0)"/>
      <use xlink:href="#DejaVuSans-43" transform="translate(430.175781 0)"/>
      <use xlink:href="#DejaVuSans-50" transform="translate(500 0)"/>
      <use xlink:href="#DejaVuSans-29" transform="translate(560.302734 0)"/>
     </g>
    </g>
   </g>
  </g>
 </g>
 <defs>
  <clipPath id="p6a26a698d1">
   <rect x="54.02" y="26.88" width="583.18" height="291.16"/>
  </clipPath>
 </defs>
</svg>
