<?xml version="1.0" encoding="utf-8" standalone="no"?>
<!DOCTYPE svg PUBLIC "-//W3C//DTD SVG 1.1//EN"
  "http://www.w3.org/Graphics/SVG/1.1/DTD/svg11.dtd">
<svg xmlns:xlink="http://www.w3.org/1999/xlink" width="648pt" height="360pt" viewBox="0 0 648 360" xmlns="http://www.w3.org/2000/svg" version="1.1">
 <metadata>
  <rdf:RDF xmlns:dc="http://purl.org/dc/elements/1.1/" xmlns:cc="http://creativecommons.org/ns#" xmlns:rdf="http://www.w3.org/1999/02/22-rdf-syntax-ns#">
   <cc:Work>
    <dc:type rdf:resource="http://purl.org/dc/dcmitype/StillImage"/>
    <dc:date>2026-01-09T19:27:43.078092</dc:date>
    <dc:format>image/svg+xml</dc:format>
    <dc:creator>
     <cc:Agent>
      <dc:title>Matplotlib v3.10.7, https://matplotlib.org/</dc:title>
     </cc:Agent>
    </dc:creator>
   </cc:Work>
  </rdf:RDF>
 </metadata>
 <defs>
  <style type="text/css">*{stroke-linejoin: round; stroke-linecap: butt}</style>
 </defs>
 <g id="figure_1">
  <g id="patch_1">
   <path d="M 0 360 
L 648 360 
L 648 0 
L 0 0 
z
" style="fill: #ffffff"/>
  </g>
  <g id="axes_1">
   <g id="patch_2">
    <path d="M 47.72 318.04 
L 637.2 318.04 
L 637.2 26.88 
L 47.72 26.88 
z
" style="fill: #ffffff"/>
   </g>
   <g id="FillBetweenPolyCollection_1">
    <defs>
     <path id="ma63a5d1b29" d="M 74.514545 -56.886481 
L 74.514545 -55.523612 
L 85.232364 -207.959213 
L 95.950182 -244.569875 
L 106.668 -255.31408 
L 117.385818 -262.619479 
L 128.103636 -274.468641 
L 154.898182 -295.271239 
L 181.692727 -304.390538 
L 235.281818 -306.746692 
L 288.870909 -303.398208 
L 342.46 -289.184399 
L 396.049091 -269.97092 
L 449.638182 -249.229141 
L 503.227273 -222.320319 
L 556.816364 -202.534917 
L 610.405455 -187.869389 
L 610.405455 -191.548668 
L 610.405455 -191.548668 
L 556.816364 -206.445914 
L 503.227273 -226.675335 
L 449.638182 -252.427521 
L 396.049091 -272.032294 
L 342.46 -292.143233 
L 288.870909 -305.316584 
L 235.281818 -307.777599 
L 181.692727 -305.477733 
L 154.898182 -299.291949 
L 128.103636 -282.223346 
L 117.385818 -265.964633 
L 106.668 -258.187225 
L 95.950182 -248.330439 
L 85.232364 -219.834293 
L 74.514545 -56.886481 
z
" style="stroke: #2ca02c; stroke-opacity: 0.15"/>
    </defs>
    <g clip-path="url(#p83c815ac5e)">
     <use xlink:href="#ma63a5d1b29" x="0" y="360" style="fill: #2ca02c; fill-opacity: 0.15; stroke: #2ca02c; stroke-opacity: 0.15"/>
    </g>
   </g>
   <g id="FillBetweenPolyCollection_2">
    <defs>
     <path id="mc0e52cfd08" d="M 74.514545 -56.423269 
L 74.514545 -55.495121 
L 85.232364 -134.863523 
L 95.950182 -182.420011 
L 106.668 -199.931393 
L 117.385818 -208.854194 
L 128.103636 -220.376178 
L 154.898182 -242.759311 
L 181.692727 -257.521673 
L 235.281818 -277.889658 
L 288.870909 -281.844279 
L 342.46 -279.774917 
L 396.049091 -268.31682 
L 449.638182 -249.229141 
L 503.227273 -222.320319 
L 556.816364 -202.534917 
L 610.405455 -187.869389 
L 610.405455 -191.548668 
L 610.405455 -191.548668 
L 556.816364 -206.445914 
L 503.227273 -226.675335 
L 449.638182 -252.427521 
L 396.049091 -270.03062 
L 342.46 -282.182665 
L 288.870909 -283.440715 
L 235.281818 -279.757107 
L 181.692727 -259.461964 
L 154.898182 -246.790016 
L 128.103636 -228.026738 
L 117.385818 -212.180086 
L 106.668 -203.295507 
L 95.950182 -188.071623 
L 85.232364 -146.621527 
L 74.514545 -56.423269 
z
" style="stroke: #2ca02c; stroke-opacity: 0.15"/>
    </defs>
    <g clip-path="url(#p83c815ac5e)">
     <use xlink:href="#mc0e52cfd08" x="0" y="360" style="fill: #2ca02c; fill-opacity: 0.15; stroke: #2ca02c; stroke-opacity: 0.15"/>
    </g>
   </g>
   <g id="FillBetweenPolyCollection_3">
    <defs>
     <path id="mdea33b5993" d="M 74.514545 -56.32417 
L 74.514545 -55.486449 
L 85.232364 -128.144131 
L 95.950182 -172.654652 
L 106.668 -187.943977 
L 117.385818 -195.228505 
L 128.103636 -198.594943 
L 154.898182 -208.297676 
L 181.692727 -222.304401 
L 235.281818 -243.361207 
L 288.870909 -258.09885 
L 342.46 -271.382935 
L 396.049091 -266.78829 
L 449.638182 -249.229141 
L 503.227273 -222.320319 
L 556.816364 -202.534917 
L 610.405455 -187.869389 
L 610.405455 -191.548668 
L 610.405455 -191.548668 
L 556.816364 -206.445914 
L 503.227273 -226.675335 
L 449.638182 -252.427521 
L 396.049091 -268.418652 
L 342.46 -273.626064 
L 288.870909 -262.852085 
L 235.281818 -245.728413 
L 181.692727 -224.190642 
L 154.898182 -210.877564 
L 128.103636 -200.760642 
L 117.385818 -197.507618 
L 106.668 -190.739894 
L 95.950182 -177.978598 
L 85.232364 -139.142166 
L 74.514545 -56.32417 
z
" style="stroke: #2ca02c; stroke-opacity: 0.15"/>
    </defs>
    <g clip-path="url(#p83c815ac5e)">
     <use xlink:href="#mdea33b5993" x="0" y="360" style="fill: #2ca02c; fill-opacity: 0.15; stroke: #2ca02c; stroke-opacity: 0.15"/>
    </g>
   </g>
   <g id="FillBetweenPolyCollection_4">
    <defs>
     <path id="mf49600fbf3" d="M 74.514545 -93.009266 
L 74.514545 -61.257849 
L 85.232364 -273.156328 
L 95.950182 -291.505971 
L 106.668 -311.906094 
L 117.385818 -318.30118 
L 128.103636 -316.971655 
L 154.898182 -306.034821 
L 181.692727 -297.688684 
L 235.281818 -283.034721 
L 288.870909 -268.171849 
L 342.46 -254.531765 
L 396.049091 -241.013183 
L 449.638182 -227.731411 
L 503.227273 -213.812769 
L 556.816364 -200.420243 
L 610.405455 -187.033761 
L 610.405455 -190.688595 
L 610.405455 -190.688595 
L 556.816364 -204.029179 
L 503.227273 -217.350247 
L 449.638182 -230.813713 
L 396.049091 -244.051884 
L 342.46 -257.62241 
L 288.870909 -271.377904 
L 235.281818 -286.424693 
L 181.692727 -300.43598 
L 154.898182 -308.625867 
L 128.103636 -319.345837 
L 117.385818 -319.885455 
L 106.668 -313.508062 
L 95.950182 -298.7464 
L 85.232364 -274.935916 
L 74.514545 -93.009266 
z
" style="stroke: #1f77b4; stroke-opacity: 0.15"/>
    </defs>
    <g clip-path="url(#p83c815ac5e)">
     <use xlink:href="#mf49600fbf3" x="0" y="360" style="fill: #1f77b4; fill-opacity: 0.15; stroke: #1f77b4; stroke-opacity: 0.15"/>
    </g>
   </g>
   <g id="FillBetweenPolyCollection_5">
    <defs>
     <path id="m5b8fa2cf2b" d="M 74.514545 -55.737071 
L 74.514545 -55.194545 
L 85.232364 -180.320668 
L 95.950182 -207.444906 
L 106.668 -221.797914 
L 117.385818 -231.412023 
L 128.103636 -245.040799 
L 154.898182 -265.267258 
L 181.692727 -278.923225 
L 235.281818 -301.919835 
L 288.870909 -285.066467 
L 342.46 -262.899035 
L 396.049091 -244.669566 
L 449.638182 -228.722611 
L 503.227273 -214.720687 
L 556.816364 -200.500492 
L 610.405455 -186.924854 
L 610.405455 -190.827813 
L 610.405455 -190.827813 
L 556.816364 -205.008111 
L 503.227273 -218.3923 
L 449.638182 -235.241344 
L 396.049091 -249.163637 
L 342.46 -267.210703 
L 288.870909 -289.316708 
L 235.281818 -303.317676 
L 181.692727 -281.971808 
L 154.898182 -268.353438 
L 128.103636 -250.282666 
L 117.385818 -234.707341 
L 106.668 -225.195567 
L 95.950182 -212.5504 
L 85.232364 -191.509677 
L 74.514545 -55.737071 
z
" style="stroke: #1f77b4; stroke-opacity: 0.15"/>
    </defs>
    <g clip-path="url(#p83c815ac5e)">
     <use xlink:href="#m5b8fa2cf2b" x="0" y="360" style="fill: #1f77b4; fill-opacity: 0.15; stroke: #1f77b4; stroke-opacity: 0.15"/>
    </g>
   </g>
   <g id="FillBetweenPolyCollection_6">
    <defs>
     <path id="m6d9e0435b7" d="M 74.514545 -56.32417 
L 74.514545 -55.486449 
L 85.232364 -128.144131 
L 95.950182 -172.654652 
L 106.668 -187.943977 
L 117.385818 -195.228505 
L 128.103636 -198.594943 
L 154.898182 -208.297676 
L 181.692727 -222.304401 
L 235.281818 -243.361207 
L 288.870909 -258.09885 
L 342.46 -271.382935 
L 396.049091 -266.78829 
L 449.638182 -249.229141 
L 503.227273 -222.320319 
L 556.816364 -202.534917 
L 610.405455 -187.869389 
L 610.405455 -191.548668 
L 610.405455 -191.548668 
L 556.816364 -206.445914 
L 503.227273 -226.675335 
L 449.638182 -252.427521 
L 396.049091 -268.418652 
L 342.46 -273.626064 
L 288.870909 -262.852085 
L 235.281818 -245.728413 
L 181.692727 -224.190642 
L 154.898182 -210.877564 
L 128.103636 -200.760642 
L 117.385818 -197.507618 
L 106.668 -190.739894 
L 95.950182 -177.978598 
L 85.232364 -139.142166 
L 74.514545 -56.32417 
z
" style="stroke: #1f77b4; stroke-opacity: 0.15"/>
    </defs>
    <g clip-path="url(#p83c815ac5e)">
     <use xlink:href="#m6d9e0435b7" x="0" y="360" style="fill: #1f77b4; fill-opacity: 0.15; stroke: #1f77b4; stroke-opacity: 0.15"/>
    </g>
   </g>
   <g id="matplotlib.axis_1">
    <g id="xtick_1">
     <g id="line2d_1">
      <path d="M 74.514545 318.04 
L 74.514545 26.88 
" clip-path="url(#p83c815ac5e)" style="fill: none; stroke-dasharray: 0.5,0.825; stroke-dashoffset: 0; stroke: #b0b0b0; stroke-width: 0.5"/>
     </g>
     <g id="line2d_2">
      <defs>
       <path id="me492f8590e" d="M 0 0 
L 0 3.5 
" style="stroke: #000000; stroke-width: 0.8"/>
      </defs>
      <g>
       <use xlink:href="#me492f8590e" x="74.514545" y="318.04" style="stroke: #000000; stroke-width: 0.8"/>
      </g>
     </g>
     <g id="text_1">
      <!-- 0.0 -->
      <g transform="translate(66.562983 332.638438) scale(0.1 -0.1)">
       <defs>
        <path id="DejaVuSans-30" d="M 2034 4250 
Q 1547 4250 1301 3770 
Q 1056 3291 1056 2328 
Q 1056 1369 1301 889 
Q 1547 409 2034 409 
Q 2525 409 2770 889 
Q 3016 1369 3016 2328 
Q 3016 3291 2770 3770 
Q 2525 4250 2034 4250 
z
M 2034 4750 
Q 2819 4750 3233 4129 
Q 3647 3509 3647 2328 
Q 3647 1150 3233 529 
Q 2819 -91 2034 -91 
Q 1250 -91 836 529 
Q 422 1150 422 2328 
Q 422 3509 836 4129 
Q 1250 4750 2034 4750 
z
" transform="scale(0.015625)"/>
        <path id="DejaVuSans-2e" d="M 684 794 
L 1344 794 
L 1344 0 
L 684 0 
L 684 794 
z
" transform="scale(0.015625)"/>
       </defs>
       <use xlink:href="#DejaVuSans-30"/>
       <use xlink:href="#DejaVuSans-2e" transform="translate(63.623047 0)"/>
       <use xlink:href="#DejaVuSans-30" transform="translate(95.410156 0)"/>
      </g>
     </g>
    </g>
    <g id="xtick_2">
     <g id="line2d_3">
      <path d="M 181.692727 318.04 
L 181.692727 26.88 
" clip-path="url(#p83c815ac5e)" style="fill: none; stroke-dasharray: 0.5,0.825; stroke-dashoffset: 0; stroke: #b0b0b0; stroke-width: 0.5"/>
     </g>
     <g id="line2d_4">
      <g>
       <use xlink:href="#me492f8590e" x="181.692727" y="318.04" style="stroke: #000000; stroke-width: 0.8"/>
      </g>
     </g>
     <g id="text_2">
      <!-- 0.1 -->
      <g transform="translate(173.741165 332.638438) scale(0.1 -0.1)">
       <defs>
        <path id="DejaVuSans-31" d="M 794 531 
L 1825 531 
L 1825 4091 
L 703 3866 
L 703 4441 
L 1819 4666 
L 2450 4666 
L 2450 531 
L 3481 531 
L 3481 0 
L 794 0 
L 794 531 
z
" transform="scale(0.015625)"/>
       </defs>
       <use xlink:href="#DejaVuSans-30"/>
       <use xlink:href="#DejaVuSans-2e" transform="translate(63.623047 0)"/>
       <use xlink:href="#DejaVuSans-31" transform="translate(95.410156 0)"/>
      </g>
     </g>
    </g>
    <g id="xtick_3">
     <g id="line2d_5">
      <path d="M 288.870909 318.04 
L 288.870909 26.88 
" clip-path="url(#p83c815ac5e)" style="fill: none; stroke-dasharray: 0.5,0.825; stroke-dashoffset: 0; stroke: #b0b0b0; stroke-width: 0.5"/>
     </g>
     <g id="line2d_6">
      <g>
       <use xlink:href="#me492f8590e" x="288.870909" y="318.04" style="stroke: #000000; stroke-width: 0.8"/>
      </g>
     </g>
     <g id="text_3">
      <!-- 0.2 -->
      <g transform="translate(280.919347 332.638438) scale(0.1 -0.1)">
       <defs>
        <path id="DejaVuSans-32" d="M 1228 531 
L 3431 531 
L 3431 0 
L 469 0 
L 469 531 
Q 828 903 1448 1529 
Q 2069 2156 2228 2338 
Q 2531 2678 2651 2914 
Q 2772 3150 2772 3378 
Q 2772 3750 2511 3984 
Q 2250 4219 1831 4219 
Q 1534 4219 1204 4116 
Q 875 4013 500 3803 
L 500 4441 
Q 881 4594 1212 4672 
Q 1544 4750 1819 4750 
Q 2544 4750 2975 4387 
Q 3406 4025 3406 3419 
Q 3406 3131 3298 2873 
Q 3191 2616 2906 2266 
Q 2828 2175 2409 1742 
Q 1991 1309 1228 531 
z
" transform="scale(0.015625)"/>
       </defs>
       <use xlink:href="#DejaVuSans-30"/>
       <use xlink:href="#DejaVuSans-2e" transform="translate(63.623047 0)"/>
       <use xlink:href="#DejaVuSans-32" transform="translate(95.410156 0)"/>
      </g>
     </g>
    </g>
    <g id="xtick_4">
     <g id="line2d_7">
      <path d="M 396.049091 318.04 
L 396.049091 26.88 
" clip-path="url(#p83c815ac5e)" style="fill: none; stroke-dasharray: 0.5,0.825; stroke-dashoffset: 0; stroke: #b0b0b0; stroke-width: 0.5"/>
     </g>
     <g id="line2d_8">
      <g>
       <use xlink:href="#me492f8590e" x="396.049091" y="318.04" style="stroke: #000000; stroke-width: 0.8"/>
      </g>
     </g>
     <g id="text_4">
      <!-- 0.3 -->
      <g transform="translate(388.097528 332.638438) scale(0.1 -0.1)">
       <defs>
        <path id="DejaVuSans-33" d="M 2597 2516 
Q 3050 2419 3304 2112 
Q 3559 1806 3559 1356 
Q 3559 666 3084 287 
Q 2609 -91 1734 -91 
Q 1441 -91 1130 -33 
Q 819 25 488 141 
L 488 750 
Q 750 597 1062 519 
Q 1375 441 1716 441 
Q 2309 441 2620 675 
Q 2931 909 2931 1356 
Q 2931 1769 2642 2001 
Q 2353 2234 1838 2234 
L 1294 2234 
L 1294 2753 
L 1863 2753 
Q 2328 2753 2575 2939 
Q 2822 3125 2822 3475 
Q 2822 3834 2567 4026 
Q 2313 4219 1838 4219 
Q 1578 4219 1281 4162 
Q 984 4106 628 3988 
L 628 4550 
Q 988 4650 1302 4700 
Q 1616 4750 1894 4750 
Q 2613 4750 3031 4423 
Q 3450 4097 3450 3541 
Q 3450 3153 3228 2886 
Q 3006 2619 2597 2516 
z
" transform="scale(0.015625)"/>
       </defs>
       <use xlink:href="#DejaVuSans-30"/>
       <use xlink:href="#DejaVuSans-2e" transform="translate(63.623047 0)"/>
       <use xlink:href="#DejaVuSans-33" transform="translate(95.410156 0)"/>
      </g>
     </g>
    </g>
    <g id="xtick_5">
     <g id="line2d_9">
      <path d="M 503.227273 318.04 
L 503.227273 26.88 
" clip-path="url(#p83c815ac5e)" style="fill: none; stroke-dasharray: 0.5,0.825; stroke-dashoffset: 0; stroke: #b0b0b0; stroke-width: 0.5"/>
     </g>
     <g id="line2d_10">
      <g>
       <use xlink:href="#me492f8590e" x="503.227273" y="318.04" style="stroke: #000000; stroke-width: 0.8"/>
      </g>
     </g>
     <g id="text_5">
      <!-- 0.4 -->
      <g transform="translate(495.27571 332.638438) scale(0.1 -0.1)">
       <defs>
        <path id="DejaVuSans-34" d="M 2419 4116 
L 825 1625 
L 2419 1625 
L 2419 4116 
z
M 2253 4666 
L 3047 4666 
L 3047 1625 
L 3713 1625 
L 3713 1100 
L 3047 1100 
L 3047 0 
L 2419 0 
L 2419 1100 
L 313 1100 
L 313 1709 
L 2253 4666 
z
" transform="scale(0.015625)"/>
       </defs>
       <use xlink:href="#DejaVuSans-30"/>
       <use xlink:href="#DejaVuSans-2e" transform="translate(63.623047 0)"/>
       <use xlink:href="#DejaVuSans-34" transform="translate(95.410156 0)"/>
      </g>
     </g>
    </g>
    <g id="xtick_6">
     <g id="line2d_11">
      <path d="M 610.405455 318.04 
L 610.405455 26.88 
" clip-path="url(#p83c815ac5e)" style="fill: none; stroke-dasharray: 0.5,0.825; stroke-dashoffset: 0; stroke: #b0b0b0; stroke-width: 0.5"/>
     </g>
     <g id="line2d_12">
      <g>
       <use xlink:href="#me492f8590e" x="610.405455" y="318.04" style="stroke: #000000; stroke-width: 0.8"/>
      </g>
     </g>
     <g id="text_6">
      <!-- 0.5 -->
      <g transform="translate(602.453892 332.638438) scale(0.1 -0.1)">
       <defs>
        <path id="DejaVuSans-35" d="M 691 4666 
L 3169 4666 
L 3169 4134 
L 1269 4134 
L 1269 2991 
Q 1406 3038 1543 3061 
Q 1681 3084 1819 3084 
Q 2600 3084 3056 2656 
Q 3513 2228 3513 1497 
Q 3513 744 3044 326 
Q 2575 -91 1722 -91 
Q 1428 -91 1123 -41 
Q 819 9 494 109 
L 494 744 
Q 775 591 1075 516 
Q 1375 441 1709 441 
Q 2250 441 2565 725 
Q 2881 1009 2881 1497 
Q 2881 1984 2565 2268 
Q 2250 2553 1709 2553 
Q 1456 2553 1204 2497 
Q 953 2441 691 2322 
L 691 4666 
z
" transform="scale(0.015625)"/>
       </defs>
       <use xlink:href="#DejaVuSans-30"/>
       <use xlink:href="#DejaVuSans-2e" transform="translate(63.623047 0)"/>
       <use xlink:href="#DejaVuSans-35" transform="translate(95.410156 0)"/>
      </g>
     </g>
    </g>
    <g id="text_7">
     <!-- alpha -->
     <g transform="translate(328.599844 346.316563) scale(0.1 -0.1)">
      <defs>
       <path id="DejaVuSans-61" d="M 2194 1759 
Q 1497 1759 1228 1600 
Q 959 1441 959 1056 
Q 959 750 1161 570 
Q 1363 391 1709 391 
Q 2188 391 2477 730 
Q 2766 1069 2766 1631 
L 2766 1759 
L 2194 1759 
z
M 3341 1997 
L 3341 0 
L 2766 0 
L 2766 531 
Q 2569 213 2275 61 
Q 1981 -91 1556 -91 
Q 1019 -91 701 211 
Q 384 513 384 1019 
Q 384 1609 779 1909 
Q 1175 2209 1959 2209 
L 2766 2209 
L 2766 2266 
Q 2766 2663 2505 2880 
Q 2244 3097 1772 3097 
Q 1472 3097 1187 3025 
Q 903 2953 641 2809 
L 641 3341 
Q 956 3463 1253 3523 
Q 1550 3584 1831 3584 
Q 2591 3584 2966 3190 
Q 3341 2797 3341 1997 
z
" transform="scale(0.015625)"/>
       <path id="DejaVuSans-6c" d="M 603 4863 
L 1178 4863 
L 1178 0 
L 603 0 
L 603 4863 
z
" transform="scale(0.015625)"/>
       <path id="DejaVuSans-70" d="M 1159 525 
L 1159 -1331 
L 581 -1331 
L 581 3500 
L 1159 3500 
L 1159 2969 
Q 1341 3281 1617 3432 
Q 1894 3584 2278 3584 
Q 2916 3584 3314 3078 
Q 3713 2572 3713 1747 
Q 3713 922 3314 415 
Q 2916 -91 2278 -91 
Q 1894 -91 1617 61 
Q 1341 213 1159 525 
z
M 3116 1747 
Q 3116 2381 2855 2742 
Q 2594 3103 2138 3103 
Q 1681 3103 1420 2742 
Q 1159 2381 1159 1747 
Q 1159 1113 1420 752 
Q 1681 391 2138 391 
Q 2594 391 2855 752 
Q 3116 1113 3116 1747 
z
" transform="scale(0.015625)"/>
       <path id="DejaVuSans-68" d="M 3513 2113 
L 3513 0 
L 2938 0 
L 2938 2094 
Q 2938 2591 2744 2837 
Q 2550 3084 2163 3084 
Q 1697 3084 1428 2787 
Q 1159 2491 1159 1978 
L 1159 0 
L 581 0 
L 581 4863 
L 1159 4863 
L 1159 2956 
Q 1366 3272 1645 3428 
Q 1925 3584 2291 3584 
Q 2894 3584 3203 3211 
Q 3513 2838 3513 2113 
z
" transform="scale(0.015625)"/>
      </defs>
      <use xlink:href="#DejaVuSans-61"/>
      <use xlink:href="#DejaVuSans-6c" transform="translate(61.279297 0)"/>
      <use xlink:href="#DejaVuSans-70" transform="translate(89.0625 0)"/>
      <use xlink:href="#DejaVuSans-68" transform="translate(152.539062 0)"/>
      <use xlink:href="#DejaVuSans-61" transform="translate(215.917969 0)"/>
     </g>
    </g>
   </g>
   <g id="matplotlib.axis_2">
    <g id="ytick_1">
     <g id="line2d_13">
      <path d="M 47.72 304.639436 
L 637.2 304.639436 
" clip-path="url(#p83c815ac5e)" style="fill: none; stroke-dasharray: 0.5,0.825; stroke-dashoffset: 0; stroke: #b0b0b0; stroke-width: 0.5"/>
     </g>
     <g id="line2d_14">
      <defs>
       <path id="m27e4fbe30b" d="M 0 0 
L -3.5 0 
" style="stroke: #000000; stroke-width: 0.8"/>
      </defs>
      <g>
       <use xlink:href="#m27e4fbe30b" x="47.72" y="304.639436" style="stroke: #000000; stroke-width: 0.8"/>
      </g>
     </g>
     <g id="text_8">
      <!-- 0.0 -->
      <g transform="translate(24.816875 308.438655) scale(0.1 -0.1)">
       <use xlink:href="#DejaVuSans-30"/>
       <use xlink:href="#DejaVuSans-2e" transform="translate(63.623047 0)"/>
       <use xlink:href="#DejaVuSans-30" transform="translate(95.410156 0)"/>
      </g>
     </g>
    </g>
    <g id="ytick_2">
     <g id="line2d_15">
      <path d="M 47.72 251.343593 
L 637.2 251.343593 
" clip-path="url(#p83c815ac5e)" style="fill: none; stroke-dasharray: 0.5,0.825; stroke-dashoffset: 0; stroke: #b0b0b0; stroke-width: 0.5"/>
     </g>
     <g id="line2d_16">
      <g>
       <use xlink:href="#m27e4fbe30b" x="47.72" y="251.343593" style="stroke: #000000; stroke-width: 0.8"/>
      </g>
     </g>
     <g id="text_9">
      <!-- 0.2 -->
      <g transform="translate(24.816875 255.142812) scale(0.1 -0.1)">
       <use xlink:href="#DejaVuSans-30"/>
       <use xlink:href="#DejaVuSans-2e" transform="translate(63.623047 0)"/>
       <use xlink:href="#DejaVuSans-32" transform="translate(95.410156 0)"/>
      </g>
     </g>
    </g>
    <g id="ytick_3">
     <g id="line2d_17">
      <path d="M 47.72 198.04775 
L 637.2 198.04775 
" clip-path="url(#p83c815ac5e)" style="fill: none; stroke-dasharray: 0.5,0.825; stroke-dashoffset: 0; stroke: #b0b0b0; stroke-width: 0.5"/>
     </g>
     <g id="line2d_18">
      <g>
       <use xlink:href="#m27e4fbe30b" x="47.72" y="198.04775" style="stroke: #000000; stroke-width: 0.8"/>
      </g>
     </g>
     <g id="text_10">
      <!-- 0.4 -->
      <g transform="translate(24.816875 201.846969) scale(0.1 -0.1)">
       <use xlink:href="#DejaVuSans-30"/>
       <use xlink:href="#DejaVuSans-2e" transform="translate(63.623047 0)"/>
       <use xlink:href="#DejaVuSans-34" transform="translate(95.410156 0)"/>
      </g>
     </g>
    </g>
    <g id="ytick_4">
     <g id="line2d_19">
      <path d="M 47.72 144.751907 
L 637.2 144.751907 
" clip-path="url(#p83c815ac5e)" style="fill: none; stroke-dasharray: 0.5,0.825; stroke-dashoffset: 0; stroke: #b0b0b0; stroke-width: 0.5"/>
     </g>
     <g id="line2d_20">
      <g>
       <use xlink:href="#m27e4fbe30b" x="47.72" y="144.751907" style="stroke: #000000; stroke-width: 0.8"/>
      </g>
     </g>
     <g id="text_11">
      <!-- 0.6 -->
      <g transform="translate(24.816875 148.551126) scale(0.1 -0.1)">
       <defs>
        <path id="DejaVuSans-36" d="M 2113 2584 
Q 1688 2584 1439 2293 
Q 1191 2003 1191 1497 
Q 1191 994 1439 701 
Q 1688 409 2113 409 
Q 2538 409 2786 701 
Q 3034 994 3034 1497 
Q 3034 2003 2786 2293 
Q 2538 2584 2113 2584 
z
M 3366 4563 
L 3366 3988 
Q 3128 4100 2886 4159 
Q 2644 4219 2406 4219 
Q 1781 4219 1451 3797 
Q 1122 3375 1075 2522 
Q 1259 2794 1537 2939 
Q 1816 3084 2150 3084 
Q 2853 3084 3261 2657 
Q 3669 2231 3669 1497 
Q 3669 778 3244 343 
Q 2819 -91 2113 -91 
Q 1303 -91 875 529 
Q 447 1150 447 2328 
Q 447 3434 972 4092 
Q 1497 4750 2381 4750 
Q 2619 4750 2861 4703 
Q 3103 4656 3366 4563 
z
" transform="scale(0.015625)"/>
       </defs>
       <use xlink:href="#DejaVuSans-30"/>
       <use xlink:href="#DejaVuSans-2e" transform="translate(63.623047 0)"/>
       <use xlink:href="#DejaVuSans-36" transform="translate(95.410156 0)"/>
      </g>
     </g>
    </g>
    <g id="ytick_5">
     <g id="line2d_21">
      <path d="M 47.72 91.456064 
L 637.2 91.456064 
" clip-path="url(#p83c815ac5e)" style="fill: none; stroke-dasharray: 0.5,0.825; stroke-dashoffset: 0; stroke: #b0b0b0; stroke-width: 0.5"/>
     </g>
     <g id="line2d_22">
      <g>
       <use xlink:href="#m27e4fbe30b" x="47.72" y="91.456064" style="stroke: #000000; stroke-width: 0.8"/>
      </g>
     </g>
     <g id="text_12">
      <!-- 0.8 -->
      <g transform="translate(24.816875 95.255282) scale(0.1 -0.1)">
       <defs>
        <path id="DejaVuSans-38" d="M 2034 2216 
Q 1584 2216 1326 1975 
Q 1069 1734 1069 1313 
Q 1069 891 1326 650 
Q 1584 409 2034 409 
Q 2484 409 2743 651 
Q 3003 894 3003 1313 
Q 3003 1734 2745 1975 
Q 2488 2216 2034 2216 
z
M 1403 2484 
Q 997 2584 770 2862 
Q 544 3141 544 3541 
Q 544 4100 942 4425 
Q 1341 4750 2034 4750 
Q 2731 4750 3128 4425 
Q 3525 4100 3525 3541 
Q 3525 3141 3298 2862 
Q 3072 2584 2669 2484 
Q 3125 2378 3379 2068 
Q 3634 1759 3634 1313 
Q 3634 634 3220 271 
Q 2806 -91 2034 -91 
Q 1263 -91 848 271 
Q 434 634 434 1313 
Q 434 1759 690 2068 
Q 947 2378 1403 2484 
z
M 1172 3481 
Q 1172 3119 1398 2916 
Q 1625 2713 2034 2713 
Q 2441 2713 2670 2916 
Q 2900 3119 2900 3481 
Q 2900 3844 2670 4047 
Q 2441 4250 2034 4250 
Q 1625 4250 1398 4047 
Q 1172 3844 1172 3481 
z
" transform="scale(0.015625)"/>
       </defs>
       <use xlink:href="#DejaVuSans-30"/>
       <use xlink:href="#DejaVuSans-2e" transform="translate(63.623047 0)"/>
       <use xlink:href="#DejaVuSans-38" transform="translate(95.410156 0)"/>
      </g>
     </g>
    </g>
    <g id="ytick_6">
     <g id="line2d_23">
      <path d="M 47.72 38.160221 
L 637.2 38.160221 
" clip-path="url(#p83c815ac5e)" style="fill: none; stroke-dasharray: 0.5,0.825; stroke-dashoffset: 0; stroke: #b0b0b0; stroke-width: 0.5"/>
     </g>
     <g id="line2d_24">
      <g>
       <use xlink:href="#m27e4fbe30b" x="47.72" y="38.160221" style="stroke: #000000; stroke-width: 0.8"/>
      </g>
     </g>
     <g id="text_13">
      <!-- 1.0 -->
      <g transform="translate(24.816875 41.959439) scale(0.1 -0.1)">
       <use xlink:href="#DejaVuSans-31"/>
       <use xlink:href="#DejaVuSans-2e" transform="translate(63.623047 0)"/>
       <use xlink:href="#DejaVuSans-30" transform="translate(95.410156 0)"/>
      </g>
     </g>
    </g>
    <g id="text_14">
     <!-- Singleton Rate -->
     <g transform="translate(18.737188 209.071719) rotate(-90) scale(0.1 -0.1)">
      <defs>
       <path id="DejaVuSans-53" d="M 3425 4513 
L 3425 3897 
Q 3066 4069 2747 4153 
Q 2428 4238 2131 4238 
Q 1616 4238 1336 4038 
Q 1056 3838 1056 3469 
Q 1056 3159 1242 3001 
Q 1428 2844 1947 2747 
L 2328 2669 
Q 3034 2534 3370 2195 
Q 3706 1856 3706 1288 
Q 3706 609 3251 259 
Q 2797 -91 1919 -91 
Q 1588 -91 1214 -16 
Q 841 59 441 206 
L 441 856 
Q 825 641 1194 531 
Q 1563 422 1919 422 
Q 2459 422 2753 634 
Q 3047 847 3047 1241 
Q 3047 1584 2836 1778 
Q 2625 1972 2144 2069 
L 1759 2144 
Q 1053 2284 737 2584 
Q 422 2884 422 3419 
Q 422 4038 858 4394 
Q 1294 4750 2059 4750 
Q 2388 4750 2728 4690 
Q 3069 4631 3425 4513 
z
" transform="scale(0.015625)"/>
       <path id="DejaVuSans-69" d="M 603 3500 
L 1178 3500 
L 1178 0 
L 603 0 
L 603 3500 
z
M 603 4863 
L 1178 4863 
L 1178 4134 
L 603 4134 
L 603 4863 
z
" transform="scale(0.015625)"/>
       <path id="DejaVuSans-6e" d="M 3513 2113 
L 3513 0 
L 2938 0 
L 2938 2094 
Q 2938 2591 2744 2837 
Q 2550 3084 2163 3084 
Q 1697 3084 1428 2787 
Q 1159 2491 1159 1978 
L 1159 0 
L 581 0 
L 581 3500 
L 1159 3500 
L 1159 2956 
Q 1366 3272 1645 3428 
Q 1925 3584 2291 3584 
Q 2894 3584 3203 3211 
Q 3513 2838 3513 2113 
z
" transform="scale(0.015625)"/>
       <path id="DejaVuSans-67" d="M 2906 1791 
Q 2906 2416 2648 2759 
Q 2391 3103 1925 3103 
Q 1463 3103 1205 2759 
Q 947 2416 947 1791 
Q 947 1169 1205 825 
Q 1463 481 1925 481 
Q 2391 481 2648 825 
Q 2906 1169 2906 1791 
z
M 3481 434 
Q 3481 -459 3084 -895 
Q 2688 -1331 1869 -1331 
Q 1566 -1331 1297 -1286 
Q 1028 -1241 775 -1147 
L 775 -588 
Q 1028 -725 1275 -790 
Q 1522 -856 1778 -856 
Q 2344 -856 2625 -561 
Q 2906 -266 2906 331 
L 2906 616 
Q 2728 306 2450 153 
Q 2172 0 1784 0 
Q 1141 0 747 490 
Q 353 981 353 1791 
Q 353 2603 747 3093 
Q 1141 3584 1784 3584 
Q 2172 3584 2450 3431 
Q 2728 3278 2906 2969 
L 2906 3500 
L 3481 3500 
L 3481 434 
z
" transform="scale(0.015625)"/>
       <path id="DejaVuSans-65" d="M 3597 1894 
L 3597 1613 
L 953 1613 
Q 991 1019 1311 708 
Q 1631 397 2203 397 
Q 2534 397 2845 478 
Q 3156 559 3463 722 
L 3463 178 
Q 3153 47 2828 -22 
Q 2503 -91 2169 -91 
Q 1331 -91 842 396 
Q 353 884 353 1716 
Q 353 2575 817 3079 
Q 1281 3584 2069 3584 
Q 2775 3584 3186 3129 
Q 3597 2675 3597 1894 
z
M 3022 2063 
Q 3016 2534 2758 2815 
Q 2500 3097 2075 3097 
Q 1594 3097 1305 2825 
Q 1016 2553 972 2059 
L 3022 2063 
z
" transform="scale(0.015625)"/>
       <path id="DejaVuSans-74" d="M 1172 4494 
L 1172 3500 
L 2356 3500 
L 2356 3053 
L 1172 3053 
L 1172 1153 
Q 1172 725 1289 603 
Q 1406 481 1766 481 
L 2356 481 
L 2356 0 
L 1766 0 
Q 1100 0 847 248 
Q 594 497 594 1153 
L 594 3053 
L 172 3053 
L 172 3500 
L 594 3500 
L 594 4494 
L 1172 4494 
z
" transform="scale(0.015625)"/>
       <path id="DejaVuSans-6f" d="M 1959 3097 
Q 1497 3097 1228 2736 
Q 959 2375 959 1747 
Q 959 1119 1226 758 
Q 1494 397 1959 397 
Q 2419 397 2687 759 
Q 2956 1122 2956 1747 
Q 2956 2369 2687 2733 
Q 2419 3097 1959 3097 
z
M 1959 3584 
Q 2709 3584 3137 3096 
Q 3566 2609 3566 1747 
Q 3566 888 3137 398 
Q 2709 -91 1959 -91 
Q 1206 -91 779 398 
Q 353 888 353 1747 
Q 353 2609 779 3096 
Q 1206 3584 1959 3584 
z
" transform="scale(0.015625)"/>
       <path id="DejaVuSans-20" transform="scale(0.015625)"/>
       <path id="DejaVuSans-52" d="M 2841 2188 
Q 3044 2119 3236 1894 
Q 3428 1669 3622 1275 
L 4263 0 
L 3584 0 
L 2988 1197 
Q 2756 1666 2539 1819 
Q 2322 1972 1947 1972 
L 1259 1972 
L 1259 0 
L 628 0 
L 628 4666 
L 2053 4666 
Q 2853 4666 3247 4331 
Q 3641 3997 3641 3322 
Q 3641 2881 3436 2590 
Q 3231 2300 2841 2188 
z
M 1259 4147 
L 1259 2491 
L 2053 2491 
Q 2509 2491 2742 2702 
Q 2975 2913 2975 3322 
Q 2975 3731 2742 3939 
Q 2509 4147 2053 4147 
L 1259 4147 
z
" transform="scale(0.015625)"/>
      </defs>
      <use xlink:href="#DejaVuSans-53"/>
      <use xlink:href="#DejaVuSans-69" transform="translate(63.476562 0)"/>
      <use xlink:href="#DejaVuSans-6e" transform="translate(91.259766 0)"/>
      <use xlink:href="#DejaVuSans-67" transform="translate(154.638672 0)"/>
      <use xlink:href="#DejaVuSans-6c" transform="translate(218.115234 0)"/>
      <use xlink:href="#DejaVuSans-65" transform="translate(245.898438 0)"/>
      <use xlink:href="#DejaVuSans-74" transform="translate(307.421875 0)"/>
      <use xlink:href="#DejaVuSans-6f" transform="translate(346.630859 0)"/>
      <use xlink:href="#DejaVuSans-6e" transform="translate(407.8125 0)"/>
      <use xlink:href="#DejaVuSans-20" transform="translate(471.191406 0)"/>
      <use xlink:href="#DejaVuSans-52" transform="translate(502.978516 0)"/>
      <use xlink:href="#DejaVuSans-61" transform="translate(570.210938 0)"/>
      <use xlink:href="#DejaVuSans-74" transform="translate(631.490234 0)"/>
      <use xlink:href="#DejaVuSans-65" transform="translate(670.699219 0)"/>
     </g>
    </g>
   </g>
   <g id="line2d_25">
    <path d="M 74.514545 303.794954 
L 85.232364 146.103247 
L 95.950182 113.549843 
L 106.668 103.249348 
L 117.385818 95.707944 
L 128.103636 81.654007 
L 154.898182 62.718406 
L 181.692727 55.065864 
L 235.281818 52.737854 
L 288.870909 55.642604 
L 342.46 69.336184 
L 396.049091 88.998393 
L 449.638182 109.171669 
L 503.227273 135.502173 
L 556.816364 155.509584 
L 610.405455 170.290972 
" clip-path="url(#p83c815ac5e)" style="fill: none; stroke: #2ca02c; stroke-width: 1.5; stroke-linecap: square"/>
   </g>
   <g id="line2d_26">
    <path d="M 74.514545 304.040805 
L 85.232364 219.257475 
L 95.950182 174.754183 
L 106.668 158.38655 
L 117.385818 149.48286 
L 128.103636 135.798542 
L 154.898182 115.225336 
L 181.692727 101.508182 
L 235.281818 81.176617 
L 288.870909 77.357503 
L 342.46 79.021209 
L 396.049091 90.82628 
L 449.638182 109.171669 
L 503.227273 135.502173 
L 556.816364 155.509584 
L 610.405455 170.290972 
" clip-path="url(#p83c815ac5e)" style="fill: none; stroke-dasharray: 5.55,2.4; stroke-dashoffset: 0; stroke: #2ca02c; stroke-width: 1.5"/>
   </g>
   <g id="line2d_27">
    <path d="M 74.514545 304.09469 
L 85.232364 226.356852 
L 95.950182 184.683375 
L 106.668 170.658065 
L 117.385818 163.631938 
L 128.103636 160.322207 
L 154.898182 150.41238 
L 181.692727 136.752479 
L 235.281818 115.45519 
L 288.870909 99.524532 
L 342.46 87.495501 
L 396.049091 92.396529 
L 449.638182 109.171669 
L 503.227273 135.502173 
L 556.816364 155.509584 
L 610.405455 170.290972 
" clip-path="url(#p83c815ac5e)" style="fill: none; stroke-dasharray: 1.5,2.475; stroke-dashoffset: 0; stroke: #2ca02c; stroke-width: 1.5"/>
   </g>
   <g id="line2d_28">
    <path d="M 74.514545 282.866442 
L 85.232364 85.953878 
L 95.950182 64.873815 
L 106.668 47.292922 
L 117.385818 40.906682 
L 128.103636 41.841254 
L 154.898182 52.669656 
L 181.692727 60.937668 
L 235.281818 75.270293 
L 288.870909 90.225123 
L 342.46 103.922913 
L 396.049091 117.467466 
L 449.638182 130.727438 
L 503.227273 144.418492 
L 556.816364 157.775289 
L 610.405455 171.138822 
" clip-path="url(#p83c815ac5e)" style="fill: none; stroke: #1f77b4; stroke-width: 1.5; stroke-linecap: square"/>
   </g>
   <g id="line2d_29">
    <path d="M 74.514545 304.534192 
L 85.232364 174.084827 
L 95.950182 150.002347 
L 106.668 136.503259 
L 117.385818 126.940318 
L 128.103636 112.338267 
L 154.898182 93.189652 
L 181.692727 79.552483 
L 235.281818 57.381244 
L 288.870909 72.808412 
L 342.46 94.945131 
L 396.049091 113.083399 
L 449.638182 128.018022 
L 503.227273 143.443506 
L 556.816364 157.245699 
L 610.405455 171.123667 
" clip-path="url(#p83c815ac5e)" style="fill: none; stroke-dasharray: 5.55,2.4; stroke-dashoffset: 0; stroke: #1f77b4; stroke-width: 1.5"/>
   </g>
   <g id="line2d_30">
    <path d="M 74.514545 304.09469 
L 85.232364 226.356852 
L 95.950182 184.683375 
L 106.668 170.658065 
L 117.385818 163.631938 
L 128.103636 160.322207 
L 154.898182 150.41238 
L 181.692727 136.752479 
L 235.281818 115.45519 
L 288.870909 99.524532 
L 342.46 87.495501 
L 396.049091 92.396529 
L 449.638182 109.171669 
L 503.227273 135.502173 
L 556.816364 155.509584 
L 610.405455 170.290972 
" clip-path="url(#p83c815ac5e)" style="fill: none; stroke-dasharray: 1.5,2.475; stroke-dashoffset: 0; stroke: #1f77b4; stroke-width: 1.5"/>
   </g>
   <g id="patch_3">
    <path d="M 47.72 318.04 
L 47.72 26.88 
" style="fill: none; stroke: #000000; stroke-width: 0.8; stroke-linejoin: miter; stroke-linecap: square"/>
   </g>
   <g id="patch_4">
    <path d="M 637.2 318.04 
L 637.2 26.88 
" style="fill: none; stroke: #000000; stroke-width: 0.8; stroke-linejoin: miter; stroke-linecap: square"/>
   </g>
   <g id="patch_5">
    <path d="M 47.72 318.04 
L 637.2 318.04 
" style="fill: none; stroke: #000000; stroke-width: 0.8; stroke-linejoin: miter; stroke-linecap: square"/>
   </g>
   <g id="patch_6">
    <path d="M 47.72 26.88 
L 637.2 26.88 
" style="fill: none; stroke: #000000; stroke-width: 0.8; stroke-linejoin: miter; stroke-linecap: square"/>
   </g>
   <g id="text_15">
    <!-- Singleton Rate -->
    <g transform="translate(298.525937 20.88) scale(0.12 -0.12)">
     <use xlink:href="#DejaVuSans-53"/>
     <use xlink:href="#DejaVuSans-69" transform="translate(63.476562 0)"/>
     <use xlink:href="#DejaVuSans-6e" transform="translate(91.259766 0)"/>
     <use xlink:href="#DejaVuSans-67" transform="translate(154.638672 0)"/>
     <use xlink:href="#DejaVuSans-6c" transform="translate(218.115234 0)"/>
     <use xlink:href="#DejaVuSans-65" transform="translate(245.898438 0)"/>
     <use xlink:href="#DejaVuSans-74" transform="translate(307.421875 0)"/>
     <use xlink:href="#DejaVuSans-6f" transform="translate(346.630859 0)"/>
     <use xlink:href="#DejaVuSans-6e" transform="translate(407.8125 0)"/>
     <use xlink:href="#DejaVuSans-20" transform="translate(471.191406 0)"/>
     <use xlink:href="#DejaVuSans-52" transform="translate(502.978516 0)"/>
     <use xlink:href="#DejaVuSans-61" transform="translate(570.210938 0)"/>
     <use xlink:href="#DejaVuSans-74" transform="translate(631.490234 0)"/>
     <use xlink:href="#DejaVuSans-65" transform="translate(670.699219 0)"/>
    </g>
   </g>
   <g id="legend_1">
    <g id="patch_7">
     <path d="M 394.879687 78.914375 
L 630.2 78.914375 
Q 632.2 78.914375 632.2 76.914375 
L 632.2 33.88 
Q 632.2 31.88 630.2 31.88 
L 394.879687 31.88 
Q 392.879687 31.88 392.879687 33.88 
L 392.879687 76.914375 
Q 392.879687 78.914375 394.879687 78.914375 
z
" style="fill: #ffffff; opacity: 0.8; stroke: #cccccc; stroke-linejoin: miter"/>
    </g>
    <g id="line2d_31">
     <path d="M 396.879687 39.978437 
L 406.879687 39.978437 
L 416.879687 39.978437 
" style="fill: none; stroke: #2ca02c; stroke-width: 1.5; stroke-linecap: square"/>
    </g>
    <g id="text_16">
     <!-- family (LoUP-CP) -->
     <g transform="translate(424.879687 43.478437) scale(0.1 -0.1)">
      <defs>
       <path id="DejaVuSans-66" d="M 2375 4863 
L 2375 4384 
L 1825 4384 
Q 1516 4384 1395 4259 
Q 1275 4134 1275 3809 
L 1275 3500 
L 2222 3500 
L 2222 3053 
L 1275 3053 
L 1275 0 
L 697 0 
L 697 3053 
L 147 3053 
L 147 3500 
L 697 3500 
L 697 3744 
Q 697 4328 969 4595 
Q 1241 4863 1831 4863 
L 2375 4863 
z
" transform="scale(0.015625)"/>
       <path id="DejaVuSans-6d" d="M 3328 2828 
Q 3544 3216 3844 3400 
Q 4144 3584 4550 3584 
Q 5097 3584 5394 3201 
Q 5691 2819 5691 2113 
L 5691 0 
L 5113 0 
L 5113 2094 
Q 5113 2597 4934 2840 
Q 4756 3084 4391 3084 
Q 3944 3084 3684 2787 
Q 3425 2491 3425 1978 
L 3425 0 
L 2847 0 
L 2847 2094 
Q 2847 2600 2669 2842 
Q 2491 3084 2119 3084 
Q 1678 3084 1418 2786 
Q 1159 2488 1159 1978 
L 1159 0 
L 581 0 
L 581 3500 
L 1159 3500 
L 1159 2956 
Q 1356 3278 1631 3431 
Q 1906 3584 2284 3584 
Q 2666 3584 2933 3390 
Q 3200 3197 3328 2828 
z
" transform="scale(0.015625)"/>
       <path id="DejaVuSans-79" d="M 2059 -325 
Q 1816 -950 1584 -1140 
Q 1353 -1331 966 -1331 
L 506 -1331 
L 506 -850 
L 844 -850 
Q 1081 -850 1212 -737 
Q 1344 -625 1503 -206 
L 1606 56 
L 191 3500 
L 800 3500 
L 1894 763 
L 2988 3500 
L 3597 3500 
L 2059 -325 
z
" transform="scale(0.015625)"/>
       <path id="DejaVuSans-28" d="M 1984 4856 
Q 1566 4138 1362 3434 
Q 1159 2731 1159 2009 
Q 1159 1288 1364 580 
Q 1569 -128 1984 -844 
L 1484 -844 
Q 1016 -109 783 600 
Q 550 1309 550 2009 
Q 550 2706 781 3412 
Q 1013 4119 1484 4856 
L 1984 4856 
z
" transform="scale(0.015625)"/>
       <path id="DejaVuSans-4c" d="M 628 4666 
L 1259 4666 
L 1259 531 
L 3531 531 
L 3531 0 
L 628 0 
L 628 4666 
z
" transform="scale(0.015625)"/>
       <path id="DejaVuSans-55" d="M 556 4666 
L 1191 4666 
L 1191 1831 
Q 1191 1081 1462 751 
Q 1734 422 2344 422 
Q 2950 422 3222 751 
Q 3494 1081 3494 1831 
L 3494 4666 
L 4128 4666 
L 4128 1753 
Q 4128 841 3676 375 
Q 3225 -91 2344 -91 
Q 1459 -91 1007 375 
Q 556 841 556 1753 
L 556 4666 
z
" transform="scale(0.015625)"/>
       <path id="DejaVuSans-50" d="M 1259 4147 
L 1259 2394 
L 2053 2394 
Q 2494 2394 2734 2622 
Q 2975 2850 2975 3272 
Q 2975 3691 2734 3919 
Q 2494 4147 2053 4147 
L 1259 4147 
z
M 628 4666 
L 2053 4666 
Q 2838 4666 3239 4311 
Q 3641 3956 3641 3272 
Q 3641 2581 3239 2228 
Q 2838 1875 2053 1875 
L 1259 1875 
L 1259 0 
L 628 0 
L 628 4666 
z
" transform="scale(0.015625)"/>
       <path id="DejaVuSans-2d" d="M 313 2009 
L 1997 2009 
L 1997 1497 
L 313 1497 
L 313 2009 
z
" transform="scale(0.015625)"/>
       <path id="DejaVuSans-43" d="M 4122 4306 
L 4122 3641 
Q 3803 3938 3442 4084 
Q 3081 4231 2675 4231 
Q 1875 4231 1450 3742 
Q 1025 3253 1025 2328 
Q 1025 1406 1450 917 
Q 1875 428 2675 428 
Q 3081 428 3442 575 
Q 3803 722 4122 1019 
L 4122 359 
Q 3791 134 3420 21 
Q 3050 -91 2638 -91 
Q 1578 -91 968 557 
Q 359 1206 359 2328 
Q 359 3453 968 4101 
Q 1578 4750 2638 4750 
Q 3056 4750 3426 4639 
Q 3797 4528 4122 4306 
z
" transform="scale(0.015625)"/>
       <path id="DejaVuSans-29" d="M 513 4856 
L 1013 4856 
Q 1481 4119 1714 3412 
Q 1947 2706 1947 2009 
Q 1947 1309 1714 600 
Q 1481 -109 1013 -844 
L 513 -844 
Q 928 -128 1133 580 
Q 1338 1288 1338 2009 
Q 1338 2731 1133 3434 
Q 928 4138 513 4856 
z
" transform="scale(0.015625)"/>
      </defs>
      <use xlink:href="#DejaVuSans-66"/>
      <use xlink:href="#DejaVuSans-61" transform="translate(35.205078 0)"/>
      <use xlink:href="#DejaVuSans-6d" transform="translate(96.484375 0)"/>
      <use xlink:href="#DejaVuSans-69" transform="translate(193.896484 0)"/>
      <use xlink:href="#DejaVuSans-6c" transform="translate(221.679688 0)"/>
      <use xlink:href="#DejaVuSans-79" transform="translate(249.462891 0)"/>
      <use xlink:href="#DejaVuSans-20" transform="translate(308.642578 0)"/>
      <use xlink:href="#DejaVuSans-28" transform="translate(340.429688 0)"/>
      <use xlink:href="#DejaVuSans-4c" transform="translate(379.443359 0)"/>
      <use xlink:href="#DejaVuSans-6f" transform="translate(433.40625 0)"/>
      <use xlink:href="#DejaVuSans-55" transform="translate(494.587891 0)"/>
      <use xlink:href="#DejaVuSans-50" transform="translate(567.78125 0)"/>
      <use xlink:href="#DejaVuSans-2d" transform="translate(625.833984 0)"/>
      <use xlink:href="#DejaVuSans-43" transform="translate(661.917969 0)"/>
      <use xlink:href="#DejaVuSans-50" transform="translate(731.742188 0)"/>
      <use xlink:href="#DejaVuSans-29" transform="translate(792.044922 0)"/>
     </g>
    </g>
    <g id="line2d_32">
     <path d="M 396.879687 54.656563 
L 406.879687 54.656563 
L 416.879687 54.656563 
" style="fill: none; stroke-dasharray: 5.55,2.4; stroke-dashoffset: 0; stroke: #2ca02c; stroke-width: 1.5"/>
    </g>
    <g id="text_17">
     <!-- major (LoUP-CP) -->
     <g transform="translate(424.879687 58.156563) scale(0.1 -0.1)">
      <defs>
       <path id="DejaVuSans-6a" d="M 603 3500 
L 1178 3500 
L 1178 -63 
Q 1178 -731 923 -1031 
Q 669 -1331 103 -1331 
L -116 -1331 
L -116 -844 
L 38 -844 
Q 366 -844 484 -692 
Q 603 -541 603 -63 
L 603 3500 
z
M 603 4863 
L 1178 4863 
L 1178 4134 
L 603 4134 
L 603 4863 
z
" transform="scale(0.015625)"/>
       <path id="DejaVuSans-72" d="M 2631 2963 
Q 2534 3019 2420 3045 
Q 2306 3072 2169 3072 
Q 1681 3072 1420 2755 
Q 1159 2438 1159 1844 
L 1159 0 
L 581 0 
L 581 3500 
L 1159 3500 
L 1159 2956 
Q 1341 3275 1631 3429 
Q 1922 3584 2338 3584 
Q 2397 3584 2469 3576 
Q 2541 3569 2628 3553 
L 2631 2963 
z
" transform="scale(0.015625)"/>
      </defs>
      <use xlink:href="#DejaVuSans-6d"/>
      <use xlink:href="#DejaVuSans-61" transform="translate(97.412109 0)"/>
      <use xlink:href="#DejaVuSans-6a" transform="translate(158.691406 0)"/>
      <use xlink:href="#DejaVuSans-6f" transform="translate(186.474609 0)"/>
      <use xlink:href="#DejaVuSans-72" transform="translate(247.65625 0)"/>
      <use xlink:href="#DejaVuSans-20" transform="translate(288.769531 0)"/>
      <use xlink:href="#DejaVuSans-28" transform="translate(320.556641 0)"/>
      <use xlink:href="#DejaVuSans-4c" transform="translate(359.570312 0)"/>
      <use xlink:href="#DejaVuSans-6f" transform="translate(413.533203 0)"/>
      <use xlink:href="#DejaVuSans-55" transform="translate(474.714844 0)"/>
      <use xlink:href="#DejaVuSans-50" transform="translate(547.908203 0)"/>
      <use xlink:href="#DejaVuSans-2d" transform="translate(605.960938 0)"/>
      <use xlink:href="#DejaVuSans-43" transform="translate(642.044922 0)"/>
      <use xlink:href="#DejaVuSans-50" transform="translate(711.869141 0)"/>
      <use xlink:href="#DejaVuSans-29" transform="translate(772.171875 0)"/>
     </g>
    </g>
    <g id="line2d_33">
     <path d="M 396.879687 69.334687 
L 406.879687 69.334687 
L 416.879687 69.334687 
" style="fill: none; stroke-dasharray: 1.5,2.475; stroke-dashoffset: 0; stroke: #2ca02c; stroke-width: 1.5"/>
    </g>
    <g id="text_18">
     <!-- leaf (LoUP-CP) -->
     <g transform="translate(424.879687 72.834687) scale(0.1 -0.1)">
      <use xlink:href="#DejaVuSans-6c"/>
      <use xlink:href="#DejaVuSans-65" transform="translate(27.783203 0)"/>
      <use xlink:href="#DejaVuSans-61" transform="translate(89.306641 0)"/>
      <use xlink:href="#DejaVuSans-66" transform="translate(150.585938 0)"/>
      <use xlink:href="#DejaVuSans-20" transform="translate(185.791016 0)"/>
      <use xlink:href="#DejaVuSans-28" transform="translate(217.578125 0)"/>
      <use xlink:href="#DejaVuSans-4c" transform="translate(256.591797 0)"/>
      <use xlink:href="#DejaVuSans-6f" transform="translate(310.554688 0)"/>
      <use xlink:href="#DejaVuSans-55" transform="translate(371.736328 0)"/>
      <use xlink:href="#DejaVuSans-50" transform="translate(444.929688 0)"/>
      <use xlink:href="#DejaVuSans-2d" transform="translate(502.982422 0)"/>
      <use xlink:href="#DejaVuSans-43" transform="translate(539.066406 0)"/>
      <use xlink:href="#DejaVuSans-50" transform="translate(608.890625 0)"/>
      <use xlink:href="#DejaVuSans-29" transform="translate(669.193359 0)"/>
     </g>
    </g>
    <g id="line2d_34">
     <path d="M 527.984375 39.978437 
L 537.984375 39.978437 
L 547.984375 39.978437 
" style="fill: none; stroke: #1f77b4; stroke-width: 1.5; stroke-linecap: square"/>
    </g>
    <g id="text_19">
     <!-- family (Lw-CP) -->
     <g transform="translate(555.984375 43.478437) scale(0.1 -0.1)">
      <defs>
       <path id="DejaVuSans-77" d="M 269 3500 
L 844 3500 
L 1563 769 
L 2278 3500 
L 2956 3500 
L 3675 769 
L 4391 3500 
L 4966 3500 
L 4050 0 
L 3372 0 
L 2619 2869 
L 1863 0 
L 1184 0 
L 269 3500 
z
" transform="scale(0.015625)"/>
      </defs>
      <use xlink:href="#DejaVuSans-66"/>
      <use xlink:href="#DejaVuSans-61" transform="translate(35.205078 0)"/>
      <use xlink:href="#DejaVuSans-6d" transform="translate(96.484375 0)"/>
      <use xlink:href="#DejaVuSans-69" transform="translate(193.896484 0)"/>
      <use xlink:href="#DejaVuSans-6c" transform="translate(221.679688 0)"/>
      <use xlink:href="#DejaVuSans-79" transform="translate(249.462891 0)"/>
      <use xlink:href="#DejaVuSans-20" transform="translate(308.642578 0)"/>
      <use xlink:href="#DejaVuSans-28" transform="translate(340.429688 0)"/>
      <use xlink:href="#DejaVuSans-4c" transform="translate(379.443359 0)"/>
      <use xlink:href="#DejaVuSans-77" transform="translate(435.15625 0)"/>
      <use xlink:href="#DejaVuSans-2d" transform="translate(516.943359 0)"/>
      <use xlink:href="#DejaVuSans-43" transform="translate(553.027344 0)"/>
      <use xlink:href="#DejaVuSans-50" transform="translate(622.851562 0)"/>
      <use xlink:href="#DejaVuSans-29" transform="translate(683.154297 0)"/>
     </g>
    </g>
    <g id="line2d_35">
     <path d="M 527.984375 54.656563 
L 537.984375 54.656563 
L 547.984375 54.656563 
" style="fill: none; stroke-dasharray: 5.55,2.4; stroke-dashoffset: 0; stroke: #1f77b4; stroke-width: 1.5"/>
    </g>
    <g id="text_20">
     <!-- major (Lw-CP) -->
     <g transform="translate(555.984375 58.156563) scale(0.1 -0.1)">
      <use xlink:href="#DejaVuSans-6d"/>
      <use xlink:href="#DejaVuSans-61" transform="translate(97.412109 0)"/>
      <use xlink:href="#DejaVuSans-6a" transform="translate(158.691406 0)"/>
      <use xlink:href="#DejaVuSans-6f" transform="translate(186.474609 0)"/>
      <use xlink:href="#DejaVuSans-72" transform="translate(247.65625 0)"/>
      <use xlink:href="#DejaVuSans-20" transform="translate(288.769531 0)"/>
      <use xlink:href="#DejaVuSans-28" transform="translate(320.556641 0)"/>
      <use xlink:href="#DejaVuSans-4c" transform="translate(359.570312 0)"/>
      <use xlink:href="#DejaVuSans-77" transform="translate(415.283203 0)"/>
      <use xlink:href="#DejaVuSans-2d" transform="translate(497.070312 0)"/>
      <use xlink:href="#DejaVuSans-43" transform="translate(533.154297 0)"/>
      <use xlink:href="#DejaVuSans-50" transform="translate(602.978516 0)"/>
      <use xlink:href="#DejaVuSans-29" transform="translate(663.28125 0)"/>
     </g>
    </g>
    <g id="line2d_36">
     <path d="M 527.984375 69.334687 
L 537.984375 69.334687 
L 547.984375 69.334687 
" style="fill: none; stroke-dasharray: 1.5,2.475; stroke-dashoffset: 0; stroke: #1f77b4; stroke-width: 1.5"/>
    </g>
    <g id="text_21">
     <!-- leaf (Lw-CP) -->
     <g transform="translate(555.984375 72.834687) scale(0.1 -0.1)">
      <use xlink:href="#DejaVuSans-6c"/>
      <use xlink:href="#DejaVuSans-65" transform="translate(27.783203 0)"/>
      <use xlink:href="#DejaVuSans-61" transform="translate(89.306641 0)"/>
      <use xlink:href="#DejaVuSans-66" transform="translate(150.585938 0)"/>
      <use xlink:href="#DejaVuSans-20" transform="translate(185.791016 0)"/>
      <use xlink:href="#DejaVuSans-28" transform="translate(217.578125 0)"/>
      <use xlink:href="#DejaVuSans-4c" transform="translate(256.591797 0)"/>
      <use xlink:href="#DejaVuSans-77" transform="translate(312.304688 0)"/>
      <use xlink:href="#DejaVuSans-2d" transform="translate(394.091797 0)"/>
      <use xlink:href="#DejaVuSans-43" transform="translate(430.175781 0)"/>
      <use xlink:href="#DejaVuSans-50" transform="translate(500 0)"/>
      <use xlink:href="#DejaVuSans-29" transform="translate(560.302734 0)"/>
     </g>
    </g>
   </g>
  </g>
 </g>
 <defs>
  <clipPath id="p83c815ac5e">
   <rect x="47.72" y="26.88" width="589.48" height="291.16"/>
  </clipPath>
 </defs>
</svg>
