<?xml version="1.0" encoding="utf-8" standalone="no"?>
<!DOCTYPE svg PUBLIC "-//W3C//DTD SVG 1.1//EN"
  "http://www.w3.org/Graphics/SVG/1.1/DTD/svg11.dtd">
<svg xmlns:xlink="http://www.w3.org/1999/xlink" width="648pt" height="360pt" viewBox="0 0 648 360" xmlns="http://www.w3.org/2000/svg" version="1.1">
 <metadata>
  <rdf:RDF xmlns:dc="http://purl.org/dc/elements/1.1/" xmlns:cc="http://creativecommons.org/ns#" xmlns:rdf="http://www.w3.org/1999/02/22-rdf-syntax-ns#">
   <cc:Work>
    <dc:type rdf:resource="http://purl.org/dc/dcmitype/StillImage"/>
    <dc:date>2026-01-09T19:27:41.464026</dc:date>
    <dc:format>image/svg+xml</dc:format>
    <dc:creator>
     <cc:Agent>
      <dc:title>Matplotlib v3.10.7, https://matplotlib.org/</dc:title>
     </cc:Agent>
    </dc:creator>
   </cc:Work>
  </rdf:RDF>
 </metadata>
 <defs>
  <style type="text/css">*{stroke-linejoin: round; stroke-linecap: butt}</style>
 </defs>
 <g id="figure_1">
  <g id="patch_1">
   <path d="M 0 360 
L 648 360 
L 648 0 
L 0 0 
z
" style="fill: #ffffff"/>
  </g>
  <g id="axes_1">
   <g id="patch_2">
    <path d="M 47.72 318.04 
L 637.2 318.04 
L 637.2 26.88 
L 47.72 26.88 
z
" style="fill: #ffffff"/>
   </g>
   <g id="FillBetweenPolyCollection_1">
    <defs>
     <path id="mf16bf9b8e3" d="M 74.514545 -319.867496 
L 74.514545 -319.828076 
L 85.232364 -317.025172 
L 95.950182 -315.260321 
L 106.668 -313.594018 
L 117.385818 -311.717798 
L 128.103636 -308.363333 
L 154.898182 -302.94711 
L 181.692727 -299.342603 
L 235.281818 -292.9556 
L 288.870909 -284.501385 
L 342.46 -250.967886 
L 396.049091 -206.653165 
L 449.638182 -166.861937 
L 503.227273 -120.79345 
L 556.816364 -84.803471 
L 610.405455 -57.040654 
L 610.405455 -64.262736 
L 610.405455 -64.262736 
L 556.816364 -92.309427 
L 503.227273 -129.011152 
L 449.638182 -172.891213 
L 396.049091 -212.896869 
L 342.46 -258.905344 
L 288.870909 -289.75555 
L 235.281818 -296.254418 
L 181.692727 -301.484811 
L 154.898182 -305.011775 
L 128.103636 -310.558955 
L 117.385818 -313.169292 
L 106.668 -314.957399 
L 95.950182 -316.432887 
L 85.232364 -317.964287 
L 74.514545 -319.867496 
z
" style="stroke: #2ca02c; stroke-opacity: 0.15"/>
    </defs>
    <g clip-path="url(#p5d0fbd12c6)">
     <use xlink:href="#mf16bf9b8e3" x="0" y="360" style="fill: #2ca02c; fill-opacity: 0.15; stroke: #2ca02c; stroke-opacity: 0.15"/>
    </g>
   </g>
   <g id="FillBetweenPolyCollection_2">
    <defs>
     <path id="m39160ddd35" d="M 74.514545 -319.856992 
L 74.514545 -319.615105 
L 85.232364 -314.317173 
L 95.950182 -309.707902 
L 106.668 -305.532236 
L 117.385818 -301.368288 
L 128.103636 -296.620236 
L 154.898182 -285.613089 
L 181.692727 -273.125984 
L 235.281818 -251.771478 
L 288.870909 -243.777783 
L 342.46 -214.633812 
L 396.049091 -173.510654 
L 449.638182 -142.3007 
L 503.227273 -111.563255 
L 556.816364 -82.148973 
L 610.405455 -55.759658 
L 610.405455 -62.799595 
L 610.405455 -62.799595 
L 556.816364 -89.186448 
L 503.227273 -117.753979 
L 449.638182 -147.515725 
L 396.049091 -179.726562 
L 342.46 -222.64302 
L 288.870909 -248.933908 
L 235.281818 -256.636022 
L 181.692727 -277.597099 
L 154.898182 -289.317557 
L 128.103636 -299.514211 
L 117.385818 -304.135662 
L 106.668 -308.181121 
L 95.950182 -311.96181 
L 85.232364 -316.045046 
L 74.514545 -319.856992 
z
" style="stroke: #2ca02c; stroke-opacity: 0.15"/>
    </defs>
    <g clip-path="url(#p5d0fbd12c6)">
     <use xlink:href="#m39160ddd35" x="0" y="360" style="fill: #2ca02c; fill-opacity: 0.15; stroke: #2ca02c; stroke-opacity: 0.15"/>
    </g>
   </g>
   <g id="FillBetweenPolyCollection_3">
    <defs>
     <path id="med3ce735a0" d="M 74.514545 -319.86519 
L 74.514545 -319.597049 
L 85.232364 -313.551818 
L 95.950182 -308.001053 
L 106.668 -302.852868 
L 117.385818 -297.487423 
L 128.103636 -292.178265 
L 154.898182 -278.535349 
L 181.692727 -264.757184 
L 235.281818 -238.385065 
L 288.870909 -211.267644 
L 342.46 -186.100336 
L 396.049091 -159.343482 
L 449.638182 -133.727878 
L 503.227273 -107.3793 
L 556.816364 -81.226265 
L 610.405455 -55.514267 
L 610.405455 -62.525736 
L 610.405455 -62.525736 
L 556.816364 -88.232627 
L 503.227273 -113.534631 
L 449.638182 -138.956585 
L 396.049091 -165.528885 
L 342.46 -191.42989 
L 288.870909 -218.969736 
L 235.281818 -244.769799 
L 181.692727 -269.806709 
L 154.898182 -282.819211 
L 128.103636 -295.345835 
L 117.385818 -300.908062 
L 106.668 -305.894751 
L 95.950182 -310.881799 
L 85.232364 -315.459694 
L 74.514545 -319.86519 
z
" style="stroke: #2ca02c; stroke-opacity: 0.15"/>
    </defs>
    <g clip-path="url(#p5d0fbd12c6)">
     <use xlink:href="#med3ce735a0" x="0" y="360" style="fill: #2ca02c; fill-opacity: 0.15; stroke: #2ca02c; stroke-opacity: 0.15"/>
    </g>
   </g>
   <g id="FillBetweenPolyCollection_4">
    <defs>
     <path id="mc580e0dfcd" d="M 74.514545 -319.87509 
L 74.514545 -319.60358 
L 85.232364 -313.962069 
L 95.950182 -308.620545 
L 106.668 -303.055138 
L 117.385818 -297.718403 
L 128.103636 -292.103306 
L 154.898182 -278.336333 
L 181.692727 -265.342466 
L 235.281818 -239.430467 
L 288.870909 -212.468946 
L 342.46 -186.971809 
L 396.049091 -160.993427 
L 449.638182 -135.494725 
L 503.227273 -108.677999 
L 556.816364 -82.710692 
L 610.405455 -56.592646 
L 610.405455 -63.757691 
L 610.405455 -63.757691 
L 556.816364 -89.748675 
L 503.227273 -115.574905 
L 449.638182 -141.389747 
L 396.049091 -166.915566 
L 342.46 -192.927906 
L 288.870909 -218.5736 
L 235.281818 -245.817829 
L 181.692727 -270.342087 
L 154.898182 -283.18912 
L 128.103636 -295.703423 
L 117.385818 -300.986002 
L 106.668 -305.925815 
L 95.950182 -310.78813 
L 85.232364 -315.552261 
L 74.514545 -319.87509 
z
" style="stroke: #1f77b4; stroke-opacity: 0.15"/>
    </defs>
    <g clip-path="url(#p5d0fbd12c6)">
     <use xlink:href="#mc580e0dfcd" x="0" y="360" style="fill: #1f77b4; fill-opacity: 0.15; stroke: #1f77b4; stroke-opacity: 0.15"/>
    </g>
   </g>
   <g id="FillBetweenPolyCollection_5">
    <defs>
     <path id="mf4ddbba2ff" d="M 74.514545 -319.885455 
L 74.514545 -319.596502 
L 85.232364 -313.291179 
L 95.950182 -307.804571 
L 106.668 -302.385195 
L 117.385818 -296.838159 
L 128.103636 -291.290572 
L 154.898182 -277.939305 
L 181.692727 -264.681307 
L 235.281818 -238.382987 
L 288.870909 -211.874761 
L 342.46 -185.643635 
L 396.049091 -159.709354 
L 449.638182 -132.123951 
L 503.227273 -107.488127 
L 556.816364 -80.886624 
L 610.405455 -55.194545 
L 610.405455 -62.654847 
L 610.405455 -62.654847 
L 556.816364 -89.367574 
L 503.227273 -114.359139 
L 449.638182 -143.606998 
L 396.049091 -167.874286 
L 342.46 -192.031193 
L 288.870909 -217.810505 
L 235.281818 -243.444174 
L 181.692727 -269.718267 
L 154.898182 -282.202577 
L 128.103636 -295.204887 
L 117.385818 -300.236196 
L 106.668 -305.300919 
L 95.950182 -310.401284 
L 85.232364 -315.644746 
L 74.514545 -319.885455 
z
" style="stroke: #1f77b4; stroke-opacity: 0.15"/>
    </defs>
    <g clip-path="url(#p5d0fbd12c6)">
     <use xlink:href="#mf4ddbba2ff" x="0" y="360" style="fill: #1f77b4; fill-opacity: 0.15; stroke: #1f77b4; stroke-opacity: 0.15"/>
    </g>
   </g>
   <g id="FillBetweenPolyCollection_6">
    <defs>
     <path id="m45e271b908" d="M 74.514545 -319.86519 
L 74.514545 -319.597049 
L 85.232364 -313.551818 
L 95.950182 -308.001053 
L 106.668 -302.852868 
L 117.385818 -297.487423 
L 128.103636 -292.178265 
L 154.898182 -278.535349 
L 181.692727 -264.757184 
L 235.281818 -238.385065 
L 288.870909 -211.267644 
L 342.46 -186.100336 
L 396.049091 -159.343482 
L 449.638182 -133.727878 
L 503.227273 -107.3793 
L 556.816364 -81.226265 
L 610.405455 -55.514267 
L 610.405455 -62.525736 
L 610.405455 -62.525736 
L 556.816364 -88.232627 
L 503.227273 -113.534631 
L 449.638182 -138.956585 
L 396.049091 -165.528885 
L 342.46 -191.42989 
L 288.870909 -218.969736 
L 235.281818 -244.769799 
L 181.692727 -269.806709 
L 154.898182 -282.819211 
L 128.103636 -295.345835 
L 117.385818 -300.908062 
L 106.668 -305.894751 
L 95.950182 -310.881799 
L 85.232364 -315.459694 
L 74.514545 -319.86519 
z
" style="stroke: #1f77b4; stroke-opacity: 0.15"/>
    </defs>
    <g clip-path="url(#p5d0fbd12c6)">
     <use xlink:href="#m45e271b908" x="0" y="360" style="fill: #1f77b4; fill-opacity: 0.15; stroke: #1f77b4; stroke-opacity: 0.15"/>
    </g>
   </g>
   <g id="matplotlib.axis_1">
    <g id="xtick_1">
     <g id="line2d_1">
      <path d="M 74.514545 318.04 
L 74.514545 26.88 
" clip-path="url(#p5d0fbd12c6)" style="fill: none; stroke-dasharray: 0.5,0.825; stroke-dashoffset: 0; stroke: #b0b0b0; stroke-width: 0.5"/>
     </g>
     <g id="line2d_2">
      <defs>
       <path id="m08ac56c17a" d="M 0 0 
L 0 3.5 
" style="stroke: #000000; stroke-width: 0.8"/>
      </defs>
      <g>
       <use xlink:href="#m08ac56c17a" x="74.514545" y="318.04" style="stroke: #000000; stroke-width: 0.8"/>
      </g>
     </g>
     <g id="text_1">
      <!-- 0.0 -->
      <g transform="translate(66.562983 332.638438) scale(0.1 -0.1)">
       <defs>
        <path id="DejaVuSans-30" d="M 2034 4250 
Q 1547 4250 1301 3770 
Q 1056 3291 1056 2328 
Q 1056 1369 1301 889 
Q 1547 409 2034 409 
Q 2525 409 2770 889 
Q 3016 1369 3016 2328 
Q 3016 3291 2770 3770 
Q 2525 4250 2034 4250 
z
M 2034 4750 
Q 2819 4750 3233 4129 
Q 3647 3509 3647 2328 
Q 3647 1150 3233 529 
Q 2819 -91 2034 -91 
Q 1250 -91 836 529 
Q 422 1150 422 2328 
Q 422 3509 836 4129 
Q 1250 4750 2034 4750 
z
" transform="scale(0.015625)"/>
        <path id="DejaVuSans-2e" d="M 684 794 
L 1344 794 
L 1344 0 
L 684 0 
L 684 794 
z
" transform="scale(0.015625)"/>
       </defs>
       <use xlink:href="#DejaVuSans-30"/>
       <use xlink:href="#DejaVuSans-2e" transform="translate(63.623047 0)"/>
       <use xlink:href="#DejaVuSans-30" transform="translate(95.410156 0)"/>
      </g>
     </g>
    </g>
    <g id="xtick_2">
     <g id="line2d_3">
      <path d="M 181.692727 318.04 
L 181.692727 26.88 
" clip-path="url(#p5d0fbd12c6)" style="fill: none; stroke-dasharray: 0.5,0.825; stroke-dashoffset: 0; stroke: #b0b0b0; stroke-width: 0.5"/>
     </g>
     <g id="line2d_4">
      <g>
       <use xlink:href="#m08ac56c17a" x="181.692727" y="318.04" style="stroke: #000000; stroke-width: 0.8"/>
      </g>
     </g>
     <g id="text_2">
      <!-- 0.1 -->
      <g transform="translate(173.741165 332.638438) scale(0.1 -0.1)">
       <defs>
        <path id="DejaVuSans-31" d="M 794 531 
L 1825 531 
L 1825 4091 
L 703 3866 
L 703 4441 
L 1819 4666 
L 2450 4666 
L 2450 531 
L 3481 531 
L 3481 0 
L 794 0 
L 794 531 
z
" transform="scale(0.015625)"/>
       </defs>
       <use xlink:href="#DejaVuSans-30"/>
       <use xlink:href="#DejaVuSans-2e" transform="translate(63.623047 0)"/>
       <use xlink:href="#DejaVuSans-31" transform="translate(95.410156 0)"/>
      </g>
     </g>
    </g>
    <g id="xtick_3">
     <g id="line2d_5">
      <path d="M 288.870909 318.04 
L 288.870909 26.88 
" clip-path="url(#p5d0fbd12c6)" style="fill: none; stroke-dasharray: 0.5,0.825; stroke-dashoffset: 0; stroke: #b0b0b0; stroke-width: 0.5"/>
     </g>
     <g id="line2d_6">
      <g>
       <use xlink:href="#m08ac56c17a" x="288.870909" y="318.04" style="stroke: #000000; stroke-width: 0.8"/>
      </g>
     </g>
     <g id="text_3">
      <!-- 0.2 -->
      <g transform="translate(280.919347 332.638438) scale(0.1 -0.1)">
       <defs>
        <path id="DejaVuSans-32" d="M 1228 531 
L 3431 531 
L 3431 0 
L 469 0 
L 469 531 
Q 828 903 1448 1529 
Q 2069 2156 2228 2338 
Q 2531 2678 2651 2914 
Q 2772 3150 2772 3378 
Q 2772 3750 2511 3984 
Q 2250 4219 1831 4219 
Q 1534 4219 1204 4116 
Q 875 4013 500 3803 
L 500 4441 
Q 881 4594 1212 4672 
Q 1544 4750 1819 4750 
Q 2544 4750 2975 4387 
Q 3406 4025 3406 3419 
Q 3406 3131 3298 2873 
Q 3191 2616 2906 2266 
Q 2828 2175 2409 1742 
Q 1991 1309 1228 531 
z
" transform="scale(0.015625)"/>
       </defs>
       <use xlink:href="#DejaVuSans-30"/>
       <use xlink:href="#DejaVuSans-2e" transform="translate(63.623047 0)"/>
       <use xlink:href="#DejaVuSans-32" transform="translate(95.410156 0)"/>
      </g>
     </g>
    </g>
    <g id="xtick_4">
     <g id="line2d_7">
      <path d="M 396.049091 318.04 
L 396.049091 26.88 
" clip-path="url(#p5d0fbd12c6)" style="fill: none; stroke-dasharray: 0.5,0.825; stroke-dashoffset: 0; stroke: #b0b0b0; stroke-width: 0.5"/>
     </g>
     <g id="line2d_8">
      <g>
       <use xlink:href="#m08ac56c17a" x="396.049091" y="318.04" style="stroke: #000000; stroke-width: 0.8"/>
      </g>
     </g>
     <g id="text_4">
      <!-- 0.3 -->
      <g transform="translate(388.097528 332.638438) scale(0.1 -0.1)">
       <defs>
        <path id="DejaVuSans-33" d="M 2597 2516 
Q 3050 2419 3304 2112 
Q 3559 1806 3559 1356 
Q 3559 666 3084 287 
Q 2609 -91 1734 -91 
Q 1441 -91 1130 -33 
Q 819 25 488 141 
L 488 750 
Q 750 597 1062 519 
Q 1375 441 1716 441 
Q 2309 441 2620 675 
Q 2931 909 2931 1356 
Q 2931 1769 2642 2001 
Q 2353 2234 1838 2234 
L 1294 2234 
L 1294 2753 
L 1863 2753 
Q 2328 2753 2575 2939 
Q 2822 3125 2822 3475 
Q 2822 3834 2567 4026 
Q 2313 4219 1838 4219 
Q 1578 4219 1281 4162 
Q 984 4106 628 3988 
L 628 4550 
Q 988 4650 1302 4700 
Q 1616 4750 1894 4750 
Q 2613 4750 3031 4423 
Q 3450 4097 3450 3541 
Q 3450 3153 3228 2886 
Q 3006 2619 2597 2516 
z
" transform="scale(0.015625)"/>
       </defs>
       <use xlink:href="#DejaVuSans-30"/>
       <use xlink:href="#DejaVuSans-2e" transform="translate(63.623047 0)"/>
       <use xlink:href="#DejaVuSans-33" transform="translate(95.410156 0)"/>
      </g>
     </g>
    </g>
    <g id="xtick_5">
     <g id="line2d_9">
      <path d="M 503.227273 318.04 
L 503.227273 26.88 
" clip-path="url(#p5d0fbd12c6)" style="fill: none; stroke-dasharray: 0.5,0.825; stroke-dashoffset: 0; stroke: #b0b0b0; stroke-width: 0.5"/>
     </g>
     <g id="line2d_10">
      <g>
       <use xlink:href="#m08ac56c17a" x="503.227273" y="318.04" style="stroke: #000000; stroke-width: 0.8"/>
      </g>
     </g>
     <g id="text_5">
      <!-- 0.4 -->
      <g transform="translate(495.27571 332.638438) scale(0.1 -0.1)">
       <defs>
        <path id="DejaVuSans-34" d="M 2419 4116 
L 825 1625 
L 2419 1625 
L 2419 4116 
z
M 2253 4666 
L 3047 4666 
L 3047 1625 
L 3713 1625 
L 3713 1100 
L 3047 1100 
L 3047 0 
L 2419 0 
L 2419 1100 
L 313 1100 
L 313 1709 
L 2253 4666 
z
" transform="scale(0.015625)"/>
       </defs>
       <use xlink:href="#DejaVuSans-30"/>
       <use xlink:href="#DejaVuSans-2e" transform="translate(63.623047 0)"/>
       <use xlink:href="#DejaVuSans-34" transform="translate(95.410156 0)"/>
      </g>
     </g>
    </g>
    <g id="xtick_6">
     <g id="line2d_11">
      <path d="M 610.405455 318.04 
L 610.405455 26.88 
" clip-path="url(#p5d0fbd12c6)" style="fill: none; stroke-dasharray: 0.5,0.825; stroke-dashoffset: 0; stroke: #b0b0b0; stroke-width: 0.5"/>
     </g>
     <g id="line2d_12">
      <g>
       <use xlink:href="#m08ac56c17a" x="610.405455" y="318.04" style="stroke: #000000; stroke-width: 0.8"/>
      </g>
     </g>
     <g id="text_6">
      <!-- 0.5 -->
      <g transform="translate(602.453892 332.638438) scale(0.1 -0.1)">
       <defs>
        <path id="DejaVuSans-35" d="M 691 4666 
L 3169 4666 
L 3169 4134 
L 1269 4134 
L 1269 2991 
Q 1406 3038 1543 3061 
Q 1681 3084 1819 3084 
Q 2600 3084 3056 2656 
Q 3513 2228 3513 1497 
Q 3513 744 3044 326 
Q 2575 -91 1722 -91 
Q 1428 -91 1123 -41 
Q 819 9 494 109 
L 494 744 
Q 775 591 1075 516 
Q 1375 441 1709 441 
Q 2250 441 2565 725 
Q 2881 1009 2881 1497 
Q 2881 1984 2565 2268 
Q 2250 2553 1709 2553 
Q 1456 2553 1204 2497 
Q 953 2441 691 2322 
L 691 4666 
z
" transform="scale(0.015625)"/>
       </defs>
       <use xlink:href="#DejaVuSans-30"/>
       <use xlink:href="#DejaVuSans-2e" transform="translate(63.623047 0)"/>
       <use xlink:href="#DejaVuSans-35" transform="translate(95.410156 0)"/>
      </g>
     </g>
    </g>
    <g id="text_7">
     <!-- alpha -->
     <g transform="translate(328.599844 346.316563) scale(0.1 -0.1)">
      <defs>
       <path id="DejaVuSans-61" d="M 2194 1759 
Q 1497 1759 1228 1600 
Q 959 1441 959 1056 
Q 959 750 1161 570 
Q 1363 391 1709 391 
Q 2188 391 2477 730 
Q 2766 1069 2766 1631 
L 2766 1759 
L 2194 1759 
z
M 3341 1997 
L 3341 0 
L 2766 0 
L 2766 531 
Q 2569 213 2275 61 
Q 1981 -91 1556 -91 
Q 1019 -91 701 211 
Q 384 513 384 1019 
Q 384 1609 779 1909 
Q 1175 2209 1959 2209 
L 2766 2209 
L 2766 2266 
Q 2766 2663 2505 2880 
Q 2244 3097 1772 3097 
Q 1472 3097 1187 3025 
Q 903 2953 641 2809 
L 641 3341 
Q 956 3463 1253 3523 
Q 1550 3584 1831 3584 
Q 2591 3584 2966 3190 
Q 3341 2797 3341 1997 
z
" transform="scale(0.015625)"/>
       <path id="DejaVuSans-6c" d="M 603 4863 
L 1178 4863 
L 1178 0 
L 603 0 
L 603 4863 
z
" transform="scale(0.015625)"/>
       <path id="DejaVuSans-70" d="M 1159 525 
L 1159 -1331 
L 581 -1331 
L 581 3500 
L 1159 3500 
L 1159 2969 
Q 1341 3281 1617 3432 
Q 1894 3584 2278 3584 
Q 2916 3584 3314 3078 
Q 3713 2572 3713 1747 
Q 3713 922 3314 415 
Q 2916 -91 2278 -91 
Q 1894 -91 1617 61 
Q 1341 213 1159 525 
z
M 3116 1747 
Q 3116 2381 2855 2742 
Q 2594 3103 2138 3103 
Q 1681 3103 1420 2742 
Q 1159 2381 1159 1747 
Q 1159 1113 1420 752 
Q 1681 391 2138 391 
Q 2594 391 2855 752 
Q 3116 1113 3116 1747 
z
" transform="scale(0.015625)"/>
       <path id="DejaVuSans-68" d="M 3513 2113 
L 3513 0 
L 2938 0 
L 2938 2094 
Q 2938 2591 2744 2837 
Q 2550 3084 2163 3084 
Q 1697 3084 1428 2787 
Q 1159 2491 1159 1978 
L 1159 0 
L 581 0 
L 581 4863 
L 1159 4863 
L 1159 2956 
Q 1366 3272 1645 3428 
Q 1925 3584 2291 3584 
Q 2894 3584 3203 3211 
Q 3513 2838 3513 2113 
z
" transform="scale(0.015625)"/>
      </defs>
      <use xlink:href="#DejaVuSans-61"/>
      <use xlink:href="#DejaVuSans-6c" transform="translate(61.279297 0)"/>
      <use xlink:href="#DejaVuSans-70" transform="translate(89.0625 0)"/>
      <use xlink:href="#DejaVuSans-68" transform="translate(152.539062 0)"/>
      <use xlink:href="#DejaVuSans-61" transform="translate(215.917969 0)"/>
     </g>
    </g>
   </g>
   <g id="matplotlib.axis_2">
    <g id="ytick_1">
     <g id="line2d_13">
      <path d="M 47.72 300.183049 
L 637.2 300.183049 
" clip-path="url(#p5d0fbd12c6)" style="fill: none; stroke-dasharray: 0.5,0.825; stroke-dashoffset: 0; stroke: #b0b0b0; stroke-width: 0.5"/>
     </g>
     <g id="line2d_14">
      <defs>
       <path id="m00429aee6c" d="M 0 0 
L -3.5 0 
" style="stroke: #000000; stroke-width: 0.8"/>
      </defs>
      <g>
       <use xlink:href="#m00429aee6c" x="47.72" y="300.183049" style="stroke: #000000; stroke-width: 0.8"/>
      </g>
     </g>
     <g id="text_8">
      <!-- 0.5 -->
      <g transform="translate(24.816875 303.982267) scale(0.1 -0.1)">
       <use xlink:href="#DejaVuSans-30"/>
       <use xlink:href="#DejaVuSans-2e" transform="translate(63.623047 0)"/>
       <use xlink:href="#DejaVuSans-35" transform="translate(95.410156 0)"/>
      </g>
     </g>
    </g>
    <g id="ytick_2">
     <g id="line2d_15">
      <path d="M 47.72 248.175896 
L 637.2 248.175896 
" clip-path="url(#p5d0fbd12c6)" style="fill: none; stroke-dasharray: 0.5,0.825; stroke-dashoffset: 0; stroke: #b0b0b0; stroke-width: 0.5"/>
     </g>
     <g id="line2d_16">
      <g>
       <use xlink:href="#m00429aee6c" x="47.72" y="248.175896" style="stroke: #000000; stroke-width: 0.8"/>
      </g>
     </g>
     <g id="text_9">
      <!-- 0.6 -->
      <g transform="translate(24.816875 251.975114) scale(0.1 -0.1)">
       <defs>
        <path id="DejaVuSans-36" d="M 2113 2584 
Q 1688 2584 1439 2293 
Q 1191 2003 1191 1497 
Q 1191 994 1439 701 
Q 1688 409 2113 409 
Q 2538 409 2786 701 
Q 3034 994 3034 1497 
Q 3034 2003 2786 2293 
Q 2538 2584 2113 2584 
z
M 3366 4563 
L 3366 3988 
Q 3128 4100 2886 4159 
Q 2644 4219 2406 4219 
Q 1781 4219 1451 3797 
Q 1122 3375 1075 2522 
Q 1259 2794 1537 2939 
Q 1816 3084 2150 3084 
Q 2853 3084 3261 2657 
Q 3669 2231 3669 1497 
Q 3669 778 3244 343 
Q 2819 -91 2113 -91 
Q 1303 -91 875 529 
Q 447 1150 447 2328 
Q 447 3434 972 4092 
Q 1497 4750 2381 4750 
Q 2619 4750 2861 4703 
Q 3103 4656 3366 4563 
z
" transform="scale(0.015625)"/>
       </defs>
       <use xlink:href="#DejaVuSans-30"/>
       <use xlink:href="#DejaVuSans-2e" transform="translate(63.623047 0)"/>
       <use xlink:href="#DejaVuSans-36" transform="translate(95.410156 0)"/>
      </g>
     </g>
    </g>
    <g id="ytick_3">
     <g id="line2d_17">
      <path d="M 47.72 196.168743 
L 637.2 196.168743 
" clip-path="url(#p5d0fbd12c6)" style="fill: none; stroke-dasharray: 0.5,0.825; stroke-dashoffset: 0; stroke: #b0b0b0; stroke-width: 0.5"/>
     </g>
     <g id="line2d_18">
      <g>
       <use xlink:href="#m00429aee6c" x="47.72" y="196.168743" style="stroke: #000000; stroke-width: 0.8"/>
      </g>
     </g>
     <g id="text_10">
      <!-- 0.7 -->
      <g transform="translate(24.816875 199.967962) scale(0.1 -0.1)">
       <defs>
        <path id="DejaVuSans-37" d="M 525 4666 
L 3525 4666 
L 3525 4397 
L 1831 0 
L 1172 0 
L 2766 4134 
L 525 4134 
L 525 4666 
z
" transform="scale(0.015625)"/>
       </defs>
       <use xlink:href="#DejaVuSans-30"/>
       <use xlink:href="#DejaVuSans-2e" transform="translate(63.623047 0)"/>
       <use xlink:href="#DejaVuSans-37" transform="translate(95.410156 0)"/>
      </g>
     </g>
    </g>
    <g id="ytick_4">
     <g id="line2d_19">
      <path d="M 47.72 144.16159 
L 637.2 144.16159 
" clip-path="url(#p5d0fbd12c6)" style="fill: none; stroke-dasharray: 0.5,0.825; stroke-dashoffset: 0; stroke: #b0b0b0; stroke-width: 0.5"/>
     </g>
     <g id="line2d_20">
      <g>
       <use xlink:href="#m00429aee6c" x="47.72" y="144.16159" style="stroke: #000000; stroke-width: 0.8"/>
      </g>
     </g>
     <g id="text_11">
      <!-- 0.8 -->
      <g transform="translate(24.816875 147.960809) scale(0.1 -0.1)">
       <defs>
        <path id="DejaVuSans-38" d="M 2034 2216 
Q 1584 2216 1326 1975 
Q 1069 1734 1069 1313 
Q 1069 891 1326 650 
Q 1584 409 2034 409 
Q 2484 409 2743 651 
Q 3003 894 3003 1313 
Q 3003 1734 2745 1975 
Q 2488 2216 2034 2216 
z
M 1403 2484 
Q 997 2584 770 2862 
Q 544 3141 544 3541 
Q 544 4100 942 4425 
Q 1341 4750 2034 4750 
Q 2731 4750 3128 4425 
Q 3525 4100 3525 3541 
Q 3525 3141 3298 2862 
Q 3072 2584 2669 2484 
Q 3125 2378 3379 2068 
Q 3634 1759 3634 1313 
Q 3634 634 3220 271 
Q 2806 -91 2034 -91 
Q 1263 -91 848 271 
Q 434 634 434 1313 
Q 434 1759 690 2068 
Q 947 2378 1403 2484 
z
M 1172 3481 
Q 1172 3119 1398 2916 
Q 1625 2713 2034 2713 
Q 2441 2713 2670 2916 
Q 2900 3119 2900 3481 
Q 2900 3844 2670 4047 
Q 2441 4250 2034 4250 
Q 1625 4250 1398 4047 
Q 1172 3844 1172 3481 
z
" transform="scale(0.015625)"/>
       </defs>
       <use xlink:href="#DejaVuSans-30"/>
       <use xlink:href="#DejaVuSans-2e" transform="translate(63.623047 0)"/>
       <use xlink:href="#DejaVuSans-38" transform="translate(95.410156 0)"/>
      </g>
     </g>
    </g>
    <g id="ytick_5">
     <g id="line2d_21">
      <path d="M 47.72 92.154437 
L 637.2 92.154437 
" clip-path="url(#p5d0fbd12c6)" style="fill: none; stroke-dasharray: 0.5,0.825; stroke-dashoffset: 0; stroke: #b0b0b0; stroke-width: 0.5"/>
     </g>
     <g id="line2d_22">
      <g>
       <use xlink:href="#m00429aee6c" x="47.72" y="92.154437" style="stroke: #000000; stroke-width: 0.8"/>
      </g>
     </g>
     <g id="text_12">
      <!-- 0.9 -->
      <g transform="translate(24.816875 95.953656) scale(0.1 -0.1)">
       <defs>
        <path id="DejaVuSans-39" d="M 703 97 
L 703 672 
Q 941 559 1184 500 
Q 1428 441 1663 441 
Q 2288 441 2617 861 
Q 2947 1281 2994 2138 
Q 2813 1869 2534 1725 
Q 2256 1581 1919 1581 
Q 1219 1581 811 2004 
Q 403 2428 403 3163 
Q 403 3881 828 4315 
Q 1253 4750 1959 4750 
Q 2769 4750 3195 4129 
Q 3622 3509 3622 2328 
Q 3622 1225 3098 567 
Q 2575 -91 1691 -91 
Q 1453 -91 1209 -44 
Q 966 3 703 97 
z
M 1959 2075 
Q 2384 2075 2632 2365 
Q 2881 2656 2881 3163 
Q 2881 3666 2632 3958 
Q 2384 4250 1959 4250 
Q 1534 4250 1286 3958 
Q 1038 3666 1038 3163 
Q 1038 2656 1286 2365 
Q 1534 2075 1959 2075 
z
" transform="scale(0.015625)"/>
       </defs>
       <use xlink:href="#DejaVuSans-30"/>
       <use xlink:href="#DejaVuSans-2e" transform="translate(63.623047 0)"/>
       <use xlink:href="#DejaVuSans-39" transform="translate(95.410156 0)"/>
      </g>
     </g>
    </g>
    <g id="ytick_6">
     <g id="line2d_23">
      <path d="M 47.72 40.147284 
L 637.2 40.147284 
" clip-path="url(#p5d0fbd12c6)" style="fill: none; stroke-dasharray: 0.5,0.825; stroke-dashoffset: 0; stroke: #b0b0b0; stroke-width: 0.5"/>
     </g>
     <g id="line2d_24">
      <g>
       <use xlink:href="#m00429aee6c" x="47.72" y="40.147284" style="stroke: #000000; stroke-width: 0.8"/>
      </g>
     </g>
     <g id="text_13">
      <!-- 1.0 -->
      <g transform="translate(24.816875 43.946503) scale(0.1 -0.1)">
       <use xlink:href="#DejaVuSans-31"/>
       <use xlink:href="#DejaVuSans-2e" transform="translate(63.623047 0)"/>
       <use xlink:href="#DejaVuSans-30" transform="translate(95.410156 0)"/>
      </g>
     </g>
    </g>
    <g id="text_14">
     <!-- Coverage -->
     <g transform="translate(18.737188 196.417031) rotate(-90) scale(0.1 -0.1)">
      <defs>
       <path id="DejaVuSans-43" d="M 4122 4306 
L 4122 3641 
Q 3803 3938 3442 4084 
Q 3081 4231 2675 4231 
Q 1875 4231 1450 3742 
Q 1025 3253 1025 2328 
Q 1025 1406 1450 917 
Q 1875 428 2675 428 
Q 3081 428 3442 575 
Q 3803 722 4122 1019 
L 4122 359 
Q 3791 134 3420 21 
Q 3050 -91 2638 -91 
Q 1578 -91 968 557 
Q 359 1206 359 2328 
Q 359 3453 968 4101 
Q 1578 4750 2638 4750 
Q 3056 4750 3426 4639 
Q 3797 4528 4122 4306 
z
" transform="scale(0.015625)"/>
       <path id="DejaVuSans-6f" d="M 1959 3097 
Q 1497 3097 1228 2736 
Q 959 2375 959 1747 
Q 959 1119 1226 758 
Q 1494 397 1959 397 
Q 2419 397 2687 759 
Q 2956 1122 2956 1747 
Q 2956 2369 2687 2733 
Q 2419 3097 1959 3097 
z
M 1959 3584 
Q 2709 3584 3137 3096 
Q 3566 2609 3566 1747 
Q 3566 888 3137 398 
Q 2709 -91 1959 -91 
Q 1206 -91 779 398 
Q 353 888 353 1747 
Q 353 2609 779 3096 
Q 1206 3584 1959 3584 
z
" transform="scale(0.015625)"/>
       <path id="DejaVuSans-76" d="M 191 3500 
L 800 3500 
L 1894 563 
L 2988 3500 
L 3597 3500 
L 2284 0 
L 1503 0 
L 191 3500 
z
" transform="scale(0.015625)"/>
       <path id="DejaVuSans-65" d="M 3597 1894 
L 3597 1613 
L 953 1613 
Q 991 1019 1311 708 
Q 1631 397 2203 397 
Q 2534 397 2845 478 
Q 3156 559 3463 722 
L 3463 178 
Q 3153 47 2828 -22 
Q 2503 -91 2169 -91 
Q 1331 -91 842 396 
Q 353 884 353 1716 
Q 353 2575 817 3079 
Q 1281 3584 2069 3584 
Q 2775 3584 3186 3129 
Q 3597 2675 3597 1894 
z
M 3022 2063 
Q 3016 2534 2758 2815 
Q 2500 3097 2075 3097 
Q 1594 3097 1305 2825 
Q 1016 2553 972 2059 
L 3022 2063 
z
" transform="scale(0.015625)"/>
       <path id="DejaVuSans-72" d="M 2631 2963 
Q 2534 3019 2420 3045 
Q 2306 3072 2169 3072 
Q 1681 3072 1420 2755 
Q 1159 2438 1159 1844 
L 1159 0 
L 581 0 
L 581 3500 
L 1159 3500 
L 1159 2956 
Q 1341 3275 1631 3429 
Q 1922 3584 2338 3584 
Q 2397 3584 2469 3576 
Q 2541 3569 2628 3553 
L 2631 2963 
z
" transform="scale(0.015625)"/>
       <path id="DejaVuSans-67" d="M 2906 1791 
Q 2906 2416 2648 2759 
Q 2391 3103 1925 3103 
Q 1463 3103 1205 2759 
Q 947 2416 947 1791 
Q 947 1169 1205 825 
Q 1463 481 1925 481 
Q 2391 481 2648 825 
Q 2906 1169 2906 1791 
z
M 3481 434 
Q 3481 -459 3084 -895 
Q 2688 -1331 1869 -1331 
Q 1566 -1331 1297 -1286 
Q 1028 -1241 775 -1147 
L 775 -588 
Q 1028 -725 1275 -790 
Q 1522 -856 1778 -856 
Q 2344 -856 2625 -561 
Q 2906 -266 2906 331 
L 2906 616 
Q 2728 306 2450 153 
Q 2172 0 1784 0 
Q 1141 0 747 490 
Q 353 981 353 1791 
Q 353 2603 747 3093 
Q 1141 3584 1784 3584 
Q 2172 3584 2450 3431 
Q 2728 3278 2906 2969 
L 2906 3500 
L 3481 3500 
L 3481 434 
z
" transform="scale(0.015625)"/>
      </defs>
      <use xlink:href="#DejaVuSans-43"/>
      <use xlink:href="#DejaVuSans-6f" transform="translate(69.824219 0)"/>
      <use xlink:href="#DejaVuSans-76" transform="translate(131.005859 0)"/>
      <use xlink:href="#DejaVuSans-65" transform="translate(190.185547 0)"/>
      <use xlink:href="#DejaVuSans-72" transform="translate(251.708984 0)"/>
      <use xlink:href="#DejaVuSans-61" transform="translate(292.822266 0)"/>
      <use xlink:href="#DejaVuSans-67" transform="translate(354.101562 0)"/>
      <use xlink:href="#DejaVuSans-65" transform="translate(417.578125 0)"/>
     </g>
    </g>
   </g>
   <g id="line2d_25">
    <path d="M 74.514545 40.152214 
L 85.232364 42.505271 
L 95.950182 44.153396 
L 106.668 45.724291 
L 117.385818 47.556455 
L 128.103636 50.538856 
L 154.898182 56.020558 
L 181.692727 59.586293 
L 235.281818 65.394991 
L 288.870909 72.871532 
L 342.46 105.063385 
L 396.049091 150.224983 
L 449.638182 190.123425 
L 503.227273 235.097699 
L 556.816364 271.443551 
L 610.405455 299.348305 
" clip-path="url(#p5d0fbd12c6)" style="fill: none; stroke: #2ca02c; stroke-width: 1.5; stroke-linecap: square"/>
   </g>
   <g id="line2d_26">
    <path d="M 74.514545 40.263951 
L 85.232364 44.818891 
L 95.950182 49.165144 
L 106.668 53.143321 
L 117.385818 57.248025 
L 128.103636 61.932777 
L 154.898182 72.534677 
L 181.692727 84.638459 
L 235.281818 105.79625 
L 288.870909 113.644154 
L 342.46 141.361584 
L 396.049091 183.381392 
L 449.638182 215.091788 
L 503.227273 245.341383 
L 556.816364 274.332289 
L 610.405455 300.720374 
" clip-path="url(#p5d0fbd12c6)" style="fill: none; stroke-dasharray: 5.55,2.4; stroke-dashoffset: 0; stroke: #2ca02c; stroke-width: 1.5"/>
   </g>
   <g id="line2d_27">
    <path d="M 74.514545 40.268881 
L 85.232364 45.494244 
L 95.950182 50.558574 
L 106.668 55.62619 
L 117.385818 60.802258 
L 128.103636 66.23795 
L 154.898182 79.32272 
L 181.692727 92.718053 
L 235.281818 118.422568 
L 288.870909 144.88131 
L 342.46 171.234887 
L 396.049091 197.563816 
L 449.638182 223.657768 
L 503.227273 249.543035 
L 556.816364 275.270554 
L 610.405455 300.979999 
" clip-path="url(#p5d0fbd12c6)" style="fill: none; stroke-dasharray: 1.5,2.475; stroke-dashoffset: 0; stroke: #2ca02c; stroke-width: 1.5"/>
   </g>
   <g id="line2d_28">
    <path d="M 74.514545 40.260665 
L 85.232364 45.242835 
L 95.950182 50.295663 
L 106.668 55.509524 
L 117.385818 60.647797 
L 128.103636 66.096635 
L 154.898182 79.237274 
L 181.692727 92.157724 
L 235.281818 117.375852 
L 288.870909 144.478727 
L 342.46 170.050143 
L 396.049091 196.045503 
L 449.638182 221.557764 
L 503.227273 247.873548 
L 556.816364 273.770316 
L 610.405455 299.824832 
" clip-path="url(#p5d0fbd12c6)" style="fill: none; stroke: #1f77b4; stroke-width: 1.5; stroke-linecap: square"/>
   </g>
   <g id="line2d_29">
    <path d="M 74.514545 40.259022 
L 85.232364 45.532038 
L 95.950182 50.897072 
L 106.668 56.156943 
L 117.385818 61.462823 
L 128.103636 66.75227 
L 154.898182 79.929059 
L 181.692727 92.800213 
L 235.281818 119.086419 
L 288.870909 145.157367 
L 342.46 171.162586 
L 396.049091 196.20818 
L 449.638182 222.134526 
L 503.227273 249.076367 
L 556.816364 274.872901 
L 610.405455 301.075304 
" clip-path="url(#p5d0fbd12c6)" style="fill: none; stroke-dasharray: 5.55,2.4; stroke-dashoffset: 0; stroke: #1f77b4; stroke-width: 1.5"/>
   </g>
   <g id="line2d_30">
    <path d="M 74.514545 40.268881 
L 85.232364 45.494244 
L 95.950182 50.558574 
L 106.668 55.62619 
L 117.385818 60.802258 
L 128.103636 66.23795 
L 154.898182 79.32272 
L 181.692727 92.718053 
L 235.281818 118.422568 
L 288.870909 144.88131 
L 342.46 171.234887 
L 396.049091 197.563816 
L 449.638182 223.657768 
L 503.227273 249.543035 
L 556.816364 275.270554 
L 610.405455 300.979999 
" clip-path="url(#p5d0fbd12c6)" style="fill: none; stroke-dasharray: 1.5,2.475; stroke-dashoffset: 0; stroke: #1f77b4; stroke-width: 1.5"/>
   </g>
   <g id="line2d_31">
    <path d="M 74.514545 40.147284 
L 85.232364 45.348 
L 95.950182 50.548715 
L 106.668 55.74943 
L 117.385818 60.950145 
L 128.103636 66.150861 
L 154.898182 79.152649 
L 181.692727 92.154437 
L 235.281818 118.158014 
L 288.870909 144.16159 
L 342.46 170.165166 
L 396.049091 196.168743 
L 449.638182 222.172319 
L 503.227273 248.175896 
L 556.816364 274.179472 
L 610.405455 300.183049 
" clip-path="url(#p5d0fbd12c6)" style="fill: none; stroke: #000000; stroke-opacity: 0.7; stroke-width: 0.8; stroke-linecap: square"/>
   </g>
   <g id="patch_3">
    <path d="M 47.72 318.04 
L 47.72 26.88 
" style="fill: none; stroke: #000000; stroke-width: 0.8; stroke-linejoin: miter; stroke-linecap: square"/>
   </g>
   <g id="patch_4">
    <path d="M 637.2 318.04 
L 637.2 26.88 
" style="fill: none; stroke: #000000; stroke-width: 0.8; stroke-linejoin: miter; stroke-linecap: square"/>
   </g>
   <g id="patch_5">
    <path d="M 47.72 318.04 
L 637.2 318.04 
" style="fill: none; stroke: #000000; stroke-width: 0.8; stroke-linejoin: miter; stroke-linecap: square"/>
   </g>
   <g id="patch_6">
    <path d="M 47.72 26.88 
L 637.2 26.88 
" style="fill: none; stroke: #000000; stroke-width: 0.8; stroke-linejoin: miter; stroke-linecap: square"/>
   </g>
   <g id="text_15">
    <!-- Coverage -->
    <g transform="translate(313.711562 20.88) scale(0.12 -0.12)">
     <use xlink:href="#DejaVuSans-43"/>
     <use xlink:href="#DejaVuSans-6f" transform="translate(69.824219 0)"/>
     <use xlink:href="#DejaVuSans-76" transform="translate(131.005859 0)"/>
     <use xlink:href="#DejaVuSans-65" transform="translate(190.185547 0)"/>
     <use xlink:href="#DejaVuSans-72" transform="translate(251.708984 0)"/>
     <use xlink:href="#DejaVuSans-61" transform="translate(292.822266 0)"/>
     <use xlink:href="#DejaVuSans-67" transform="translate(354.101562 0)"/>
     <use xlink:href="#DejaVuSans-65" transform="translate(417.578125 0)"/>
    </g>
   </g>
   <g id="legend_1">
    <g id="patch_7">
     <path d="M 394.879687 78.914375 
L 630.2 78.914375 
Q 632.2 78.914375 632.2 76.914375 
L 632.2 33.88 
Q 632.2 31.88 630.2 31.88 
L 394.879687 31.88 
Q 392.879687 31.88 392.879687 33.88 
L 392.879687 76.914375 
Q 392.879687 78.914375 394.879687 78.914375 
z
" style="fill: #ffffff; opacity: 0.8; stroke: #cccccc; stroke-linejoin: miter"/>
    </g>
    <g id="line2d_32">
     <path d="M 396.879687 39.978437 
L 406.879687 39.978437 
L 416.879687 39.978437 
" style="fill: none; stroke: #2ca02c; stroke-width: 1.5; stroke-linecap: square"/>
    </g>
    <g id="text_16">
     <!-- family (LoUP-CP) -->
     <g transform="translate(424.879687 43.478437) scale(0.1 -0.1)">
      <defs>
       <path id="DejaVuSans-66" d="M 2375 4863 
L 2375 4384 
L 1825 4384 
Q 1516 4384 1395 4259 
Q 1275 4134 1275 3809 
L 1275 3500 
L 2222 3500 
L 2222 3053 
L 1275 3053 
L 1275 0 
L 697 0 
L 697 3053 
L 147 3053 
L 147 3500 
L 697 3500 
L 697 3744 
Q 697 4328 969 4595 
Q 1241 4863 1831 4863 
L 2375 4863 
z
" transform="scale(0.015625)"/>
       <path id="DejaVuSans-6d" d="M 3328 2828 
Q 3544 3216 3844 3400 
Q 4144 3584 4550 3584 
Q 5097 3584 5394 3201 
Q 5691 2819 5691 2113 
L 5691 0 
L 5113 0 
L 5113 2094 
Q 5113 2597 4934 2840 
Q 4756 3084 4391 3084 
Q 3944 3084 3684 2787 
Q 3425 2491 3425 1978 
L 3425 0 
L 2847 0 
L 2847 2094 
Q 2847 2600 2669 2842 
Q 2491 3084 2119 3084 
Q 1678 3084 1418 2786 
Q 1159 2488 1159 1978 
L 1159 0 
L 581 0 
L 581 3500 
L 1159 3500 
L 1159 2956 
Q 1356 3278 1631 3431 
Q 1906 3584 2284 3584 
Q 2666 3584 2933 3390 
Q 3200 3197 3328 2828 
z
" transform="scale(0.015625)"/>
       <path id="DejaVuSans-69" d="M 603 3500 
L 1178 3500 
L 1178 0 
L 603 0 
L 603 3500 
z
M 603 4863 
L 1178 4863 
L 1178 4134 
L 603 4134 
L 603 4863 
z
" transform="scale(0.015625)"/>
       <path id="DejaVuSans-79" d="M 2059 -325 
Q 1816 -950 1584 -1140 
Q 1353 -1331 966 -1331 
L 506 -1331 
L 506 -850 
L 844 -850 
Q 1081 -850 1212 -737 
Q 1344 -625 1503 -206 
L 1606 56 
L 191 3500 
L 800 3500 
L 1894 763 
L 2988 3500 
L 3597 3500 
L 2059 -325 
z
" transform="scale(0.015625)"/>
       <path id="DejaVuSans-20" transform="scale(0.015625)"/>
       <path id="DejaVuSans-28" d="M 1984 4856 
Q 1566 4138 1362 3434 
Q 1159 2731 1159 2009 
Q 1159 1288 1364 580 
Q 1569 -128 1984 -844 
L 1484 -844 
Q 1016 -109 783 600 
Q 550 1309 550 2009 
Q 550 2706 781 3412 
Q 1013 4119 1484 4856 
L 1984 4856 
z
" transform="scale(0.015625)"/>
       <path id="DejaVuSans-4c" d="M 628 4666 
L 1259 4666 
L 1259 531 
L 3531 531 
L 3531 0 
L 628 0 
L 628 4666 
z
" transform="scale(0.015625)"/>
       <path id="DejaVuSans-55" d="M 556 4666 
L 1191 4666 
L 1191 1831 
Q 1191 1081 1462 751 
Q 1734 422 2344 422 
Q 2950 422 3222 751 
Q 3494 1081 3494 1831 
L 3494 4666 
L 4128 4666 
L 4128 1753 
Q 4128 841 3676 375 
Q 3225 -91 2344 -91 
Q 1459 -91 1007 375 
Q 556 841 556 1753 
L 556 4666 
z
" transform="scale(0.015625)"/>
       <path id="DejaVuSans-50" d="M 1259 4147 
L 1259 2394 
L 2053 2394 
Q 2494 2394 2734 2622 
Q 2975 2850 2975 3272 
Q 2975 3691 2734 3919 
Q 2494 4147 2053 4147 
L 1259 4147 
z
M 628 4666 
L 2053 4666 
Q 2838 4666 3239 4311 
Q 3641 3956 3641 3272 
Q 3641 2581 3239 2228 
Q 2838 1875 2053 1875 
L 1259 1875 
L 1259 0 
L 628 0 
L 628 4666 
z
" transform="scale(0.015625)"/>
       <path id="DejaVuSans-2d" d="M 313 2009 
L 1997 2009 
L 1997 1497 
L 313 1497 
L 313 2009 
z
" transform="scale(0.015625)"/>
       <path id="DejaVuSans-29" d="M 513 4856 
L 1013 4856 
Q 1481 4119 1714 3412 
Q 1947 2706 1947 2009 
Q 1947 1309 1714 600 
Q 1481 -109 1013 -844 
L 513 -844 
Q 928 -128 1133 580 
Q 1338 1288 1338 2009 
Q 1338 2731 1133 3434 
Q 928 4138 513 4856 
z
" transform="scale(0.015625)"/>
      </defs>
      <use xlink:href="#DejaVuSans-66"/>
      <use xlink:href="#DejaVuSans-61" transform="translate(35.205078 0)"/>
      <use xlink:href="#DejaVuSans-6d" transform="translate(96.484375 0)"/>
      <use xlink:href="#DejaVuSans-69" transform="translate(193.896484 0)"/>
      <use xlink:href="#DejaVuSans-6c" transform="translate(221.679688 0)"/>
      <use xlink:href="#DejaVuSans-79" transform="translate(249.462891 0)"/>
      <use xlink:href="#DejaVuSans-20" transform="translate(308.642578 0)"/>
      <use xlink:href="#DejaVuSans-28" transform="translate(340.429688 0)"/>
      <use xlink:href="#DejaVuSans-4c" transform="translate(379.443359 0)"/>
      <use xlink:href="#DejaVuSans-6f" transform="translate(433.40625 0)"/>
      <use xlink:href="#DejaVuSans-55" transform="translate(494.587891 0)"/>
      <use xlink:href="#DejaVuSans-50" transform="translate(567.78125 0)"/>
      <use xlink:href="#DejaVuSans-2d" transform="translate(625.833984 0)"/>
      <use xlink:href="#DejaVuSans-43" transform="translate(661.917969 0)"/>
      <use xlink:href="#DejaVuSans-50" transform="translate(731.742188 0)"/>
      <use xlink:href="#DejaVuSans-29" transform="translate(792.044922 0)"/>
     </g>
    </g>
    <g id="line2d_33">
     <path d="M 396.879687 54.656563 
L 406.879687 54.656563 
L 416.879687 54.656563 
" style="fill: none; stroke-dasharray: 5.55,2.4; stroke-dashoffset: 0; stroke: #2ca02c; stroke-width: 1.5"/>
    </g>
    <g id="text_17">
     <!-- major (LoUP-CP) -->
     <g transform="translate(424.879687 58.156563) scale(0.1 -0.1)">
      <defs>
       <path id="DejaVuSans-6a" d="M 603 3500 
L 1178 3500 
L 1178 -63 
Q 1178 -731 923 -1031 
Q 669 -1331 103 -1331 
L -116 -1331 
L -116 -844 
L 38 -844 
Q 366 -844 484 -692 
Q 603 -541 603 -63 
L 603 3500 
z
M 603 4863 
L 1178 4863 
L 1178 4134 
L 603 4134 
L 603 4863 
z
" transform="scale(0.015625)"/>
      </defs>
      <use xlink:href="#DejaVuSans-6d"/>
      <use xlink:href="#DejaVuSans-61" transform="translate(97.412109 0)"/>
      <use xlink:href="#DejaVuSans-6a" transform="translate(158.691406 0)"/>
      <use xlink:href="#DejaVuSans-6f" transform="translate(186.474609 0)"/>
      <use xlink:href="#DejaVuSans-72" transform="translate(247.65625 0)"/>
      <use xlink:href="#DejaVuSans-20" transform="translate(288.769531 0)"/>
      <use xlink:href="#DejaVuSans-28" transform="translate(320.556641 0)"/>
      <use xlink:href="#DejaVuSans-4c" transform="translate(359.570312 0)"/>
      <use xlink:href="#DejaVuSans-6f" transform="translate(413.533203 0)"/>
      <use xlink:href="#DejaVuSans-55" transform="translate(474.714844 0)"/>
      <use xlink:href="#DejaVuSans-50" transform="translate(547.908203 0)"/>
      <use xlink:href="#DejaVuSans-2d" transform="translate(605.960938 0)"/>
      <use xlink:href="#DejaVuSans-43" transform="translate(642.044922 0)"/>
      <use xlink:href="#DejaVuSans-50" transform="translate(711.869141 0)"/>
      <use xlink:href="#DejaVuSans-29" transform="translate(772.171875 0)"/>
     </g>
    </g>
    <g id="line2d_34">
     <path d="M 396.879687 69.334687 
L 406.879687 69.334687 
L 416.879687 69.334687 
" style="fill: none; stroke-dasharray: 1.5,2.475; stroke-dashoffset: 0; stroke: #2ca02c; stroke-width: 1.5"/>
    </g>
    <g id="text_18">
     <!-- leaf (LoUP-CP) -->
     <g transform="translate(424.879687 72.834687) scale(0.1 -0.1)">
      <use xlink:href="#DejaVuSans-6c"/>
      <use xlink:href="#DejaVuSans-65" transform="translate(27.783203 0)"/>
      <use xlink:href="#DejaVuSans-61" transform="translate(89.306641 0)"/>
      <use xlink:href="#DejaVuSans-66" transform="translate(150.585938 0)"/>
      <use xlink:href="#DejaVuSans-20" transform="translate(185.791016 0)"/>
      <use xlink:href="#DejaVuSans-28" transform="translate(217.578125 0)"/>
      <use xlink:href="#DejaVuSans-4c" transform="translate(256.591797 0)"/>
      <use xlink:href="#DejaVuSans-6f" transform="translate(310.554688 0)"/>
      <use xlink:href="#DejaVuSans-55" transform="translate(371.736328 0)"/>
      <use xlink:href="#DejaVuSans-50" transform="translate(444.929688 0)"/>
      <use xlink:href="#DejaVuSans-2d" transform="translate(502.982422 0)"/>
      <use xlink:href="#DejaVuSans-43" transform="translate(539.066406 0)"/>
      <use xlink:href="#DejaVuSans-50" transform="translate(608.890625 0)"/>
      <use xlink:href="#DejaVuSans-29" transform="translate(669.193359 0)"/>
     </g>
    </g>
    <g id="line2d_35">
     <path d="M 527.984375 39.978437 
L 537.984375 39.978437 
L 547.984375 39.978437 
" style="fill: none; stroke: #1f77b4; stroke-width: 1.5; stroke-linecap: square"/>
    </g>
    <g id="text_19">
     <!-- family (Lw-CP) -->
     <g transform="translate(555.984375 43.478437) scale(0.1 -0.1)">
      <defs>
       <path id="DejaVuSans-77" d="M 269 3500 
L 844 3500 
L 1563 769 
L 2278 3500 
L 2956 3500 
L 3675 769 
L 4391 3500 
L 4966 3500 
L 4050 0 
L 3372 0 
L 2619 2869 
L 1863 0 
L 1184 0 
L 269 3500 
z
" transform="scale(0.015625)"/>
      </defs>
      <use xlink:href="#DejaVuSans-66"/>
      <use xlink:href="#DejaVuSans-61" transform="translate(35.205078 0)"/>
      <use xlink:href="#DejaVuSans-6d" transform="translate(96.484375 0)"/>
      <use xlink:href="#DejaVuSans-69" transform="translate(193.896484 0)"/>
      <use xlink:href="#DejaVuSans-6c" transform="translate(221.679688 0)"/>
      <use xlink:href="#DejaVuSans-79" transform="translate(249.462891 0)"/>
      <use xlink:href="#DejaVuSans-20" transform="translate(308.642578 0)"/>
      <use xlink:href="#DejaVuSans-28" transform="translate(340.429688 0)"/>
      <use xlink:href="#DejaVuSans-4c" transform="translate(379.443359 0)"/>
      <use xlink:href="#DejaVuSans-77" transform="translate(435.15625 0)"/>
      <use xlink:href="#DejaVuSans-2d" transform="translate(516.943359 0)"/>
      <use xlink:href="#DejaVuSans-43" transform="translate(553.027344 0)"/>
      <use xlink:href="#DejaVuSans-50" transform="translate(622.851562 0)"/>
      <use xlink:href="#DejaVuSans-29" transform="translate(683.154297 0)"/>
     </g>
    </g>
    <g id="line2d_36">
     <path d="M 527.984375 54.656563 
L 537.984375 54.656563 
L 547.984375 54.656563 
" style="fill: none; stroke-dasharray: 5.55,2.4; stroke-dashoffset: 0; stroke: #1f77b4; stroke-width: 1.5"/>
    </g>
    <g id="text_20">
     <!-- major (Lw-CP) -->
     <g transform="translate(555.984375 58.156563) scale(0.1 -0.1)">
      <use xlink:href="#DejaVuSans-6d"/>
      <use xlink:href="#DejaVuSans-61" transform="translate(97.412109 0)"/>
      <use xlink:href="#DejaVuSans-6a" transform="translate(158.691406 0)"/>
      <use xlink:href="#DejaVuSans-6f" transform="translate(186.474609 0)"/>
      <use xlink:href="#DejaVuSans-72" transform="translate(247.65625 0)"/>
      <use xlink:href="#DejaVuSans-20" transform="translate(288.769531 0)"/>
      <use xlink:href="#DejaVuSans-28" transform="translate(320.556641 0)"/>
      <use xlink:href="#DejaVuSans-4c" transform="translate(359.570312 0)"/>
      <use xlink:href="#DejaVuSans-77" transform="translate(415.283203 0)"/>
      <use xlink:href="#DejaVuSans-2d" transform="translate(497.070312 0)"/>
      <use xlink:href="#DejaVuSans-43" transform="translate(533.154297 0)"/>
      <use xlink:href="#DejaVuSans-50" transform="translate(602.978516 0)"/>
      <use xlink:href="#DejaVuSans-29" transform="translate(663.28125 0)"/>
     </g>
    </g>
    <g id="line2d_37">
     <path d="M 527.984375 69.334687 
L 537.984375 69.334687 
L 547.984375 69.334687 
" style="fill: none; stroke-dasharray: 1.5,2.475; stroke-dashoffset: 0; stroke: #1f77b4; stroke-width: 1.5"/>
    </g>
    <g id="text_21">
     <!-- leaf (Lw-CP) -->
     <g transform="translate(555.984375 72.834687) scale(0.1 -0.1)">
      <use xlink:href="#DejaVuSans-6c"/>
      <use xlink:href="#DejaVuSans-65" transform="translate(27.783203 0)"/>
      <use xlink:href="#DejaVuSans-61" transform="translate(89.306641 0)"/>
      <use xlink:href="#DejaVuSans-66" transform="translate(150.585938 0)"/>
      <use xlink:href="#DejaVuSans-20" transform="translate(185.791016 0)"/>
      <use xlink:href="#DejaVuSans-28" transform="translate(217.578125 0)"/>
      <use xlink:href="#DejaVuSans-4c" transform="translate(256.591797 0)"/>
      <use xlink:href="#DejaVuSans-77" transform="translate(312.304688 0)"/>
      <use xlink:href="#DejaVuSans-2d" transform="translate(394.091797 0)"/>
      <use xlink:href="#DejaVuSans-43" transform="translate(430.175781 0)"/>
      <use xlink:href="#DejaVuSans-50" transform="translate(500 0)"/>
      <use xlink:href="#DejaVuSans-29" transform="translate(560.302734 0)"/>
     </g>
    </g>
   </g>
  </g>
 </g>
 <defs>
  <clipPath id="p5d0fbd12c6">
   <rect x="47.72" y="26.88" width="589.48" height="291.16"/>
  </clipPath>
 </defs>
</svg>
