<?xml version="1.0" encoding="utf-8" standalone="no"?>
<!DOCTYPE svg PUBLIC "-//W3C//DTD SVG 1.1//EN"
  "http://www.w3.org/Graphics/SVG/1.1/DTD/svg11.dtd">
<svg xmlns:xlink="http://www.w3.org/1999/xlink" width="648pt" height="360pt" viewBox="0 0 648 360" xmlns="http://www.w3.org/2000/svg" version="1.1">
 <metadata>
  <rdf:RDF xmlns:dc="http://purl.org/dc/elements/1.1/" xmlns:cc="http://creativecommons.org/ns#" xmlns:rdf="http://www.w3.org/1999/02/22-rdf-syntax-ns#">
   <cc:Work>
    <dc:type rdf:resource="http://purl.org/dc/dcmitype/StillImage"/>
    <dc:date>2026-01-09T19:27:42.687341</dc:date>
    <dc:format>image/svg+xml</dc:format>
    <dc:creator>
     <cc:Agent>
      <dc:title>Matplotlib v3.10.7, https://matplotlib.org/</dc:title>
     </cc:Agent>
    </dc:creator>
   </cc:Work>
  </rdf:RDF>
 </metadata>
 <defs>
  <style type="text/css">*{stroke-linejoin: round; stroke-linecap: butt}</style>
 </defs>
 <g id="figure_1">
  <g id="patch_1">
   <path d="M 0 360 
L 648 360 
L 648 0 
L 0 0 
z
" style="fill: #ffffff"/>
  </g>
  <g id="axes_1">
   <g id="patch_2">
    <path d="M 47.72 318.04 
L 637.2 318.04 
L 637.2 26.88 
L 47.72 26.88 
z
" style="fill: #ffffff"/>
   </g>
   <g id="FillBetweenPolyCollection_1">
    <defs>
     <path id="m0356b05ec9" d="M 74.514545 -55.228683 
L 74.514545 -55.228683 
L 85.232364 -55.228683 
L 95.950182 -55.228683 
L 106.668 -55.228683 
L 117.385818 -55.228683 
L 128.103636 -55.228683 
L 154.898182 -55.228683 
L 181.692727 -55.570615 
L 235.281818 -59.828354 
L 288.870909 -66.059656 
L 342.46 -97.139041 
L 396.049091 -146.19511 
L 449.638182 -191.391707 
L 503.227273 -241.908656 
L 556.816364 -281.591835 
L 610.405455 -310.815118 
L 610.405455 -318.032601 
L 610.405455 -318.032601 
L 556.816364 -289.263868 
L 503.227273 -250.451702 
L 449.638182 -197.665831 
L 396.049091 -151.500889 
L 342.46 -104.273563 
L 288.870909 -70.169737 
L 235.281818 -61.873306 
L 181.692727 -55.927277 
L 154.898182 -55.228683 
L 128.103636 -55.228683 
L 117.385818 -55.228683 
L 106.668 -55.228683 
L 95.950182 -55.228683 
L 85.232364 -55.228683 
L 74.514545 -55.228683 
z
" style="stroke: #2ca02c; stroke-opacity: 0.15"/>
    </defs>
    <g clip-path="url(#p80e80d762c)">
     <use xlink:href="#m0356b05ec9" x="0" y="360" style="fill: #2ca02c; fill-opacity: 0.15; stroke: #2ca02c; stroke-opacity: 0.15"/>
    </g>
   </g>
   <g id="FillBetweenPolyCollection_2">
    <g clip-path="url(#p80e80d762c)">
     <use xlink:href="#m0356b05ec9" x="0" y="360" style="fill: #2ca02c; fill-opacity: 0.15; stroke: #2ca02c; stroke-opacity: 0.15"/>
    </g>
   </g>
   <g id="FillBetweenPolyCollection_3">
    <g clip-path="url(#p80e80d762c)">
     <use xlink:href="#m0356b05ec9" x="0" y="360" style="fill: #2ca02c; fill-opacity: 0.15; stroke: #2ca02c; stroke-opacity: 0.15"/>
    </g>
   </g>
   <g id="FillBetweenPolyCollection_4">
    <defs>
     <path id="mc3155ed758" d="M 74.514545 -55.228683 
L 74.514545 -55.228683 
L 85.232364 -55.228683 
L 95.950182 -55.228683 
L 106.668 -55.228683 
L 117.385818 -55.194545 
L 128.103636 -60.120942 
L 154.898182 -81.149844 
L 181.692727 -97.215591 
L 235.281818 -124.700925 
L 288.870909 -154.21756 
L 342.46 -181.201118 
L 396.049091 -207.82183 
L 449.638182 -233.790579 
L 503.227273 -260.201276 
L 556.816364 -286.332639 
L 610.405455 -312.502285 
L 610.405455 -319.671816 
L 610.405455 -319.671816 
L 556.816364 -293.412134 
L 503.227273 -267.140595 
L 449.638182 -239.836997 
L 396.049091 -213.782718 
L 342.46 -187.263903 
L 288.870909 -160.506739 
L 235.281818 -131.350887 
L 181.692727 -102.604842 
L 154.898182 -86.232585 
L 128.103636 -64.778272 
L 117.385818 -55.705457 
L 106.668 -55.228683 
L 95.950182 -55.228683 
L 85.232364 -55.228683 
L 74.514545 -55.228683 
z
" style="stroke: #1f77b4; stroke-opacity: 0.15"/>
    </defs>
    <g clip-path="url(#p80e80d762c)">
     <use xlink:href="#mc3155ed758" x="0" y="360" style="fill: #1f77b4; fill-opacity: 0.15; stroke: #1f77b4; stroke-opacity: 0.15"/>
    </g>
   </g>
   <g id="FillBetweenPolyCollection_5">
    <defs>
     <path id="mb3041a5808" d="M 74.514545 -55.228683 
L 74.514545 -55.228683 
L 85.232364 -55.228683 
L 95.950182 -55.228683 
L 106.668 -55.228683 
L 117.385818 -55.228683 
L 128.103636 -55.228683 
L 154.898182 -55.225094 
L 181.692727 -55.245863 
L 235.281818 -71.550897 
L 288.870909 -119.027784 
L 342.46 -162.392178 
L 396.049091 -197.794327 
L 449.638182 -225.105086 
L 503.227273 -258.157127 
L 556.816364 -284.412311 
L 610.405455 -312.229188 
L 610.405455 -319.885455 
L 610.405455 -319.885455 
L 556.816364 -293.254712 
L 503.227273 -265.35957 
L 449.638182 -237.892602 
L 396.049091 -206.610152 
L 342.46 -170.850191 
L 288.870909 -127.365298 
L 235.281818 -76.01528 
L 181.692727 -56.301578 
L 154.898182 -55.308246 
L 128.103636 -55.228683 
L 117.385818 -55.228683 
L 106.668 -55.228683 
L 95.950182 -55.228683 
L 85.232364 -55.228683 
L 74.514545 -55.228683 
z
" style="stroke: #1f77b4; stroke-opacity: 0.15"/>
    </defs>
    <g clip-path="url(#p80e80d762c)">
     <use xlink:href="#mb3041a5808" x="0" y="360" style="fill: #1f77b4; fill-opacity: 0.15; stroke: #1f77b4; stroke-opacity: 0.15"/>
    </g>
   </g>
   <g id="FillBetweenPolyCollection_6">
    <defs>
     <path id="me673583674" d="M 74.514545 -55.228683 
L 74.514545 -55.228683 
L 85.232364 -55.228683 
L 95.950182 -55.228683 
L 106.668 -55.228683 
L 117.385818 -55.228683 
L 128.103636 -55.228683 
L 154.898182 -55.228683 
L 181.692727 -55.570615 
L 235.281818 -59.828354 
L 288.870909 -66.059656 
L 342.46 -97.139041 
L 396.049091 -146.19511 
L 449.638182 -191.391707 
L 503.227273 -241.908656 
L 556.816364 -281.591835 
L 610.405455 -310.815118 
L 610.405455 -318.032601 
L 610.405455 -318.032601 
L 556.816364 -289.263868 
L 503.227273 -250.451702 
L 449.638182 -197.665831 
L 396.049091 -151.500889 
L 342.46 -104.273563 
L 288.870909 -70.169737 
L 235.281818 -61.873306 
L 181.692727 -55.927277 
L 154.898182 -55.228683 
L 128.103636 -55.228683 
L 117.385818 -55.228683 
L 106.668 -55.228683 
L 95.950182 -55.228683 
L 85.232364 -55.228683 
L 74.514545 -55.228683 
z
" style="stroke: #1f77b4; stroke-opacity: 0.15"/>
    </defs>
    <g clip-path="url(#p80e80d762c)">
     <use xlink:href="#me673583674" x="0" y="360" style="fill: #1f77b4; fill-opacity: 0.15; stroke: #1f77b4; stroke-opacity: 0.15"/>
    </g>
   </g>
   <g id="matplotlib.axis_1">
    <g id="xtick_1">
     <g id="line2d_1">
      <path d="M 74.514545 318.04 
L 74.514545 26.88 
" clip-path="url(#p80e80d762c)" style="fill: none; stroke-dasharray: 0.5,0.825; stroke-dashoffset: 0; stroke: #b0b0b0; stroke-width: 0.5"/>
     </g>
     <g id="line2d_2">
      <defs>
       <path id="m04c5b4bea2" d="M 0 0 
L 0 3.5 
" style="stroke: #000000; stroke-width: 0.8"/>
      </defs>
      <g>
       <use xlink:href="#m04c5b4bea2" x="74.514545" y="318.04" style="stroke: #000000; stroke-width: 0.8"/>
      </g>
     </g>
     <g id="text_1">
      <!-- 0.0 -->
      <g transform="translate(66.562983 332.638438) scale(0.1 -0.1)">
       <defs>
        <path id="DejaVuSans-30" d="M 2034 4250 
Q 1547 4250 1301 3770 
Q 1056 3291 1056 2328 
Q 1056 1369 1301 889 
Q 1547 409 2034 409 
Q 2525 409 2770 889 
Q 3016 1369 3016 2328 
Q 3016 3291 2770 3770 
Q 2525 4250 2034 4250 
z
M 2034 4750 
Q 2819 4750 3233 4129 
Q 3647 3509 3647 2328 
Q 3647 1150 3233 529 
Q 2819 -91 2034 -91 
Q 1250 -91 836 529 
Q 422 1150 422 2328 
Q 422 3509 836 4129 
Q 1250 4750 2034 4750 
z
" transform="scale(0.015625)"/>
        <path id="DejaVuSans-2e" d="M 684 794 
L 1344 794 
L 1344 0 
L 684 0 
L 684 794 
z
" transform="scale(0.015625)"/>
       </defs>
       <use xlink:href="#DejaVuSans-30"/>
       <use xlink:href="#DejaVuSans-2e" transform="translate(63.623047 0)"/>
       <use xlink:href="#DejaVuSans-30" transform="translate(95.410156 0)"/>
      </g>
     </g>
    </g>
    <g id="xtick_2">
     <g id="line2d_3">
      <path d="M 181.692727 318.04 
L 181.692727 26.88 
" clip-path="url(#p80e80d762c)" style="fill: none; stroke-dasharray: 0.5,0.825; stroke-dashoffset: 0; stroke: #b0b0b0; stroke-width: 0.5"/>
     </g>
     <g id="line2d_4">
      <g>
       <use xlink:href="#m04c5b4bea2" x="181.692727" y="318.04" style="stroke: #000000; stroke-width: 0.8"/>
      </g>
     </g>
     <g id="text_2">
      <!-- 0.1 -->
      <g transform="translate(173.741165 332.638438) scale(0.1 -0.1)">
       <defs>
        <path id="DejaVuSans-31" d="M 794 531 
L 1825 531 
L 1825 4091 
L 703 3866 
L 703 4441 
L 1819 4666 
L 2450 4666 
L 2450 531 
L 3481 531 
L 3481 0 
L 794 0 
L 794 531 
z
" transform="scale(0.015625)"/>
       </defs>
       <use xlink:href="#DejaVuSans-30"/>
       <use xlink:href="#DejaVuSans-2e" transform="translate(63.623047 0)"/>
       <use xlink:href="#DejaVuSans-31" transform="translate(95.410156 0)"/>
      </g>
     </g>
    </g>
    <g id="xtick_3">
     <g id="line2d_5">
      <path d="M 288.870909 318.04 
L 288.870909 26.88 
" clip-path="url(#p80e80d762c)" style="fill: none; stroke-dasharray: 0.5,0.825; stroke-dashoffset: 0; stroke: #b0b0b0; stroke-width: 0.5"/>
     </g>
     <g id="line2d_6">
      <g>
       <use xlink:href="#m04c5b4bea2" x="288.870909" y="318.04" style="stroke: #000000; stroke-width: 0.8"/>
      </g>
     </g>
     <g id="text_3">
      <!-- 0.2 -->
      <g transform="translate(280.919347 332.638438) scale(0.1 -0.1)">
       <defs>
        <path id="DejaVuSans-32" d="M 1228 531 
L 3431 531 
L 3431 0 
L 469 0 
L 469 531 
Q 828 903 1448 1529 
Q 2069 2156 2228 2338 
Q 2531 2678 2651 2914 
Q 2772 3150 2772 3378 
Q 2772 3750 2511 3984 
Q 2250 4219 1831 4219 
Q 1534 4219 1204 4116 
Q 875 4013 500 3803 
L 500 4441 
Q 881 4594 1212 4672 
Q 1544 4750 1819 4750 
Q 2544 4750 2975 4387 
Q 3406 4025 3406 3419 
Q 3406 3131 3298 2873 
Q 3191 2616 2906 2266 
Q 2828 2175 2409 1742 
Q 1991 1309 1228 531 
z
" transform="scale(0.015625)"/>
       </defs>
       <use xlink:href="#DejaVuSans-30"/>
       <use xlink:href="#DejaVuSans-2e" transform="translate(63.623047 0)"/>
       <use xlink:href="#DejaVuSans-32" transform="translate(95.410156 0)"/>
      </g>
     </g>
    </g>
    <g id="xtick_4">
     <g id="line2d_7">
      <path d="M 396.049091 318.04 
L 396.049091 26.88 
" clip-path="url(#p80e80d762c)" style="fill: none; stroke-dasharray: 0.5,0.825; stroke-dashoffset: 0; stroke: #b0b0b0; stroke-width: 0.5"/>
     </g>
     <g id="line2d_8">
      <g>
       <use xlink:href="#m04c5b4bea2" x="396.049091" y="318.04" style="stroke: #000000; stroke-width: 0.8"/>
      </g>
     </g>
     <g id="text_4">
      <!-- 0.3 -->
      <g transform="translate(388.097528 332.638438) scale(0.1 -0.1)">
       <defs>
        <path id="DejaVuSans-33" d="M 2597 2516 
Q 3050 2419 3304 2112 
Q 3559 1806 3559 1356 
Q 3559 666 3084 287 
Q 2609 -91 1734 -91 
Q 1441 -91 1130 -33 
Q 819 25 488 141 
L 488 750 
Q 750 597 1062 519 
Q 1375 441 1716 441 
Q 2309 441 2620 675 
Q 2931 909 2931 1356 
Q 2931 1769 2642 2001 
Q 2353 2234 1838 2234 
L 1294 2234 
L 1294 2753 
L 1863 2753 
Q 2328 2753 2575 2939 
Q 2822 3125 2822 3475 
Q 2822 3834 2567 4026 
Q 2313 4219 1838 4219 
Q 1578 4219 1281 4162 
Q 984 4106 628 3988 
L 628 4550 
Q 988 4650 1302 4700 
Q 1616 4750 1894 4750 
Q 2613 4750 3031 4423 
Q 3450 4097 3450 3541 
Q 3450 3153 3228 2886 
Q 3006 2619 2597 2516 
z
" transform="scale(0.015625)"/>
       </defs>
       <use xlink:href="#DejaVuSans-30"/>
       <use xlink:href="#DejaVuSans-2e" transform="translate(63.623047 0)"/>
       <use xlink:href="#DejaVuSans-33" transform="translate(95.410156 0)"/>
      </g>
     </g>
    </g>
    <g id="xtick_5">
     <g id="line2d_9">
      <path d="M 503.227273 318.04 
L 503.227273 26.88 
" clip-path="url(#p80e80d762c)" style="fill: none; stroke-dasharray: 0.5,0.825; stroke-dashoffset: 0; stroke: #b0b0b0; stroke-width: 0.5"/>
     </g>
     <g id="line2d_10">
      <g>
       <use xlink:href="#m04c5b4bea2" x="503.227273" y="318.04" style="stroke: #000000; stroke-width: 0.8"/>
      </g>
     </g>
     <g id="text_5">
      <!-- 0.4 -->
      <g transform="translate(495.27571 332.638438) scale(0.1 -0.1)">
       <defs>
        <path id="DejaVuSans-34" d="M 2419 4116 
L 825 1625 
L 2419 1625 
L 2419 4116 
z
M 2253 4666 
L 3047 4666 
L 3047 1625 
L 3713 1625 
L 3713 1100 
L 3047 1100 
L 3047 0 
L 2419 0 
L 2419 1100 
L 313 1100 
L 313 1709 
L 2253 4666 
z
" transform="scale(0.015625)"/>
       </defs>
       <use xlink:href="#DejaVuSans-30"/>
       <use xlink:href="#DejaVuSans-2e" transform="translate(63.623047 0)"/>
       <use xlink:href="#DejaVuSans-34" transform="translate(95.410156 0)"/>
      </g>
     </g>
    </g>
    <g id="xtick_6">
     <g id="line2d_11">
      <path d="M 610.405455 318.04 
L 610.405455 26.88 
" clip-path="url(#p80e80d762c)" style="fill: none; stroke-dasharray: 0.5,0.825; stroke-dashoffset: 0; stroke: #b0b0b0; stroke-width: 0.5"/>
     </g>
     <g id="line2d_12">
      <g>
       <use xlink:href="#m04c5b4bea2" x="610.405455" y="318.04" style="stroke: #000000; stroke-width: 0.8"/>
      </g>
     </g>
     <g id="text_6">
      <!-- 0.5 -->
      <g transform="translate(602.453892 332.638438) scale(0.1 -0.1)">
       <defs>
        <path id="DejaVuSans-35" d="M 691 4666 
L 3169 4666 
L 3169 4134 
L 1269 4134 
L 1269 2991 
Q 1406 3038 1543 3061 
Q 1681 3084 1819 3084 
Q 2600 3084 3056 2656 
Q 3513 2228 3513 1497 
Q 3513 744 3044 326 
Q 2575 -91 1722 -91 
Q 1428 -91 1123 -41 
Q 819 9 494 109 
L 494 744 
Q 775 591 1075 516 
Q 1375 441 1709 441 
Q 2250 441 2565 725 
Q 2881 1009 2881 1497 
Q 2881 1984 2565 2268 
Q 2250 2553 1709 2553 
Q 1456 2553 1204 2497 
Q 953 2441 691 2322 
L 691 4666 
z
" transform="scale(0.015625)"/>
       </defs>
       <use xlink:href="#DejaVuSans-30"/>
       <use xlink:href="#DejaVuSans-2e" transform="translate(63.623047 0)"/>
       <use xlink:href="#DejaVuSans-35" transform="translate(95.410156 0)"/>
      </g>
     </g>
    </g>
    <g id="text_7">
     <!-- alpha -->
     <g transform="translate(328.599844 346.316563) scale(0.1 -0.1)">
      <defs>
       <path id="DejaVuSans-61" d="M 2194 1759 
Q 1497 1759 1228 1600 
Q 959 1441 959 1056 
Q 959 750 1161 570 
Q 1363 391 1709 391 
Q 2188 391 2477 730 
Q 2766 1069 2766 1631 
L 2766 1759 
L 2194 1759 
z
M 3341 1997 
L 3341 0 
L 2766 0 
L 2766 531 
Q 2569 213 2275 61 
Q 1981 -91 1556 -91 
Q 1019 -91 701 211 
Q 384 513 384 1019 
Q 384 1609 779 1909 
Q 1175 2209 1959 2209 
L 2766 2209 
L 2766 2266 
Q 2766 2663 2505 2880 
Q 2244 3097 1772 3097 
Q 1472 3097 1187 3025 
Q 903 2953 641 2809 
L 641 3341 
Q 956 3463 1253 3523 
Q 1550 3584 1831 3584 
Q 2591 3584 2966 3190 
Q 3341 2797 3341 1997 
z
" transform="scale(0.015625)"/>
       <path id="DejaVuSans-6c" d="M 603 4863 
L 1178 4863 
L 1178 0 
L 603 0 
L 603 4863 
z
" transform="scale(0.015625)"/>
       <path id="DejaVuSans-70" d="M 1159 525 
L 1159 -1331 
L 581 -1331 
L 581 3500 
L 1159 3500 
L 1159 2969 
Q 1341 3281 1617 3432 
Q 1894 3584 2278 3584 
Q 2916 3584 3314 3078 
Q 3713 2572 3713 1747 
Q 3713 922 3314 415 
Q 2916 -91 2278 -91 
Q 1894 -91 1617 61 
Q 1341 213 1159 525 
z
M 3116 1747 
Q 3116 2381 2855 2742 
Q 2594 3103 2138 3103 
Q 1681 3103 1420 2742 
Q 1159 2381 1159 1747 
Q 1159 1113 1420 752 
Q 1681 391 2138 391 
Q 2594 391 2855 752 
Q 3116 1113 3116 1747 
z
" transform="scale(0.015625)"/>
       <path id="DejaVuSans-68" d="M 3513 2113 
L 3513 0 
L 2938 0 
L 2938 2094 
Q 2938 2591 2744 2837 
Q 2550 3084 2163 3084 
Q 1697 3084 1428 2787 
Q 1159 2491 1159 1978 
L 1159 0 
L 581 0 
L 581 4863 
L 1159 4863 
L 1159 2956 
Q 1366 3272 1645 3428 
Q 1925 3584 2291 3584 
Q 2894 3584 3203 3211 
Q 3513 2838 3513 2113 
z
" transform="scale(0.015625)"/>
      </defs>
      <use xlink:href="#DejaVuSans-61"/>
      <use xlink:href="#DejaVuSans-6c" transform="translate(61.279297 0)"/>
      <use xlink:href="#DejaVuSans-70" transform="translate(89.0625 0)"/>
      <use xlink:href="#DejaVuSans-68" transform="translate(152.539062 0)"/>
      <use xlink:href="#DejaVuSans-61" transform="translate(215.917969 0)"/>
     </g>
    </g>
   </g>
   <g id="matplotlib.axis_2">
    <g id="ytick_1">
     <g id="line2d_13">
      <path d="M 47.72 304.771317 
L 637.2 304.771317 
" clip-path="url(#p80e80d762c)" style="fill: none; stroke-dasharray: 0.5,0.825; stroke-dashoffset: 0; stroke: #b0b0b0; stroke-width: 0.5"/>
     </g>
     <g id="line2d_14">
      <defs>
       <path id="m3811c8b6ec" d="M 0 0 
L -3.5 0 
" style="stroke: #000000; stroke-width: 0.8"/>
      </defs>
      <g>
       <use xlink:href="#m3811c8b6ec" x="47.72" y="304.771317" style="stroke: #000000; stroke-width: 0.8"/>
      </g>
     </g>
     <g id="text_8">
      <!-- 0.0 -->
      <g transform="translate(24.816875 308.570536) scale(0.1 -0.1)">
       <use xlink:href="#DejaVuSans-30"/>
       <use xlink:href="#DejaVuSans-2e" transform="translate(63.623047 0)"/>
       <use xlink:href="#DejaVuSans-30" transform="translate(95.410156 0)"/>
      </g>
     </g>
    </g>
    <g id="ytick_2">
     <g id="line2d_15">
      <path d="M 47.72 252.497243 
L 637.2 252.497243 
" clip-path="url(#p80e80d762c)" style="fill: none; stroke-dasharray: 0.5,0.825; stroke-dashoffset: 0; stroke: #b0b0b0; stroke-width: 0.5"/>
     </g>
     <g id="line2d_16">
      <g>
       <use xlink:href="#m3811c8b6ec" x="47.72" y="252.497243" style="stroke: #000000; stroke-width: 0.8"/>
      </g>
     </g>
     <g id="text_9">
      <!-- 0.1 -->
      <g transform="translate(24.816875 256.296461) scale(0.1 -0.1)">
       <use xlink:href="#DejaVuSans-30"/>
       <use xlink:href="#DejaVuSans-2e" transform="translate(63.623047 0)"/>
       <use xlink:href="#DejaVuSans-31" transform="translate(95.410156 0)"/>
      </g>
     </g>
    </g>
    <g id="ytick_3">
     <g id="line2d_17">
      <path d="M 47.72 200.223168 
L 637.2 200.223168 
" clip-path="url(#p80e80d762c)" style="fill: none; stroke-dasharray: 0.5,0.825; stroke-dashoffset: 0; stroke: #b0b0b0; stroke-width: 0.5"/>
     </g>
     <g id="line2d_18">
      <g>
       <use xlink:href="#m3811c8b6ec" x="47.72" y="200.223168" style="stroke: #000000; stroke-width: 0.8"/>
      </g>
     </g>
     <g id="text_10">
      <!-- 0.2 -->
      <g transform="translate(24.816875 204.022387) scale(0.1 -0.1)">
       <use xlink:href="#DejaVuSans-30"/>
       <use xlink:href="#DejaVuSans-2e" transform="translate(63.623047 0)"/>
       <use xlink:href="#DejaVuSans-32" transform="translate(95.410156 0)"/>
      </g>
     </g>
    </g>
    <g id="ytick_4">
     <g id="line2d_19">
      <path d="M 47.72 147.949094 
L 637.2 147.949094 
" clip-path="url(#p80e80d762c)" style="fill: none; stroke-dasharray: 0.5,0.825; stroke-dashoffset: 0; stroke: #b0b0b0; stroke-width: 0.5"/>
     </g>
     <g id="line2d_20">
      <g>
       <use xlink:href="#m3811c8b6ec" x="47.72" y="147.949094" style="stroke: #000000; stroke-width: 0.8"/>
      </g>
     </g>
     <g id="text_11">
      <!-- 0.3 -->
      <g transform="translate(24.816875 151.748312) scale(0.1 -0.1)">
       <use xlink:href="#DejaVuSans-30"/>
       <use xlink:href="#DejaVuSans-2e" transform="translate(63.623047 0)"/>
       <use xlink:href="#DejaVuSans-33" transform="translate(95.410156 0)"/>
      </g>
     </g>
    </g>
    <g id="ytick_5">
     <g id="line2d_21">
      <path d="M 47.72 95.675019 
L 637.2 95.675019 
" clip-path="url(#p80e80d762c)" style="fill: none; stroke-dasharray: 0.5,0.825; stroke-dashoffset: 0; stroke: #b0b0b0; stroke-width: 0.5"/>
     </g>
     <g id="line2d_22">
      <g>
       <use xlink:href="#m3811c8b6ec" x="47.72" y="95.675019" style="stroke: #000000; stroke-width: 0.8"/>
      </g>
     </g>
     <g id="text_12">
      <!-- 0.4 -->
      <g transform="translate(24.816875 99.474238) scale(0.1 -0.1)">
       <use xlink:href="#DejaVuSans-30"/>
       <use xlink:href="#DejaVuSans-2e" transform="translate(63.623047 0)"/>
       <use xlink:href="#DejaVuSans-34" transform="translate(95.410156 0)"/>
      </g>
     </g>
    </g>
    <g id="ytick_6">
     <g id="line2d_23">
      <path d="M 47.72 43.400944 
L 637.2 43.400944 
" clip-path="url(#p80e80d762c)" style="fill: none; stroke-dasharray: 0.5,0.825; stroke-dashoffset: 0; stroke: #b0b0b0; stroke-width: 0.5"/>
     </g>
     <g id="line2d_24">
      <g>
       <use xlink:href="#m3811c8b6ec" x="47.72" y="43.400944" style="stroke: #000000; stroke-width: 0.8"/>
      </g>
     </g>
     <g id="text_13">
      <!-- 0.5 -->
      <g transform="translate(24.816875 47.200163) scale(0.1 -0.1)">
       <use xlink:href="#DejaVuSans-30"/>
       <use xlink:href="#DejaVuSans-2e" transform="translate(63.623047 0)"/>
       <use xlink:href="#DejaVuSans-35" transform="translate(95.410156 0)"/>
      </g>
     </g>
    </g>
    <g id="text_14">
     <!-- Empty Set Rate -->
     <g transform="translate(18.737188 211.435) rotate(-90) scale(0.1 -0.1)">
      <defs>
       <path id="DejaVuSans-45" d="M 628 4666 
L 3578 4666 
L 3578 4134 
L 1259 4134 
L 1259 2753 
L 3481 2753 
L 3481 2222 
L 1259 2222 
L 1259 531 
L 3634 531 
L 3634 0 
L 628 0 
L 628 4666 
z
" transform="scale(0.015625)"/>
       <path id="DejaVuSans-6d" d="M 3328 2828 
Q 3544 3216 3844 3400 
Q 4144 3584 4550 3584 
Q 5097 3584 5394 3201 
Q 5691 2819 5691 2113 
L 5691 0 
L 5113 0 
L 5113 2094 
Q 5113 2597 4934 2840 
Q 4756 3084 4391 3084 
Q 3944 3084 3684 2787 
Q 3425 2491 3425 1978 
L 3425 0 
L 2847 0 
L 2847 2094 
Q 2847 2600 2669 2842 
Q 2491 3084 2119 3084 
Q 1678 3084 1418 2786 
Q 1159 2488 1159 1978 
L 1159 0 
L 581 0 
L 581 3500 
L 1159 3500 
L 1159 2956 
Q 1356 3278 1631 3431 
Q 1906 3584 2284 3584 
Q 2666 3584 2933 3390 
Q 3200 3197 3328 2828 
z
" transform="scale(0.015625)"/>
       <path id="DejaVuSans-74" d="M 1172 4494 
L 1172 3500 
L 2356 3500 
L 2356 3053 
L 1172 3053 
L 1172 1153 
Q 1172 725 1289 603 
Q 1406 481 1766 481 
L 2356 481 
L 2356 0 
L 1766 0 
Q 1100 0 847 248 
Q 594 497 594 1153 
L 594 3053 
L 172 3053 
L 172 3500 
L 594 3500 
L 594 4494 
L 1172 4494 
z
" transform="scale(0.015625)"/>
       <path id="DejaVuSans-79" d="M 2059 -325 
Q 1816 -950 1584 -1140 
Q 1353 -1331 966 -1331 
L 506 -1331 
L 506 -850 
L 844 -850 
Q 1081 -850 1212 -737 
Q 1344 -625 1503 -206 
L 1606 56 
L 191 3500 
L 800 3500 
L 1894 763 
L 2988 3500 
L 3597 3500 
L 2059 -325 
z
" transform="scale(0.015625)"/>
       <path id="DejaVuSans-20" transform="scale(0.015625)"/>
       <path id="DejaVuSans-53" d="M 3425 4513 
L 3425 3897 
Q 3066 4069 2747 4153 
Q 2428 4238 2131 4238 
Q 1616 4238 1336 4038 
Q 1056 3838 1056 3469 
Q 1056 3159 1242 3001 
Q 1428 2844 1947 2747 
L 2328 2669 
Q 3034 2534 3370 2195 
Q 3706 1856 3706 1288 
Q 3706 609 3251 259 
Q 2797 -91 1919 -91 
Q 1588 -91 1214 -16 
Q 841 59 441 206 
L 441 856 
Q 825 641 1194 531 
Q 1563 422 1919 422 
Q 2459 422 2753 634 
Q 3047 847 3047 1241 
Q 3047 1584 2836 1778 
Q 2625 1972 2144 2069 
L 1759 2144 
Q 1053 2284 737 2584 
Q 422 2884 422 3419 
Q 422 4038 858 4394 
Q 1294 4750 2059 4750 
Q 2388 4750 2728 4690 
Q 3069 4631 3425 4513 
z
" transform="scale(0.015625)"/>
       <path id="DejaVuSans-65" d="M 3597 1894 
L 3597 1613 
L 953 1613 
Q 991 1019 1311 708 
Q 1631 397 2203 397 
Q 2534 397 2845 478 
Q 3156 559 3463 722 
L 3463 178 
Q 3153 47 2828 -22 
Q 2503 -91 2169 -91 
Q 1331 -91 842 396 
Q 353 884 353 1716 
Q 353 2575 817 3079 
Q 1281 3584 2069 3584 
Q 2775 3584 3186 3129 
Q 3597 2675 3597 1894 
z
M 3022 2063 
Q 3016 2534 2758 2815 
Q 2500 3097 2075 3097 
Q 1594 3097 1305 2825 
Q 1016 2553 972 2059 
L 3022 2063 
z
" transform="scale(0.015625)"/>
       <path id="DejaVuSans-52" d="M 2841 2188 
Q 3044 2119 3236 1894 
Q 3428 1669 3622 1275 
L 4263 0 
L 3584 0 
L 2988 1197 
Q 2756 1666 2539 1819 
Q 2322 1972 1947 1972 
L 1259 1972 
L 1259 0 
L 628 0 
L 628 4666 
L 2053 4666 
Q 2853 4666 3247 4331 
Q 3641 3997 3641 3322 
Q 3641 2881 3436 2590 
Q 3231 2300 2841 2188 
z
M 1259 4147 
L 1259 2491 
L 2053 2491 
Q 2509 2491 2742 2702 
Q 2975 2913 2975 3322 
Q 2975 3731 2742 3939 
Q 2509 4147 2053 4147 
L 1259 4147 
z
" transform="scale(0.015625)"/>
      </defs>
      <use xlink:href="#DejaVuSans-45"/>
      <use xlink:href="#DejaVuSans-6d" transform="translate(63.183594 0)"/>
      <use xlink:href="#DejaVuSans-70" transform="translate(160.595703 0)"/>
      <use xlink:href="#DejaVuSans-74" transform="translate(224.072266 0)"/>
      <use xlink:href="#DejaVuSans-79" transform="translate(263.28125 0)"/>
      <use xlink:href="#DejaVuSans-20" transform="translate(322.460938 0)"/>
      <use xlink:href="#DejaVuSans-53" transform="translate(354.248047 0)"/>
      <use xlink:href="#DejaVuSans-65" transform="translate(417.724609 0)"/>
      <use xlink:href="#DejaVuSans-74" transform="translate(479.248047 0)"/>
      <use xlink:href="#DejaVuSans-20" transform="translate(518.457031 0)"/>
      <use xlink:href="#DejaVuSans-52" transform="translate(550.244141 0)"/>
      <use xlink:href="#DejaVuSans-61" transform="translate(617.476562 0)"/>
      <use xlink:href="#DejaVuSans-74" transform="translate(678.755859 0)"/>
      <use xlink:href="#DejaVuSans-65" transform="translate(717.964844 0)"/>
     </g>
    </g>
   </g>
   <g id="line2d_25">
    <path d="M 74.514545 304.771317 
L 85.232364 304.771317 
L 95.950182 304.771317 
L 106.668 304.771317 
L 117.385818 304.771317 
L 128.103636 304.771317 
L 154.898182 304.771317 
L 181.692727 304.251054 
L 235.281818 299.14917 
L 288.870909 291.885304 
L 342.46 259.293698 
L 396.049091 211.152001 
L 449.638182 165.471231 
L 503.227273 113.819821 
L 556.816364 74.572149 
L 610.405455 45.576141 
" clip-path="url(#p80e80d762c)" style="fill: none; stroke: #2ca02c; stroke-width: 1.5; stroke-linecap: square"/>
   </g>
   <g id="line2d_26">
    <path d="M 74.514545 304.771317 
L 85.232364 304.771317 
L 95.950182 304.771317 
L 106.668 304.771317 
L 117.385818 304.771317 
L 128.103636 304.771317 
L 154.898182 304.771317 
L 181.692727 304.251054 
L 235.281818 299.14917 
L 288.870909 291.885304 
L 342.46 259.293698 
L 396.049091 211.152001 
L 449.638182 165.471231 
L 503.227273 113.819821 
L 556.816364 74.572149 
L 610.405455 45.576141 
" clip-path="url(#p80e80d762c)" style="fill: none; stroke-dasharray: 5.55,2.4; stroke-dashoffset: 0; stroke: #2ca02c; stroke-width: 1.5"/>
   </g>
   <g id="line2d_27">
    <path d="M 74.514545 304.771317 
L 85.232364 304.771317 
L 95.950182 304.771317 
L 106.668 304.771317 
L 117.385818 304.771317 
L 128.103636 304.771317 
L 154.898182 304.771317 
L 181.692727 304.251054 
L 235.281818 299.14917 
L 288.870909 291.885304 
L 342.46 259.293698 
L 396.049091 211.152001 
L 449.638182 165.471231 
L 503.227273 113.819821 
L 556.816364 74.572149 
L 610.405455 45.576141 
" clip-path="url(#p80e80d762c)" style="fill: none; stroke-dasharray: 1.5,2.475; stroke-dashoffset: 0; stroke: #2ca02c; stroke-width: 1.5"/>
   </g>
   <g id="line2d_28">
    <path d="M 74.514545 304.771317 
L 85.232364 304.771317 
L 95.950182 304.771317 
L 106.668 304.771317 
L 117.385818 304.549999 
L 128.103636 297.550393 
L 154.898182 276.308786 
L 181.692727 260.089784 
L 235.281818 231.974094 
L 288.870909 202.637851 
L 342.46 175.76749 
L 396.049091 149.197726 
L 449.638182 123.186212 
L 503.227273 96.329064 
L 556.816364 70.127613 
L 610.405455 43.91295 
" clip-path="url(#p80e80d762c)" style="fill: none; stroke: #1f77b4; stroke-width: 1.5; stroke-linecap: square"/>
   </g>
   <g id="line2d_29">
    <path d="M 74.514545 304.771317 
L 85.232364 304.771317 
L 95.950182 304.771317 
L 106.668 304.771317 
L 117.385818 304.771317 
L 128.103636 304.771317 
L 154.898182 304.73333 
L 181.692727 304.22628 
L 235.281818 286.216911 
L 288.870909 236.803459 
L 342.46 193.378815 
L 396.049091 157.79776 
L 449.638182 128.501156 
L 503.227273 98.241651 
L 556.816364 71.166488 
L 610.405455 43.942679 
" clip-path="url(#p80e80d762c)" style="fill: none; stroke-dasharray: 5.55,2.4; stroke-dashoffset: 0; stroke: #1f77b4; stroke-width: 1.5"/>
   </g>
   <g id="line2d_30">
    <path d="M 74.514545 304.771317 
L 85.232364 304.771317 
L 95.950182 304.771317 
L 106.668 304.771317 
L 117.385818 304.771317 
L 128.103636 304.771317 
L 154.898182 304.771317 
L 181.692727 304.251054 
L 235.281818 299.14917 
L 288.870909 291.885304 
L 342.46 259.293698 
L 396.049091 211.152001 
L 449.638182 165.471231 
L 503.227273 113.819821 
L 556.816364 74.572149 
L 610.405455 45.576141 
" clip-path="url(#p80e80d762c)" style="fill: none; stroke-dasharray: 1.5,2.475; stroke-dashoffset: 0; stroke: #1f77b4; stroke-width: 1.5"/>
   </g>
   <g id="patch_3">
    <path d="M 47.72 318.04 
L 47.72 26.88 
" style="fill: none; stroke: #000000; stroke-width: 0.8; stroke-linejoin: miter; stroke-linecap: square"/>
   </g>
   <g id="patch_4">
    <path d="M 637.2 318.04 
L 637.2 26.88 
" style="fill: none; stroke: #000000; stroke-width: 0.8; stroke-linejoin: miter; stroke-linecap: square"/>
   </g>
   <g id="patch_5">
    <path d="M 47.72 318.04 
L 637.2 318.04 
" style="fill: none; stroke: #000000; stroke-width: 0.8; stroke-linejoin: miter; stroke-linecap: square"/>
   </g>
   <g id="patch_6">
    <path d="M 47.72 26.88 
L 637.2 26.88 
" style="fill: none; stroke: #000000; stroke-width: 0.8; stroke-linejoin: miter; stroke-linecap: square"/>
   </g>
   <g id="text_15">
    <!-- Empty Set Rate -->
    <g transform="translate(295.69 20.88) scale(0.12 -0.12)">
     <use xlink:href="#DejaVuSans-45"/>
     <use xlink:href="#DejaVuSans-6d" transform="translate(63.183594 0)"/>
     <use xlink:href="#DejaVuSans-70" transform="translate(160.595703 0)"/>
     <use xlink:href="#DejaVuSans-74" transform="translate(224.072266 0)"/>
     <use xlink:href="#DejaVuSans-79" transform="translate(263.28125 0)"/>
     <use xlink:href="#DejaVuSans-20" transform="translate(322.460938 0)"/>
     <use xlink:href="#DejaVuSans-53" transform="translate(354.248047 0)"/>
     <use xlink:href="#DejaVuSans-65" transform="translate(417.724609 0)"/>
     <use xlink:href="#DejaVuSans-74" transform="translate(479.248047 0)"/>
     <use xlink:href="#DejaVuSans-20" transform="translate(518.457031 0)"/>
     <use xlink:href="#DejaVuSans-52" transform="translate(550.244141 0)"/>
     <use xlink:href="#DejaVuSans-61" transform="translate(617.476562 0)"/>
     <use xlink:href="#DejaVuSans-74" transform="translate(678.755859 0)"/>
     <use xlink:href="#DejaVuSans-65" transform="translate(717.964844 0)"/>
    </g>
   </g>
   <g id="legend_1">
    <g id="patch_7">
     <path d="M 54.72 78.914375 
L 290.040313 78.914375 
Q 292.040313 78.914375 292.040313 76.914375 
L 292.040313 33.88 
Q 292.040313 31.88 290.040313 31.88 
L 54.72 31.88 
Q 52.72 31.88 52.72 33.88 
L 52.72 76.914375 
Q 52.72 78.914375 54.72 78.914375 
z
" style="fill: #ffffff; opacity: 0.8; stroke: #cccccc; stroke-linejoin: miter"/>
    </g>
    <g id="line2d_31">
     <path d="M 56.72 39.978437 
L 66.72 39.978437 
L 76.72 39.978437 
" style="fill: none; stroke: #2ca02c; stroke-width: 1.5; stroke-linecap: square"/>
    </g>
    <g id="text_16">
     <!-- family (LoUP-CP) -->
     <g transform="translate(84.72 43.478437) scale(0.1 -0.1)">
      <defs>
       <path id="DejaVuSans-66" d="M 2375 4863 
L 2375 4384 
L 1825 4384 
Q 1516 4384 1395 4259 
Q 1275 4134 1275 3809 
L 1275 3500 
L 2222 3500 
L 2222 3053 
L 1275 3053 
L 1275 0 
L 697 0 
L 697 3053 
L 147 3053 
L 147 3500 
L 697 3500 
L 697 3744 
Q 697 4328 969 4595 
Q 1241 4863 1831 4863 
L 2375 4863 
z
" transform="scale(0.015625)"/>
       <path id="DejaVuSans-69" d="M 603 3500 
L 1178 3500 
L 1178 0 
L 603 0 
L 603 3500 
z
M 603 4863 
L 1178 4863 
L 1178 4134 
L 603 4134 
L 603 4863 
z
" transform="scale(0.015625)"/>
       <path id="DejaVuSans-28" d="M 1984 4856 
Q 1566 4138 1362 3434 
Q 1159 2731 1159 2009 
Q 1159 1288 1364 580 
Q 1569 -128 1984 -844 
L 1484 -844 
Q 1016 -109 783 600 
Q 550 1309 550 2009 
Q 550 2706 781 3412 
Q 1013 4119 1484 4856 
L 1984 4856 
z
" transform="scale(0.015625)"/>
       <path id="DejaVuSans-4c" d="M 628 4666 
L 1259 4666 
L 1259 531 
L 3531 531 
L 3531 0 
L 628 0 
L 628 4666 
z
" transform="scale(0.015625)"/>
       <path id="DejaVuSans-6f" d="M 1959 3097 
Q 1497 3097 1228 2736 
Q 959 2375 959 1747 
Q 959 1119 1226 758 
Q 1494 397 1959 397 
Q 2419 397 2687 759 
Q 2956 1122 2956 1747 
Q 2956 2369 2687 2733 
Q 2419 3097 1959 3097 
z
M 1959 3584 
Q 2709 3584 3137 3096 
Q 3566 2609 3566 1747 
Q 3566 888 3137 398 
Q 2709 -91 1959 -91 
Q 1206 -91 779 398 
Q 353 888 353 1747 
Q 353 2609 779 3096 
Q 1206 3584 1959 3584 
z
" transform="scale(0.015625)"/>
       <path id="DejaVuSans-55" d="M 556 4666 
L 1191 4666 
L 1191 1831 
Q 1191 1081 1462 751 
Q 1734 422 2344 422 
Q 2950 422 3222 751 
Q 3494 1081 3494 1831 
L 3494 4666 
L 4128 4666 
L 4128 1753 
Q 4128 841 3676 375 
Q 3225 -91 2344 -91 
Q 1459 -91 1007 375 
Q 556 841 556 1753 
L 556 4666 
z
" transform="scale(0.015625)"/>
       <path id="DejaVuSans-50" d="M 1259 4147 
L 1259 2394 
L 2053 2394 
Q 2494 2394 2734 2622 
Q 2975 2850 2975 3272 
Q 2975 3691 2734 3919 
Q 2494 4147 2053 4147 
L 1259 4147 
z
M 628 4666 
L 2053 4666 
Q 2838 4666 3239 4311 
Q 3641 3956 3641 3272 
Q 3641 2581 3239 2228 
Q 2838 1875 2053 1875 
L 1259 1875 
L 1259 0 
L 628 0 
L 628 4666 
z
" transform="scale(0.015625)"/>
       <path id="DejaVuSans-2d" d="M 313 2009 
L 1997 2009 
L 1997 1497 
L 313 1497 
L 313 2009 
z
" transform="scale(0.015625)"/>
       <path id="DejaVuSans-43" d="M 4122 4306 
L 4122 3641 
Q 3803 3938 3442 4084 
Q 3081 4231 2675 4231 
Q 1875 4231 1450 3742 
Q 1025 3253 1025 2328 
Q 1025 1406 1450 917 
Q 1875 428 2675 428 
Q 3081 428 3442 575 
Q 3803 722 4122 1019 
L 4122 359 
Q 3791 134 3420 21 
Q 3050 -91 2638 -91 
Q 1578 -91 968 557 
Q 359 1206 359 2328 
Q 359 3453 968 4101 
Q 1578 4750 2638 4750 
Q 3056 4750 3426 4639 
Q 3797 4528 4122 4306 
z
" transform="scale(0.015625)"/>
       <path id="DejaVuSans-29" d="M 513 4856 
L 1013 4856 
Q 1481 4119 1714 3412 
Q 1947 2706 1947 2009 
Q 1947 1309 1714 600 
Q 1481 -109 1013 -844 
L 513 -844 
Q 928 -128 1133 580 
Q 1338 1288 1338 2009 
Q 1338 2731 1133 3434 
Q 928 4138 513 4856 
z
" transform="scale(0.015625)"/>
      </defs>
      <use xlink:href="#DejaVuSans-66"/>
      <use xlink:href="#DejaVuSans-61" transform="translate(35.205078 0)"/>
      <use xlink:href="#DejaVuSans-6d" transform="translate(96.484375 0)"/>
      <use xlink:href="#DejaVuSans-69" transform="translate(193.896484 0)"/>
      <use xlink:href="#DejaVuSans-6c" transform="translate(221.679688 0)"/>
      <use xlink:href="#DejaVuSans-79" transform="translate(249.462891 0)"/>
      <use xlink:href="#DejaVuSans-20" transform="translate(308.642578 0)"/>
      <use xlink:href="#DejaVuSans-28" transform="translate(340.429688 0)"/>
      <use xlink:href="#DejaVuSans-4c" transform="translate(379.443359 0)"/>
      <use xlink:href="#DejaVuSans-6f" transform="translate(433.40625 0)"/>
      <use xlink:href="#DejaVuSans-55" transform="translate(494.587891 0)"/>
      <use xlink:href="#DejaVuSans-50" transform="translate(567.78125 0)"/>
      <use xlink:href="#DejaVuSans-2d" transform="translate(625.833984 0)"/>
      <use xlink:href="#DejaVuSans-43" transform="translate(661.917969 0)"/>
      <use xlink:href="#DejaVuSans-50" transform="translate(731.742188 0)"/>
      <use xlink:href="#DejaVuSans-29" transform="translate(792.044922 0)"/>
     </g>
    </g>
    <g id="line2d_32">
     <path d="M 56.72 54.656563 
L 66.72 54.656563 
L 76.72 54.656563 
" style="fill: none; stroke-dasharray: 5.55,2.4; stroke-dashoffset: 0; stroke: #2ca02c; stroke-width: 1.5"/>
    </g>
    <g id="text_17">
     <!-- major (LoUP-CP) -->
     <g transform="translate(84.72 58.156563) scale(0.1 -0.1)">
      <defs>
       <path id="DejaVuSans-6a" d="M 603 3500 
L 1178 3500 
L 1178 -63 
Q 1178 -731 923 -1031 
Q 669 -1331 103 -1331 
L -116 -1331 
L -116 -844 
L 38 -844 
Q 366 -844 484 -692 
Q 603 -541 603 -63 
L 603 3500 
z
M 603 4863 
L 1178 4863 
L 1178 4134 
L 603 4134 
L 603 4863 
z
" transform="scale(0.015625)"/>
       <path id="DejaVuSans-72" d="M 2631 2963 
Q 2534 3019 2420 3045 
Q 2306 3072 2169 3072 
Q 1681 3072 1420 2755 
Q 1159 2438 1159 1844 
L 1159 0 
L 581 0 
L 581 3500 
L 1159 3500 
L 1159 2956 
Q 1341 3275 1631 3429 
Q 1922 3584 2338 3584 
Q 2397 3584 2469 3576 
Q 2541 3569 2628 3553 
L 2631 2963 
z
" transform="scale(0.015625)"/>
      </defs>
      <use xlink:href="#DejaVuSans-6d"/>
      <use xlink:href="#DejaVuSans-61" transform="translate(97.412109 0)"/>
      <use xlink:href="#DejaVuSans-6a" transform="translate(158.691406 0)"/>
      <use xlink:href="#DejaVuSans-6f" transform="translate(186.474609 0)"/>
      <use xlink:href="#DejaVuSans-72" transform="translate(247.65625 0)"/>
      <use xlink:href="#DejaVuSans-20" transform="translate(288.769531 0)"/>
      <use xlink:href="#DejaVuSans-28" transform="translate(320.556641 0)"/>
      <use xlink:href="#DejaVuSans-4c" transform="translate(359.570312 0)"/>
      <use xlink:href="#DejaVuSans-6f" transform="translate(413.533203 0)"/>
      <use xlink:href="#DejaVuSans-55" transform="translate(474.714844 0)"/>
      <use xlink:href="#DejaVuSans-50" transform="translate(547.908203 0)"/>
      <use xlink:href="#DejaVuSans-2d" transform="translate(605.960938 0)"/>
      <use xlink:href="#DejaVuSans-43" transform="translate(642.044922 0)"/>
      <use xlink:href="#DejaVuSans-50" transform="translate(711.869141 0)"/>
      <use xlink:href="#DejaVuSans-29" transform="translate(772.171875 0)"/>
     </g>
    </g>
    <g id="line2d_33">
     <path d="M 56.72 69.334687 
L 66.72 69.334687 
L 76.72 69.334687 
" style="fill: none; stroke-dasharray: 1.5,2.475; stroke-dashoffset: 0; stroke: #2ca02c; stroke-width: 1.5"/>
    </g>
    <g id="text_18">
     <!-- leaf (LoUP-CP) -->
     <g transform="translate(84.72 72.834687) scale(0.1 -0.1)">
      <use xlink:href="#DejaVuSans-6c"/>
      <use xlink:href="#DejaVuSans-65" transform="translate(27.783203 0)"/>
      <use xlink:href="#DejaVuSans-61" transform="translate(89.306641 0)"/>
      <use xlink:href="#DejaVuSans-66" transform="translate(150.585938 0)"/>
      <use xlink:href="#DejaVuSans-20" transform="translate(185.791016 0)"/>
      <use xlink:href="#DejaVuSans-28" transform="translate(217.578125 0)"/>
      <use xlink:href="#DejaVuSans-4c" transform="translate(256.591797 0)"/>
      <use xlink:href="#DejaVuSans-6f" transform="translate(310.554688 0)"/>
      <use xlink:href="#DejaVuSans-55" transform="translate(371.736328 0)"/>
      <use xlink:href="#DejaVuSans-50" transform="translate(444.929688 0)"/>
      <use xlink:href="#DejaVuSans-2d" transform="translate(502.982422 0)"/>
      <use xlink:href="#DejaVuSans-43" transform="translate(539.066406 0)"/>
      <use xlink:href="#DejaVuSans-50" transform="translate(608.890625 0)"/>
      <use xlink:href="#DejaVuSans-29" transform="translate(669.193359 0)"/>
     </g>
    </g>
    <g id="line2d_34">
     <path d="M 187.824688 39.978437 
L 197.824688 39.978437 
L 207.824688 39.978437 
" style="fill: none; stroke: #1f77b4; stroke-width: 1.5; stroke-linecap: square"/>
    </g>
    <g id="text_19">
     <!-- family (Lw-CP) -->
     <g transform="translate(215.824688 43.478437) scale(0.1 -0.1)">
      <defs>
       <path id="DejaVuSans-77" d="M 269 3500 
L 844 3500 
L 1563 769 
L 2278 3500 
L 2956 3500 
L 3675 769 
L 4391 3500 
L 4966 3500 
L 4050 0 
L 3372 0 
L 2619 2869 
L 1863 0 
L 1184 0 
L 269 3500 
z
" transform="scale(0.015625)"/>
      </defs>
      <use xlink:href="#DejaVuSans-66"/>
      <use xlink:href="#DejaVuSans-61" transform="translate(35.205078 0)"/>
      <use xlink:href="#DejaVuSans-6d" transform="translate(96.484375 0)"/>
      <use xlink:href="#DejaVuSans-69" transform="translate(193.896484 0)"/>
      <use xlink:href="#DejaVuSans-6c" transform="translate(221.679688 0)"/>
      <use xlink:href="#DejaVuSans-79" transform="translate(249.462891 0)"/>
      <use xlink:href="#DejaVuSans-20" transform="translate(308.642578 0)"/>
      <use xlink:href="#DejaVuSans-28" transform="translate(340.429688 0)"/>
      <use xlink:href="#DejaVuSans-4c" transform="translate(379.443359 0)"/>
      <use xlink:href="#DejaVuSans-77" transform="translate(435.15625 0)"/>
      <use xlink:href="#DejaVuSans-2d" transform="translate(516.943359 0)"/>
      <use xlink:href="#DejaVuSans-43" transform="translate(553.027344 0)"/>
      <use xlink:href="#DejaVuSans-50" transform="translate(622.851562 0)"/>
      <use xlink:href="#DejaVuSans-29" transform="translate(683.154297 0)"/>
     </g>
    </g>
    <g id="line2d_35">
     <path d="M 187.824688 54.656563 
L 197.824688 54.656563 
L 207.824688 54.656563 
" style="fill: none; stroke-dasharray: 5.55,2.4; stroke-dashoffset: 0; stroke: #1f77b4; stroke-width: 1.5"/>
    </g>
    <g id="text_20">
     <!-- major (Lw-CP) -->
     <g transform="translate(215.824688 58.156563) scale(0.1 -0.1)">
      <use xlink:href="#DejaVuSans-6d"/>
      <use xlink:href="#DejaVuSans-61" transform="translate(97.412109 0)"/>
      <use xlink:href="#DejaVuSans-6a" transform="translate(158.691406 0)"/>
      <use xlink:href="#DejaVuSans-6f" transform="translate(186.474609 0)"/>
      <use xlink:href="#DejaVuSans-72" transform="translate(247.65625 0)"/>
      <use xlink:href="#DejaVuSans-20" transform="translate(288.769531 0)"/>
      <use xlink:href="#DejaVuSans-28" transform="translate(320.556641 0)"/>
      <use xlink:href="#DejaVuSans-4c" transform="translate(359.570312 0)"/>
      <use xlink:href="#DejaVuSans-77" transform="translate(415.283203 0)"/>
      <use xlink:href="#DejaVuSans-2d" transform="translate(497.070312 0)"/>
      <use xlink:href="#DejaVuSans-43" transform="translate(533.154297 0)"/>
      <use xlink:href="#DejaVuSans-50" transform="translate(602.978516 0)"/>
      <use xlink:href="#DejaVuSans-29" transform="translate(663.28125 0)"/>
     </g>
    </g>
    <g id="line2d_36">
     <path d="M 187.824688 69.334687 
L 197.824688 69.334687 
L 207.824688 69.334687 
" style="fill: none; stroke-dasharray: 1.5,2.475; stroke-dashoffset: 0; stroke: #1f77b4; stroke-width: 1.5"/>
    </g>
    <g id="text_21">
     <!-- leaf (Lw-CP) -->
     <g transform="translate(215.824688 72.834687) scale(0.1 -0.1)">
      <use xlink:href="#DejaVuSans-6c"/>
      <use xlink:href="#DejaVuSans-65" transform="translate(27.783203 0)"/>
      <use xlink:href="#DejaVuSans-61" transform="translate(89.306641 0)"/>
      <use xlink:href="#DejaVuSans-66" transform="translate(150.585938 0)"/>
      <use xlink:href="#DejaVuSans-20" transform="translate(185.791016 0)"/>
      <use xlink:href="#DejaVuSans-28" transform="translate(217.578125 0)"/>
      <use xlink:href="#DejaVuSans-4c" transform="translate(256.591797 0)"/>
      <use xlink:href="#DejaVuSans-77" transform="translate(312.304688 0)"/>
      <use xlink:href="#DejaVuSans-2d" transform="translate(394.091797 0)"/>
      <use xlink:href="#DejaVuSans-43" transform="translate(430.175781 0)"/>
      <use xlink:href="#DejaVuSans-50" transform="translate(500 0)"/>
      <use xlink:href="#DejaVuSans-29" transform="translate(560.302734 0)"/>
     </g>
    </g>
   </g>
  </g>
 </g>
 <defs>
  <clipPath id="p80e80d762c">
   <rect x="47.72" y="26.88" width="589.48" height="291.16"/>
  </clipPath>
 </defs>
</svg>
